<svg width="88" height="109" viewBox="0 0 88 109" fill="none" xmlns="http://www.w3.org/2000/svg">
<path d="M38.9337 77.7803C38.9337 77.7803 39.0234 97.1914 38.3284 104.003C38.3284 104.003 40.8977 107.73 46.7622 104.786C46.7622 104.786 45.2667 87.2557 45.7422 78.4753C45.7334 78.6379 43.1906 74.4232 38.9337 77.7803Z" fill="url(#paint0_linear_1_3132)"/>
<path d="M82.8955 78.6936C82.9043 78.531 82.9131 78.3684 82.7506 78.3596C82.0917 78.487 81.4327 78.6144 80.9364 78.7506C78.0109 78.5922 75.1206 77.7833 72.617 75.8538C71.9934 75.3308 71.2071 74.799 70.4297 74.1046C73.1663 74.7421 75.938 74.7291 78.0773 74.3557C78.2398 74.3645 78.2574 74.0393 78.1037 73.8679C76.8123 73.6349 75.5297 73.2393 74.2383 73.0063C76.3688 72.7955 78.2094 71.9167 79.2991 69.8557C79.4704 69.7019 79.1542 69.5217 79.1542 69.5217C77.665 69.9303 76.1934 70.0137 74.5682 69.9256C70.8917 68.585 66.6708 65.2579 64.5275 62.6956C64.2289 62.1902 63.7589 61.8386 63.4603 61.3332C66.4122 61.0039 69.8957 59.8879 71.5082 57.2029C71.8596 56.7327 71.5786 55.9021 70.9197 56.0295C70.5858 56.1745 70.252 56.3195 69.9181 56.4645C69.5931 56.4469 69.2592 56.5919 69.0967 56.5831C66.6588 56.451 64.0936 55.6598 61.8798 54.3984C62.8638 54.2886 63.8566 54.0162 64.7044 53.4098C65.2008 53.2736 65.5347 53.1286 65.8862 52.6584C66.0575 52.5046 65.9038 52.3332 65.7412 52.3244C65.7412 52.3244 65.7412 52.3244 65.9126 52.1706C66.0839 52.0168 65.9302 51.8454 65.7677 51.8366C64.6212 51.9376 63.646 51.8848 62.6796 51.6694C61.5684 51.1199 60.6372 50.2541 59.7061 49.3883C62.1352 49.6829 64.7445 49.6612 66.5939 48.6198C66.7564 48.6286 66.7564 48.6286 66.919 48.6374C67.244 48.655 67.4242 48.3386 67.2792 48.0046C67.4506 47.8508 67.6219 47.697 67.7844 47.7058C67.9558 47.552 67.8109 47.218 67.6483 47.2092C67.1608 47.1828 66.5106 47.1476 66.0231 47.1212C62.9879 45.9783 60.1681 43.8687 57.5108 41.7678C55.4772 40.19 54.1113 38.3221 52.9168 36.3005C56.1409 36.9644 59.5804 36.6614 61.9174 35.6465C62.08 35.6553 62.0888 35.4927 61.9351 35.3213C61.9351 35.3213 61.9351 35.3213 61.7725 35.3125C59.3522 34.8552 57.0376 32.4468 55.1665 30.8777C54.5429 30.3547 54.0817 29.8405 53.6205 29.3263C57.0728 31.7964 61.2193 33.4886 63.6356 31.0103C63.8069 30.8565 63.8157 30.6939 63.6532 30.6851C51.398 28.2275 45.0874 15.3287 41.0611 2.39055C40.9338 1.73135 40.1212 1.68733 39.9146 2.49153C39.897 2.81673 39.8794 3.14193 39.8618 3.46713C39.5455 3.28692 39.0403 3.58572 38.8514 4.06472C37.5327 10.3533 36.1388 21.041 29.5233 22.8026C29.3607 22.7938 29.5056 23.1278 29.5056 23.1278C30.4984 22.8555 31.6625 22.4293 32.6905 21.5065C30.0589 24.9517 26.2543 28.9856 22.3272 29.2621C22.0022 29.2445 21.9669 29.8949 22.292 29.9125C25.0638 29.8996 27.7082 29.2274 30.0629 27.8873C28.1254 30.5547 25.8804 32.8792 23.2007 34.2018C22.6955 34.5006 22.9853 35.1686 23.4817 35.0324C26.3063 34.0438 28.9948 32.5587 31.2398 30.2341C31.0509 30.7131 30.8707 31.0295 30.5192 31.4997C30.3391 31.8161 29.9964 32.1237 29.8075 32.6027C27.3295 36.2193 23.7844 38.4734 19.8485 38.9125C19.3609 38.8861 19.4794 39.7079 19.8044 39.7255C21.2584 39.9674 22.5674 39.8752 23.894 39.4578C21.6755 41.2946 18.9958 42.6171 16.413 42.1511C16.0879 42.1335 16.0615 42.6213 16.3778 42.8015C20.0542 44.1422 23.2127 43.0086 26.424 40.8995C22.5666 45.909 17.6419 49.5561 11.4571 49.3842C11.132 49.3666 11.1144 49.6918 11.0968 50.017C10.6092 49.9906 10.4115 50.6322 10.8814 50.9838C14.5051 53.3001 18.3969 53.674 22.3416 53.0722C21.999 53.3798 21.6475 53.85 21.1423 54.1488C17.5531 57.216 13.6828 59.4525 9.25057 60.0279C9.08804 60.0191 8.91671 60.1728 8.89909 60.498C8.41151 60.4716 8.08646 60.454 7.59007 60.5902C6.93996 60.555 6.87831 61.6932 7.51961 61.891C12.0087 63.2757 16.7396 63.2058 21.3697 61.9889C21.0182 62.4591 20.6579 63.0919 20.3064 63.5621L20.1351 63.7159C17.5739 65.8602 14.6044 66.5148 11.8894 68.4877C11.7181 68.6415 11.8542 69.1381 12.0255 68.9843C14.1912 68.1232 16.3481 67.4246 18.3601 66.392C17.477 67.6488 16.6027 68.743 15.5571 69.991C12.6004 73.4186 8.25539 78.4017 4.14817 78.9946C3.82312 78.977 3.64298 79.2934 3.62537 79.6186C2.98406 79.4208 2.51409 79.0692 1.88159 78.7088C1.56535 78.5286 1.21387 78.9988 1.35879 79.3328C3.44923 82.8707 9.01038 82.5196 12.2874 82.2078C13.9214 82.1332 16.0695 81.5973 18.0727 80.7273C16.5307 82.1115 14.69 82.9903 13.0119 83.8778C12.6781 84.0228 12.8054 84.682 13.1392 84.537C13.8069 84.247 14.4747 83.957 15.1424 83.6671C12.2385 86.119 8.73737 87.5602 5.28907 88.0257L5.12654 88.0169C4.80149 87.9993 4.48524 87.8191 4.16018 87.8015C3.84394 87.6213 3.64618 88.2629 3.96243 88.4431C10.8582 93.5458 20.5618 91.9514 27.3888 86.2873C26.5057 87.5441 25.4689 88.6295 24.1334 89.2094C23.9709 89.2006 23.9533 89.5258 23.9445 89.6885C22.7804 90.1146 21.6163 90.5408 20.2808 91.1208C19.7756 91.4196 19.8853 92.404 20.3817 92.2678C24.8228 91.5299 29.2551 90.9546 33.3054 88.4016C34.8298 87.3426 36.2005 86.1122 37.58 84.7193C36.6793 86.3013 35.7786 87.8832 34.7153 89.4564C34.7065 89.619 34.6977 89.7816 34.8691 89.6278C36.9691 86.9693 39.2317 84.3195 40.5543 80.9665C40.5015 81.9421 40.4486 82.9177 40.3958 83.8933C40.0923 86.4861 40.2501 89.5931 39.459 92.1595C39.0811 93.1175 38.7121 93.9129 38.1716 94.8621C38.1628 95.0247 38.154 95.1873 38.3254 95.0335C39.6696 94.291 40.5351 93.3594 41.427 91.94C43.0218 89.5802 45.0779 87.7346 46.5102 85.366C46.8617 84.8958 47.0506 84.4168 47.4109 83.784C47.1779 85.076 46.7824 86.3592 46.2243 87.6336C46.2155 87.7962 46.3693 87.9676 46.3781 87.805C47.4589 85.9066 48.0522 83.9818 48.5005 81.7231C50.8896 85.7663 53.8367 88.5352 57.0825 91.8094C57.2362 91.9808 57.4163 91.6644 57.2538 91.6556C56.9464 91.3128 56.8014 90.9788 56.494 90.636C56.9552 91.1502 57.4163 91.6645 58.04 92.1875C58.1937 92.3589 58.3651 92.2051 58.2113 92.0337C57.0432 89.5242 56.209 86.8698 55.3659 84.378C62.385 87.2043 71.5346 89.8199 77.3688 84.4282C77.7114 84.1206 77.5841 83.4614 77.0877 83.5976C76.4288 83.7249 75.7699 83.8523 75.1198 83.8171C73.3232 83.8829 71.7155 83.4697 70.1255 82.7312C74.0261 82.9425 77.9796 82.1782 80.7474 79.2296C81.0813 79.0846 81.2614 78.7682 81.5953 78.6232C82.8779 79.0188 82.8867 78.8562 82.8955 78.6936C82.8955 78.6936 82.733 78.6848 82.8955 78.6936Z" fill="url(#paint1_linear_1_3132)"/>
<path opacity="0.5" d="M16.6853 43.1443C20.3618 44.485 23.5203 43.3514 26.7316 41.2423C25.1632 43.1143 23.5948 44.9862 21.7277 46.3528C20.871 47.1218 19.8694 47.5568 18.859 48.1544C19.3554 48.0182 20.0144 47.8908 20.5019 47.9172C22.1536 47.5174 23.6428 47.1089 25.1584 46.2125C26.6652 45.4787 29.7316 43.0355 30.9397 41.7964C30.1135 45.0132 26.9326 49.5701 27.2752 49.2625C30.6755 46.6744 31.7387 45.1012 33.5401 41.9372C33.6362 46.1824 33.2359 50.5638 33.657 54.8267C33.6306 55.3145 33.4241 56.1187 33.7667 55.8111C34.9837 54.4093 39.3295 43.3923 40.0501 42.1267C41.0204 45.2778 43.9715 50.9822 43.9891 50.657C44.6088 48.2444 44.2622 45.6164 44.078 42.9972C46.094 44.9002 51.3429 47.3045 51.0443 46.7991C47.4999 43.0195 44.0348 37.7764 43.3767 31.8699C43.4031 31.3821 42.2646 37.3543 41.9523 40.1097C40.1517 37.2399 39.5905 29.5449 39.4015 30.0239C37.5737 33.6756 36.7034 37.7054 35.2007 41.3748C34.7091 38.4128 35.7291 31.6188 35.3952 31.7638C34.3584 32.8492 33.6466 33.9522 32.7723 35.0463C32.0694 35.9867 31.2127 36.7557 30.1935 37.5159C31.2744 35.6175 32.9925 30.9813 32.8124 31.2977C31.3801 33.6663 29.0078 35.3317 26.5082 36.3378C25.9942 36.7992 25.3265 37.0892 24.8125 37.5506C23.3057 38.2844 21.8078 38.8556 20.1649 39.0927C19.6773 39.0663 19.7958 39.8881 20.1208 39.9058C21.5748 40.1476 22.8838 40.0554 24.2104 39.638C21.9919 41.4748 19.3122 42.7973 16.7294 42.3313C16.558 42.4851 16.3603 43.1267 16.6853 43.1443Z" fill="url(#paint2_linear_1_3132)"/>
<path opacity="0.6" d="M22.5992 30.2553C22.7618 30.2641 22.7618 30.2641 22.9243 30.2729C23.0868 30.2817 23.2581 30.1279 23.2581 30.1279L23.4207 30.1367C27.3566 29.6976 30.7744 26.7843 34.1747 24.1961C33.6343 25.1453 32.7688 26.0769 32.0747 26.8547C31.732 27.1623 32.0218 27.8303 32.5094 27.8567C34.9825 27.3383 37.3724 25.3478 39.121 23.1594C38.8968 24.2888 38.6726 25.4182 38.611 26.5564C38.5846 27.0442 39.2259 27.242 39.406 26.9256C40.4692 25.3524 41.0625 23.4276 41.8095 21.6742C42.5252 23.5069 43.0697 25.4933 44.2818 27.1897C44.5893 27.5325 44.9231 27.3875 44.9495 26.8997C45.0288 25.4363 44.783 23.9553 44.6997 22.4831C46.1185 23.3753 47.5196 24.5927 48.5868 25.9552C48.8942 26.298 49.417 25.674 49.1096 25.3312C46.8214 22.4349 45.7326 18.4621 43.9584 15.1044C43.8135 14.7704 43.3171 14.9066 43.2995 15.2318C43.2466 16.2074 43.0312 17.1742 42.8247 17.9784C42.0913 16.471 41.8455 14.99 41.7799 13.1926C41.7975 12.8674 41.3275 12.5158 41.1474 12.8322C40.2643 14.089 39.7062 15.3634 38.8231 16.6202C39.1442 13.7021 39.7815 10.9644 40.0937 8.20894C40.1994 6.25774 40.3139 4.14393 40.2571 2.18393C40.0857 2.33772 40.0857 2.33772 40.0769 2.50032C40.0593 2.82552 40.0417 3.15072 40.0241 3.47592C39.8616 3.46712 39.699 3.45831 39.5365 3.44951C39.3652 3.60331 39.1938 3.75711 39.0137 4.07351C37.6951 10.3621 36.3012 21.0497 29.6856 22.8114C29.5231 22.8026 29.668 23.1366 29.668 23.1366C30.6607 22.8642 31.8249 22.4381 32.8529 21.5153C31.447 23.3961 29.7072 25.4218 27.8313 26.951C26.1268 28.3264 24.4487 29.214 22.6521 29.2797C22.4895 29.2709 22.4895 29.2709 22.4807 29.4335C22.283 30.0751 22.2742 30.2377 22.5992 30.2553Z" fill="url(#paint3_linear_1_3132)"/>
<path opacity="0.4" d="M63.7404 68.1976C62.1327 67.7844 60.6876 67.3799 59.2424 66.9755C57.6964 65.4241 55.9615 64.3517 54.4155 62.8002C52.8694 61.2488 51.855 58.9108 50.309 57.3593C50.0016 57.0165 49.4964 57.3153 49.6325 57.8119C49.7422 58.7963 49.7422 58.7963 49.8519 59.7807C49.9704 60.6025 50.6333 63.4107 49.1225 61.2089C48.5252 60.1981 48.0993 59.0335 47.3307 58.1765C47.177 58.0051 46.8519 57.9875 46.8343 58.3127C46.1049 59.7409 46.5045 61.3933 46.7502 62.8743C45.8632 61.1955 45.3275 59.0464 44.2779 57.3588C44.133 57.0248 43.7991 57.1698 43.6278 57.3236C42.7007 59.3934 42.9024 61.6874 42.9417 63.9726C42.2435 61.8148 41.8704 59.6746 41.326 57.6882C41.1811 57.3542 40.856 57.3366 40.6759 57.653C39.551 60.3643 39.0586 63.4361 38.25 66.3277C38.0923 63.2207 38.2596 60.1313 38.4269 57.0419C38.4445 56.7167 37.9658 56.5277 37.7856 56.8441C35.1099 61.1023 33.0667 65.7208 31.331 70.6822C31.5511 66.6172 32.0964 62.5698 32.7953 58.6938C32.8217 58.206 32.5055 58.0258 32.1628 58.3334C30.2341 60.8382 28.6304 63.3606 26.4031 65.3599C24.6898 66.8979 22.9764 68.4359 21.1005 69.9651C22.155 68.5545 23.2094 67.1439 23.9564 65.3905C25.2438 62.6879 27.01 60.1743 27.9811 57.2915C27.9899 57.1289 27.8538 56.6323 27.6737 56.9487C25.7802 58.8031 23.8691 60.9827 21.8219 62.6656C21.6506 62.8194 21.3167 62.9644 21.1454 63.1182C20.9652 63.4346 20.7939 63.5884 20.6138 63.9048L20.4424 64.0586C20.2711 64.2124 20.2711 64.2124 20.0998 64.3662C17.7099 66.3568 14.7404 67.0113 12.1968 68.8305C12.0254 68.9843 12.1615 69.4809 12.3329 69.3271C14.4986 68.4659 16.6555 67.7674 18.6674 66.7348C17.7843 67.9916 16.9101 69.0858 15.8644 70.3338C13.4305 73.1373 10.1223 77.0351 6.61239 78.6388C5.94467 78.9288 5.27695 79.2188 4.4555 79.3374C4.4555 79.3374 4.4555 79.3374 4.29297 79.3286C8.94462 80.7221 14.2512 79.0526 18.2927 76.6622C20.1422 75.6209 21.8467 74.2455 23.3975 72.6987C23.9204 72.0747 24.6057 71.4595 25.1285 70.8355C25.4712 70.5279 25.8226 70.0577 26.1741 69.5875L26.4463 70.5808C26.2486 71.2224 26.0508 71.864 25.8531 72.5056C25.0885 74.5842 24.1613 76.6539 23.0805 78.5523C21.657 80.7583 19.926 82.6215 18.5113 84.6649C18.1598 85.1351 18.621 85.6493 18.9725 85.1791C22.0829 81.9229 26.0628 80.6708 29.608 78.4167C32.3053 76.7689 34.7392 73.9653 36.2156 70.7837C35.732 73.6929 34.6071 76.4043 34.1236 79.3135C34.0971 79.8013 34.5671 80.1529 34.756 79.6739C36.162 77.7932 36.9354 75.552 37.8713 73.3196C38.7984 71.2498 39.5982 68.5208 40.8416 66.6312C41.8208 69.6196 42.1058 73.3858 44.1042 75.6141C44.2579 75.7855 44.7455 75.8119 44.7719 75.3241C45.0401 73.3817 44.0874 69.9055 45.0057 67.9983C45.7126 69.9935 46.8896 72.3403 48.6509 72.925C48.8135 72.9338 49.1473 72.7888 49.1561 72.6262C49.2618 70.675 48.5284 69.1675 48.1377 67.3525C48.9063 68.2095 49.6749 69.0666 50.4523 69.761C50.7686 69.9412 50.9487 69.6248 50.8038 69.2908C50.6941 68.3064 50.4219 67.3132 49.9872 66.3112C49.2714 64.4785 49.5701 64.9839 50.6549 66.0212C52.0472 67.4012 53.2946 68.4472 55.0736 68.7067C55.2361 68.7155 55.4074 68.5617 55.2537 68.3903C54.5027 67.208 53.7517 66.0258 53.1721 64.6898C56.1368 67.1335 59.6332 68.7905 63.244 68.3338C63.8765 68.6942 63.8941 68.369 63.7404 68.1976Z" fill="url(#paint4_linear_1_3132)"/>
<path opacity="0.4" d="M30.7058 49.1222C30.3631 49.4298 30.0204 49.7373 29.6778 50.0449C28.8211 50.8139 27.8107 51.4115 26.9628 52.0179C27.982 51.2577 29.1726 50.3437 30.2094 49.2583C30.2182 49.0957 30.2094 49.2583 30.2094 49.2583C28.5048 50.6337 26.8267 51.5213 25.1486 52.4089C23.4617 53.459 21.9109 55.0058 20.3689 56.39C18.6643 57.7654 16.6612 58.6353 14.6668 59.3427C13.674 59.6151 12.6812 59.8875 11.6885 60.1599C10.7045 60.2697 9.71171 60.542 8.73654 60.4892C8.57402 60.4804 8.56521 60.643 8.72774 60.6518C9.05279 60.6694 9.36904 60.8496 9.69409 60.8672C9.68528 61.0298 9.67648 61.1924 9.83901 61.2012C10.8142 61.2541 11.7981 61.1443 12.7821 61.0345C19.6435 60.7538 26.7691 55.5951 30.8595 49.2936C31.0308 49.1398 30.8771 48.9684 30.7058 49.1222Z" fill="url(#paint5_linear_1_3132)"/>
<path opacity="0.4" d="M82.8955 78.6936C82.9043 78.531 82.9131 78.3684 82.7506 78.3596C82.0917 78.487 81.4328 78.6144 80.9364 78.7506C78.8235 78.6361 76.7283 78.1965 74.822 77.2779C74.027 76.9086 73.2408 76.3768 72.6171 75.8538C71.9934 75.3308 71.2071 74.799 70.4297 74.1046C73.1663 74.742 75.9381 74.7291 78.0773 74.3557C78.2399 74.3645 78.2575 74.0393 78.1038 73.8679C76.8123 73.6349 75.5297 73.2393 74.2383 73.0062C75.8812 72.7691 77.2167 72.1891 78.416 71.1125C78.7587 70.8049 79.1101 70.3347 79.4616 69.8645C79.633 69.7107 79.3167 69.5305 79.3167 69.5305C77.8275 69.9391 76.356 70.0225 74.7307 69.9344C74.0894 69.7366 73.2944 69.3674 72.4994 68.9982C69.4906 67.3675 66.3634 64.9151 64.6812 62.867C64.3826 62.3616 63.9126 62.01 63.614 61.5046C66.4034 61.1664 69.7156 60.2043 71.4818 57.6907C71.4906 57.5281 71.6531 57.5369 71.6619 57.3743C72.0134 56.9041 71.7324 56.0735 71.0735 56.2009C70.7396 56.3459 70.4057 56.4909 70.0719 56.6359C69.7468 56.6183 69.4129 56.7633 69.2504 56.7545C66.8125 56.6224 64.2473 55.8312 62.0336 54.5697C62.1961 54.5785 62.5211 54.5961 62.6925 54.4423C63.3514 54.315 63.8478 54.1788 64.5155 53.8888C64.6868 53.735 64.8494 53.7438 65.0207 53.59C65.5171 53.4538 65.8509 53.3088 66.2024 52.8386C66.3738 52.6848 66.22 52.5134 66.0575 52.5046C66.0575 52.5046 66.0575 52.5046 66.2288 52.3508C66.4002 52.197 66.2465 52.0256 66.0839 52.0168C64.9374 52.1178 63.9623 52.065 62.9959 51.8495C61.8846 51.3001 60.9535 50.4343 60.0224 49.5685C60.1849 49.5773 60.1849 49.5773 60.3474 49.5861C62.7765 49.8807 65.0607 49.8414 66.9102 48.8C67.0727 48.8088 67.0727 48.8088 67.2352 48.8176C67.3978 48.8264 67.5691 48.6726 67.5691 48.6726C67.5779 48.51 67.5867 48.3474 67.5867 48.3474C67.7581 48.1936 67.9294 48.0398 68.0919 48.0486C68.2632 47.8948 68.1183 47.5608 67.9558 47.552C67.4682 47.5256 66.8181 47.4904 66.3305 47.464C64.5691 46.8793 62.9967 45.8157 61.5868 44.7609C60.3306 43.8775 59.0744 42.994 57.9808 42.1194C55.9472 40.5416 54.5813 38.6737 53.3868 36.6521C56.1233 37.2896 59.2378 36.969 61.3858 36.433C61.7197 36.288 62.0536 36.1431 62.3786 36.1607C62.5412 36.1695 62.55 36.0069 62.3962 35.8355C62.3962 35.8355 62.3962 35.8355 62.2337 35.8267C59.8134 35.3694 57.4988 32.961 55.6277 31.3919C55.0041 30.8689 54.5429 30.3547 54.0817 29.8405C57.534 32.3106 61.6805 34.0028 64.0968 31.5245C64.2681 31.3707 64.2769 31.2081 64.1144 31.1993C63.7893 31.1817 63.4731 31.0014 63.3106 30.9926C63.3106 30.9926 63.3106 30.9926 63.148 30.9838C62.823 30.9662 62.4979 30.9486 62.1729 30.931C60.0776 30.4914 58.0088 29.564 56.1025 28.6453C52.145 26.474 49.7471 22.5934 47.0154 18.8577C46.8617 18.6863 46.5278 18.8313 46.6727 19.1653C47.5246 21.4945 48.7191 23.5162 50.085 25.384C50.8184 26.8914 51.5517 28.3988 52.4653 29.5898C52.3115 29.4184 51.9953 29.2382 51.8416 29.0668C50.5942 28.0208 49.3644 26.6496 47.9369 25.92C47.6207 25.7397 47.4317 26.2188 47.5854 26.3902C48.0378 27.067 48.6527 27.7526 49.1138 28.2668C51.2571 30.829 53.5717 33.2375 56.2642 34.6879C55.6141 34.6527 54.964 34.6175 54.3227 34.4197C50.6198 33.5668 47.4485 31.9274 44.8617 28.5257C44.708 28.3543 44.3653 28.6619 44.519 28.8333C45.2788 29.8529 45.8673 31.0263 46.6359 31.8834C49.6046 37.2626 53.43 41.8729 57.6685 44.8748C54.1898 42.8925 51.0538 40.6027 48.1243 37.5086C47.8168 37.1658 47.6279 37.6448 47.7728 37.9788C48.6775 39.3324 49.591 40.5234 50.5045 41.7145C53.2186 45.7753 56.5829 49.8714 60.5404 52.0427C57.8038 51.4052 54.1802 49.089 52.1818 46.8607C52.0281 46.6893 51.6854 46.9969 51.8392 47.1683C52.4452 48.0165 53.0513 48.8648 53.8287 49.5592C54.5885 50.5788 55.1858 51.5896 56.2794 52.4642C57.518 53.6729 59.0993 54.5739 60.5268 55.3035C55.3787 54.0462 50.2091 50.1785 46.5462 45.577C46.2388 45.2342 45.8873 45.7044 46.0322 46.0384C46.467 47.0404 47.0642 48.0512 47.8328 48.9083C48.575 50.2531 49.1635 51.4265 49.7431 52.7625C49.7431 52.7625 49.5718 52.9163 49.7343 52.9251C50.1779 53.7645 50.6302 54.4413 51.0738 55.2807C49.844 53.9095 48.6142 52.5383 47.3845 51.1671C47.0947 50.499 46.796 49.9936 46.6687 49.3344C46.6775 49.1718 46.3525 49.1542 46.3437 49.3168C46.6903 51.9449 47.6783 54.7707 49.1979 56.8099C49.5053 57.1527 49.8568 56.6825 49.7119 56.3485C49.4397 55.3553 48.9961 54.5159 48.7151 53.6853C49.9273 55.3817 51.1394 57.0782 52.6854 58.6296C53.3003 59.3152 54.0865 59.847 55.0353 60.3876C56.1113 61.5875 57.1874 62.7873 58.4259 63.9959C60.4331 66.0616 62.9719 67.3406 65.5195 68.4571C67.9046 69.5647 70.461 70.5186 73.0526 70.822C68.7829 71.4061 64.0519 71.476 60.4459 68.8346C60.2922 68.6632 59.9495 68.9708 60.0944 69.3048C60.7005 70.153 61.3242 70.676 61.9479 71.199C64.7237 74.1217 68.3473 76.4379 71.8613 77.7698C72.8188 78.1478 73.9389 78.5347 75.059 78.9215C69.0631 78.2706 62.5444 78.2437 58.1129 72.7852C57.9592 72.6137 57.779 72.9301 57.7702 73.0927C58.2226 73.7696 58.6661 74.609 59.1185 75.2858C59.1185 75.2858 59.1185 75.2858 59.1097 75.4484C61.3274 79.6454 63.9583 82.2341 67.2921 83.8824C66.4795 83.8383 65.8293 83.8031 65.0167 83.7591C62.7413 83.6359 60.4924 83.0248 58.4323 81.9348C56.6886 81.025 55.6654 78.8495 54.6158 77.1619C54.6246 76.9993 54.4532 77.1531 54.4444 77.3157C54.418 77.8035 54.5629 78.1375 54.5453 78.4627C54.5453 78.4627 54.5453 78.4627 54.5365 78.6253C55.2258 80.9457 55.5637 83.7364 56.398 86.3908C55.9368 85.8766 55.4756 85.3624 55.1858 84.6944C52.9064 81.6355 51.8087 77.8253 50.386 73.9974C50.386 73.9974 50.2323 73.826 50.2235 73.9886L50.2147 74.1512L50.0522 74.1424C50.0434 74.305 50.0434 74.305 50.0346 74.4676C50.0081 74.9554 49.9905 75.2806 49.9641 75.7684C49.7047 77.5482 48.9665 79.139 48.2283 80.7298C47.4814 82.4832 46.7256 84.3992 45.8161 86.1438C44.8977 88.051 43.6632 89.778 42.2661 91.4962C42.688 89.7252 43.1099 87.9542 43.2244 85.8403C43.2821 81.7665 43.5639 76.5633 41.8073 72.8805C41.6536 72.7091 41.4823 72.8629 41.636 73.0343C41.6272 73.1969 41.6096 73.5221 41.7633 73.6935C41.6008 73.6847 41.6008 73.6847 41.5919 73.8473C41.7849 76.3039 40.1636 79.1515 39.074 81.2125C37.9667 83.5986 36.0644 85.6156 34.1974 86.9822C32.159 88.5026 29.8131 89.6801 27.4849 90.5325C30.7314 87.7729 33.0733 83.6598 34.1501 78.8258C34.1589 78.6632 34.0052 78.4918 33.8339 78.6455C33.4736 79.2783 33.1045 80.0737 32.7442 80.7065C32.5905 80.5351 32.4368 80.3637 32.1029 80.5087C27.6834 83.8571 23.4441 86.889 18.3001 88.5673C15.4843 89.3933 12.55 89.3974 9.65092 88.7512C9.00961 88.5534 8.52203 88.5269 7.88072 88.3291C7.54686 88.4741 7.22181 88.4565 6.88795 88.6015L6.72542 88.5927C6.40037 88.5751 6.08412 88.3949 5.75906 88.3773C5.44281 88.1971 5.24506 88.8387 5.56131 89.0189C5.87756 89.1991 6.1938 89.3793 6.50124 89.7221C13.116 93.9942 21.8445 92.347 28.3111 87.3157L28.1398 87.4695C27.4457 88.2473 26.7603 88.8625 25.9125 89.4689C25.7499 89.4601 25.7411 89.6227 25.7411 89.6227C25.7411 89.6227 25.7411 89.6227 25.5698 89.7764C25.0646 90.0752 24.7219 90.3828 24.2167 90.6816C23.3865 90.9628 22.7188 91.2528 21.8797 91.6966C21.7172 91.6878 21.7084 91.8504 21.537 92.0042C21.3481 92.4832 21.4842 92.9798 21.9806 92.8436C25.7627 92.2331 29.5361 91.7851 33.0549 90.0188C33.7226 89.7288 34.2278 89.43 34.9043 88.9774C36.4287 87.9184 37.7994 86.6881 39.1789 85.2951C38.2782 86.8771 37.3774 88.4591 36.3142 90.0322C36.3054 90.1948 36.2966 90.3574 36.4679 90.2036C38.3966 87.6989 40.6592 85.0491 41.9642 82.0213C41.9026 83.1595 41.8409 84.2977 41.9418 85.4447C41.889 86.4203 41.8273 87.5585 41.7657 88.6967C41.6864 90.1601 41.4446 91.6147 41.0491 92.8979C40.6712 93.8559 40.3021 94.6513 39.7617 95.6005C39.7529 95.7631 39.7441 95.9257 39.9154 95.7719C41.2597 95.0294 42.1252 94.0978 43.0171 92.6784C44.2516 90.9514 45.6311 89.5584 46.8569 87.994C47.3797 87.37 47.74 86.7372 48.2628 86.1132C48.6143 85.643 48.8032 85.164 49.1635 84.5312C48.9305 85.8232 48.535 87.1064 47.9769 88.3808C47.9681 88.5434 48.1219 88.7148 48.1307 88.5522C49.2115 86.6539 49.8048 84.729 50.2531 82.4703C52.6422 86.5135 55.5893 89.2824 58.8351 92.5567C58.9888 92.728 59.1689 92.4117 59.0064 92.4029C58.8615 92.0688 58.554 91.726 58.4003 91.5546C58.554 91.726 58.8615 92.0689 59.0152 92.2403C59.3226 92.5831 59.4764 92.7545 59.7838 93.0973L59.9463 93.1061C59.9463 93.1061 60.1177 92.9523 59.9639 92.7809C58.9495 90.4428 58.0977 88.1136 57.4083 85.7932C57.4172 85.6306 57.2722 85.2966 57.1185 85.1252C64.1376 87.9515 73.2872 90.5671 79.1213 85.1754C79.464 84.8678 79.3367 84.2086 78.8403 84.3448C78.3439 84.481 77.685 84.6083 77.0349 84.5731C76.8812 84.4017 76.8812 84.4017 76.7187 84.3929C75.906 84.3489 74.9309 84.2961 74.1182 84.2521C73.3144 84.0455 72.6731 83.8477 71.8781 83.4784C75.6162 83.6809 79.2359 83.0616 81.986 80.4382C82.1573 80.2844 82.3287 80.1306 82.5 79.9768C82.8339 79.8318 83.014 79.5154 83.3479 79.3704C82.8779 79.0188 82.8867 78.8562 82.8955 78.6936C82.8955 78.6936 82.733 78.6848 82.8955 78.6936Z" fill="url(#paint6_linear_1_3132)"/>
<path opacity="0.5" d="M28.8042 45.1054C28.1277 45.5579 27.6049 46.1819 26.9283 46.6345C24.5649 48.1373 22.2455 48.8271 19.601 49.4992C15.8012 50.4349 12.2344 50.0787 8.46986 50.364C8.30733 50.3552 8.29852 50.5178 8.46105 50.5266C9.40099 51.2298 10.5211 51.6167 11.6499 51.8409C17.4873 55.4186 26.5672 53.3011 28.8042 45.1054C28.9667 45.1142 28.8042 45.1054 28.8042 45.1054Z" fill="url(#paint7_linear_1_3132)"/>
<defs>
<linearGradient id="paint0_linear_1_3132" x1="38.1024" y1="91.3586" x2="46.5051" y2="91.1954" gradientUnits="userSpaceOnUse">
<stop offset="0.1327" stop-color="#6E5D00"/>
<stop offset="0.4712" stop-color="#4B3200"/>
<stop offset="0.6194" stop-color="#383007"/>
<stop offset="0.9337" stop-color="#003138"/>
</linearGradient>
<linearGradient id="paint1_linear_1_3132" x1="42.7171" y1="95.5295" x2="40.9018" y2="2.39493" gradientUnits="userSpaceOnUse">
<stop offset="0.0138911" stop-color="#057046"/>
<stop offset="1" stop-color="#169300"/>
</linearGradient>
<linearGradient id="paint2_linear_1_3132" x1="23.4115" y1="48.4441" x2="40.9126" y2="40.1422" gradientUnits="userSpaceOnUse">
<stop stop-color="#FFE23A"/>
<stop offset="0.9861" stop-color="#004227"/>
</linearGradient>
<linearGradient id="paint3_linear_1_3132" x1="25.1651" y1="28.5216" x2="42.6404" y2="15.7291" gradientUnits="userSpaceOnUse">
<stop stop-color="#FFE23A"/>
<stop offset="0.9861" stop-color="#004227"/>
</linearGradient>
<linearGradient id="paint4_linear_1_3132" x1="15.8662" y1="85.5568" x2="43.6739" y2="64.4267" gradientUnits="userSpaceOnUse">
<stop stop-color="#FFE23A"/>
<stop offset="0.9861" stop-color="#004227"/>
</linearGradient>
<linearGradient id="paint5_linear_1_3132" x1="8.57003" y1="55.4211" x2="31.0701" y2="54.984" gradientUnits="userSpaceOnUse">
<stop stop-color="#FFE23A"/>
<stop offset="0.9861" stop-color="#004227"/>
</linearGradient>
<linearGradient id="paint6_linear_1_3132" x1="23.3802" y1="53.0062" x2="90.9233" y2="83.7639" gradientUnits="userSpaceOnUse">
<stop stop-color="#004B14"/>
<stop offset="0.7095" stop-color="#0C498D"/>
<stop offset="1" stop-color="#005667"/>
</linearGradient>
<linearGradient id="paint7_linear_1_3132" x1="20.8254" y1="44.6732" x2="13.8302" y2="56.2923" gradientUnits="userSpaceOnUse">
<stop stop-color="#004B14"/>
<stop offset="0.7095" stop-color="#0C498D"/>
<stop offset="1" stop-color="#005667"/>
</linearGradient>
</defs>
</svg>
