<svg width="14" height="14" viewBox="0 0 14 14" fill="none" xmlns="http://www.w3.org/2000/svg">
<path d="M12.8204 7.13366C12.8228 8.23274 12.4991 9.30783 11.8903 10.2229C11.2814 11.1379 10.4148 11.8517 9.40008 12.274C8.38535 12.6963 7.26814 12.8081 6.18988 12.5952C5.11162 12.3822 4.12079 11.8542 3.34276 11.0779C2.56473 10.3016 2.0345 9.31191 1.81918 8.23412C1.60387 7.15633 1.71313 6.03889 2.13317 5.02323C2.5532 4.00758 3.26511 3.13938 4.1788 2.5285C5.09248 1.91763 6.16685 1.59156 7.26594 1.59155C8.73693 1.59155 10.1478 2.17506 11.1891 3.21405C12.2305 4.25304 12.8171 5.66267 12.8204 7.13366Z" fill="white" stroke="#D45B07" stroke-width="1.86272" stroke-miterlimit="10"/>
</svg>
