<svg width="177" height="140" viewBox="0 0 177 140" fill="none" xmlns="http://www.w3.org/2000/svg">
<g clip-path="url(#clip0_4310_74)">
<path d="M88.4465 8.03811C76.4345 8.04316 64.4579 6.73401 52.7307 4.134C49.4191 3.41077 45.9575 3.91661 42.9913 5.55719C40.0251 7.19777 37.7568 9.86112 36.6093 13.0506L1.00437 111.281C0.344707 113.096 0.0672712 115.026 0.189459 116.953C0.311648 118.879 0.830804 120.76 1.71439 122.476C2.59797 124.192 3.82688 125.708 5.32392 126.926C6.82096 128.145 8.55382 129.041 10.4137 129.558C61.5081 143.45 115.385 143.45 166.479 129.558C168.339 129.041 170.072 128.145 171.569 126.926C173.066 125.708 174.295 124.192 175.179 122.476C176.062 120.76 176.581 118.879 176.703 116.953C176.826 115.026 176.548 113.096 175.889 111.281L140.271 13.0506C139.124 9.86366 136.858 7.20221 133.894 5.56187C130.931 3.92152 127.472 3.41407 124.162 4.134C112.435 6.73401 100.458 8.04316 88.4465 8.03811V8.03811Z" fill="#D8DBE8"/>
<path d="M88.2851 4.22573C76.2731 4.23078 64.2966 2.92163 52.5693 0.321626C49.2577 -0.401603 45.7961 0.104232 42.8299 1.74481C39.8637 3.38539 37.5954 6.04874 36.4479 9.23826L0.842996 107.469C0.18333 109.283 -0.0941058 111.214 0.0280824 113.141C0.150271 115.067 0.669427 116.948 1.55301 118.664C2.43659 120.38 3.6655 121.895 5.16254 123.114C6.65958 124.333 8.39244 125.229 10.2523 125.746C61.3467 139.638 115.223 139.638 166.318 125.746C168.178 125.229 169.911 124.333 171.408 123.114C172.905 121.895 174.134 120.38 175.017 118.664C175.901 116.948 176.42 115.067 176.542 113.141C176.664 111.214 176.387 109.283 175.727 107.469L140.11 9.23826C138.963 6.05128 136.696 3.38984 133.733 1.74949C130.769 0.109146 127.311 -0.398307 124.001 0.321626C112.274 2.92163 100.297 4.23078 88.2851 4.22573V4.22573Z" fill="white"/>
<path d="M88.2851 4.22573C76.2731 4.23078 64.2966 2.92163 52.5693 0.321626C49.2577 -0.401603 45.7961 0.104232 42.8299 1.74481C39.8637 3.38539 37.5954 6.04874 36.4479 9.23826L0.842996 107.469C0.18333 109.283 -0.0941058 111.214 0.0280824 113.141C0.150271 115.067 0.669427 116.948 1.55301 118.664C2.43659 120.38 3.6655 121.895 5.16254 123.114C6.65958 124.333 8.39244 125.229 10.2523 125.746C61.3467 139.638 115.223 139.638 166.318 125.746C168.178 125.229 169.911 124.333 171.408 123.114C172.905 121.895 174.134 120.38 175.017 118.664C175.901 116.948 176.42 115.067 176.542 113.141C176.664 111.214 176.387 109.283 175.727 107.469L140.11 9.23826C138.963 6.05128 136.696 3.38984 133.733 1.74949C130.769 0.109146 127.311 -0.398307 124.001 0.321626C112.274 2.92163 100.297 4.23078 88.2851 4.22573V4.22573Z" fill="#D45B07"/>
</g>
<defs>
<clipPath id="clip0_4310_74">
<rect width="177" height="140" fill="white"/>
</clipPath>
</defs>
</svg>
