<svg width="134" height="158" viewBox="0 0 134 158" fill="none" xmlns="http://www.w3.org/2000/svg">
<path d="M114.59 118.609C115.092 116.646 115.709 113.681 115.47 113.019C115.276 112.48 114.529 112.47 113.644 112.511C113.36 112.525 113.116 112.537 112.92 112.511C112.341 112.436 112.172 111.52 111.958 110.36C111.824 109.637 111.657 108.737 111.412 108.47C111.31 108.358 110.843 108.256 108.737 109.755C108.459 109.953 108.391 110 108.316 110.025C108.031 110.121 107.828 109.934 106.66 108.476C106.487 108.26 106.33 108.065 106.218 107.932C105.775 108.016 104.179 109.259 102.895 110.428L102.948 110.585C103.609 111.122 109.005 115.422 114.59 118.609Z" fill="#D9DE1F"/>
<path d="M94.343 74.7987C94.6421 75.9204 96.2745 82.045 97.1206 85.6286C98.6985 84.8317 100.17 84.0197 101.404 83.3392L101.831 83.1031C102.17 81.6994 102.487 80.1423 102.462 79.8176C102.275 79.5126 100.702 78.6136 99.3288 77.9432C99.2564 77.9081 99.2009 77.8457 99.1745 77.7697C99.148 77.6937 99.1528 77.6103 99.1878 77.5378C99.5665 76.7505 100.14 75.3136 100.064 74.8099C99.9831 74.476 98.3748 73.5696 96.509 72.7993C95.8208 73.5015 95.0979 74.1688 94.343 74.7987Z" fill="#D9DE1F"/>
<path d="M127.342 123.808C127.248 122.649 126.956 119.551 126.414 118.536C126.318 118.355 126.217 118.312 126.147 118.296C125.752 118.201 125.037 118.704 124.513 119.07C124.021 119.413 123.633 119.684 123.308 119.697C122.731 119.723 122.431 119.217 122.162 118.768C121.975 118.456 121.782 118.135 121.519 117.976C121.205 117.902 119.795 119.09 118.439 120.58C118.744 120.715 119.047 120.847 119.347 120.967C122.268 122.146 125.057 123.096 127.342 123.808Z" fill="#D9DE1F"/>
<path d="M29.611 83.236C27.9808 83.5031 25.5776 83.4929 22.2354 82.556C14.9709 80.5209 8.122 79.0247 4.11906 83.0282C0.0146213 87.1326 0.816387 93.6445 3.91394 97.5038C4.27877 97.0551 5.01537 95.9547 5.37165 94.0644C5.38013 94.0196 5.39853 93.9773 5.42552 93.9407C5.4525 93.904 5.48736 93.8738 5.52754 93.8524C5.56773 93.831 5.6122 93.8188 5.6577 93.8169C5.70319 93.8149 5.74855 93.8232 5.79042 93.8411C7.20807 94.4484 9.44137 95.1278 9.96537 94.7395C10.4995 94.3437 10.7217 91.822 10.7062 90.1586C10.7056 90.1002 10.7218 90.0427 10.7529 89.9932C10.784 89.9437 10.8288 89.9043 10.8818 89.8796C10.9348 89.8549 10.9938 89.846 11.0517 89.854C11.1096 89.862 11.164 89.8865 11.2083 89.9247C11.2244 89.938 12.8001 91.2771 13.972 91.0352C14.7439 90.8749 15.3977 88.2234 15.6156 86.388C15.6251 86.3079 15.6661 86.2349 15.7294 86.1849C15.7928 86.135 15.8734 86.1123 15.9535 86.1218C16.0336 86.1312 16.1067 86.1722 16.1566 86.2355C16.2065 86.2989 16.2293 86.3795 16.2198 86.4596C16.1236 87.2699 15.5697 91.3257 14.0949 91.6291C13.0891 91.8359 11.9487 91.2018 11.3109 90.7617C11.2869 92.049 11.1352 94.63 10.3275 95.2272C9.45792 95.8682 6.93084 94.9601 5.89405 94.5408C5.87749 94.6145 5.85933 94.6824 5.84064 94.7545C6.61943 95.7346 12.7723 103.012 23.8619 103.499C25.2443 94.0665 28.6901 85.4292 29.611 83.236Z" fill="#8BC93A"/>
<path d="M127.56 124.513C125.193 123.784 122.233 122.787 119.118 121.53C117.667 120.946 116.136 120.176 114.614 119.32C114.608 119.316 114.601 119.314 114.596 119.309C109.735 116.575 104.977 112.957 103.211 111.574C103.307 111.97 103.391 112.365 103.468 112.765C103.6 113.468 103.701 114.176 103.769 114.888C103.834 115.598 103.858 116.311 103.84 117.024C103.815 117.735 103.73 118.443 103.586 119.14C103.68 118.439 103.714 117.732 103.688 117.025C103.655 116.321 103.582 115.62 103.468 114.925C103.35 114.231 103.202 113.544 103.023 112.864C102.843 112.188 102.636 111.508 102.396 110.864L102.393 110.857L100.674 105.699C99.5725 106.145 95.6342 107.55 89.7339 107.55C85.8074 107.55 81.0133 106.928 75.6088 104.986C75.5696 104.973 75.5333 104.953 75.5021 104.927C75.4709 104.9 75.4454 104.867 75.4272 104.831C75.4089 104.794 75.3983 104.754 75.3959 104.713C75.3935 104.672 75.3994 104.631 75.4133 104.592C75.4272 104.554 75.4487 104.518 75.4766 104.488C75.5045 104.458 75.5382 104.434 75.5757 104.417C75.6131 104.4 75.6536 104.391 75.6946 104.391C75.7356 104.39 75.7764 104.398 75.8144 104.413C90.4209 109.656 100.452 105.14 100.717 105.018C104.772 102.655 110.964 98.3573 110.352 96.8649C109.667 95.1946 108.077 94.5787 107.397 94.3159C107.077 94.1909 106.929 94.1343 106.871 93.9596C106.804 93.7598 106.863 93.6925 107.426 93.0344C108.374 91.9271 111.259 88.5582 110.077 87.4942C108.468 86.0456 106.334 86.725 106.312 86.732C106.264 86.7479 106.212 86.7514 106.162 86.742C106.111 86.7327 106.064 86.7108 106.025 86.6785C105.985 86.6461 105.954 86.6043 105.935 86.5569C105.916 86.5095 105.909 86.458 105.915 86.4072C106.075 85.0611 106.141 82.7109 105.628 82.134C105.606 82.1043 105.578 82.08 105.545 82.0632C105.513 82.0465 105.476 82.0376 105.44 82.0373C105.025 82.0373 103.41 82.9283 101.701 83.8716C98.3952 85.6952 93.4004 88.4509 89.148 89.3915C82.5042 90.8615 76.8213 89.5806 76.7647 89.5678C76.686 89.5496 76.6177 89.5009 76.575 89.4323C76.5322 89.3638 76.5184 89.2811 76.5366 89.2024C76.5548 89.1237 76.6035 89.0555 76.672 89.0127C76.7406 88.9699 76.8233 88.9561 76.902 88.9743C76.9554 88.9877 82.5106 90.2366 89.0166 88.7975C91.4304 88.2634 94.1044 87.123 96.5647 85.9067C95.7822 82.5725 94.2641 76.8491 93.8298 75.2236C90.5501 77.8554 85.6883 80.7425 78.5776 83.0848C72.1501 85.2022 65.0411 86.0862 58.0057 86.0867C57.705 86.0867 57.4048 86.0824 57.1046 86.0792C56.9577 86.0905 56.8562 86.0974 56.8103 86.1001H56.7905C56.7497 86.0996 56.7094 86.0908 56.672 86.0744C47.8638 85.9361 39.2473 84.4415 32.2975 82.2793C32.0512 82.4502 31.4241 82.8236 30.3377 83.0901C29.7976 84.3416 25.8732 93.6706 24.4278 103.861C24.4278 103.869 24.4219 103.876 24.4203 103.884C24.4187 103.891 24.4203 103.895 24.4203 103.901C24.3984 103.978 23.6453 106.706 22.9055 110.811C22.8654 111.571 22.7345 116.259 25.1003 122.056C27.4746 127.878 32.9262 136.045 45.4109 141.897C45.5712 141.964 55.0706 145.908 65.6666 144.747L66.9448 143.769C66.6815 142.803 65.5998 138.519 65.6628 133.557C65.7606 126.076 68.4046 120.448 73.3108 117.284C73.3787 117.243 73.4597 117.23 73.5369 117.248C73.614 117.266 73.6811 117.313 73.724 117.38C73.7669 117.446 73.7821 117.527 73.7665 117.605C73.7509 117.682 73.7057 117.751 73.6404 117.796C62.9386 124.698 66.8989 141.239 67.5105 143.533C68.4581 143.359 71.6982 142.875 76.449 143.326C76.5293 143.333 76.6033 143.373 76.6546 143.435C76.706 143.497 76.7306 143.577 76.723 143.657C76.7197 143.697 76.7084 143.736 76.6898 143.772C76.6712 143.807 76.6458 143.839 76.6149 143.864C76.584 143.89 76.5483 143.909 76.5099 143.92C76.4715 143.932 76.4312 143.936 76.3913 143.931C71.311 143.451 67.9127 144.071 67.4213 144.17L66.0063 145.252C64.9626 146.812 62.4077 151.034 62.7079 152.463C62.7469 152.65 62.8254 152.718 62.881 152.754C64.1517 153.559 66.0287 152.946 66.4956 152.773C66.7547 152.195 67.9912 149.544 69.6551 147.666C69.7086 147.605 69.784 147.568 69.8647 147.563C69.9453 147.558 70.0246 147.586 70.0851 147.639C70.1456 147.693 70.1823 147.768 70.1872 147.849C70.1921 147.93 70.1648 148.009 70.1113 148.069C68.5195 149.866 67.2893 152.495 67.0463 153.032C67.19 153.499 67.8924 155.523 69.2417 155.378C70.8019 155.208 72.8659 153.972 73.2478 153.738C73.4802 153.301 74.7312 151.017 76.2118 149.592C76.2705 149.539 76.3475 149.511 76.4264 149.514C76.5054 149.517 76.5801 149.55 76.6349 149.607C76.6896 149.664 76.7201 149.74 76.7199 149.819C76.7197 149.898 76.6889 149.974 76.6338 150.03C75.2188 151.393 73.9737 153.67 73.7777 154.036C73.767 154.267 73.7633 155.176 74.3118 155.746C74.6665 156.113 75.1985 156.28 75.8945 156.239C77.2395 156.161 78.5835 155.593 80.0075 154.993C81.4156 154.399 82.8711 153.785 84.5788 153.494C87.4632 153.002 90.3562 152.018 91.9656 148.18C93.4693 144.595 94.0664 142.353 94.0723 142.331C94.0778 142.312 94.0856 142.294 94.0953 142.278C94.0972 142.269 94.0998 142.262 94.1033 142.254C94.1679 142.141 100.492 130.917 90.5052 121.387C90.4469 121.331 90.413 121.255 90.4111 121.174C90.4092 121.093 90.4394 121.015 90.4951 120.957C90.5508 120.898 90.6274 120.865 90.708 120.863C90.7886 120.861 90.8667 120.891 90.9251 120.947C100.059 129.663 95.9995 139.756 94.881 142.069C97.3061 141.897 107.745 140.953 118.364 136.92C128.853 132.936 131.889 127.265 132.488 125.897C131.772 125.718 129.982 125.256 127.579 124.514L127.56 124.513ZM100.391 122.406C99.9913 124.44 99.017 126.016 98.9758 126.082C98.9483 126.126 98.9102 126.162 98.865 126.187C98.8198 126.212 98.769 126.225 98.7173 126.225C98.6606 126.225 98.6051 126.209 98.5571 126.179C98.4886 126.136 98.4399 126.068 98.4217 125.989C98.4034 125.911 98.4172 125.828 98.4599 125.759C98.4695 125.744 99.4176 124.21 99.7952 122.287C100.133 120.563 97.1523 119.436 97.1245 119.424C97.0746 119.406 97.0304 119.374 96.9964 119.333C96.9624 119.292 96.9398 119.243 96.9308 119.191C96.9217 119.138 96.9266 119.084 96.945 119.034C96.9633 118.984 96.9945 118.94 97.0353 118.906C97.054 118.89 98.9203 117.303 98.8103 114.821C98.7034 112.454 94.5028 112.13 94.4606 112.127C94.4208 112.124 94.3819 112.114 94.3461 112.096C94.3104 112.078 94.2785 112.054 94.2523 112.023C94.2261 111.993 94.2061 111.958 94.1934 111.92C94.1807 111.883 94.1756 111.843 94.1784 111.803C94.1811 111.763 94.1917 111.724 94.2095 111.688C94.2273 111.652 94.252 111.621 94.2821 111.594C94.3123 111.568 94.3473 111.548 94.3851 111.535C94.423 111.523 94.463 111.518 94.5028 111.52C94.6983 111.534 99.2905 111.886 99.4171 114.794C99.51 116.907 98.3675 118.405 97.7703 119.039C98.6954 119.472 100.737 120.635 100.391 122.406ZM113.783 129.754C113.776 129.83 113.742 129.901 113.686 129.953C113.63 130.004 113.556 130.033 113.48 130.033H113.455C113.374 130.026 113.3 129.988 113.248 129.927C113.195 129.865 113.17 129.786 113.176 129.705C113.176 129.687 113.315 127.864 112.492 125.882C112.437 125.745 112.353 125.623 112.246 125.522C112.139 125.421 112.012 125.345 111.872 125.298C110.697 124.862 108.397 125.797 107.61 126.194C107.538 126.226 107.457 126.23 107.383 126.204C107.309 126.178 107.247 126.124 107.212 126.054C107.177 125.983 107.17 125.902 107.193 125.827C107.216 125.752 107.267 125.689 107.336 125.65C107.461 125.587 110.422 124.11 112.084 124.727C112.302 124.802 112.501 124.924 112.669 125.083C112.836 125.241 112.967 125.434 113.054 125.648C113.935 127.772 113.79 129.674 113.783 129.754Z" fill="#8BC93A"/>
<path d="M24.5174 122.254C23.1563 118.907 22.6072 115.963 22.3952 113.876C21.2649 121.494 20.6293 131.984 23.7076 139.855C24.1087 140.021 25.2064 140.627 26.5519 142.632C26.5742 142.666 26.5897 142.703 26.5976 142.742C26.6054 142.781 26.6055 142.821 26.5978 142.861C26.59 142.9 26.5746 142.937 26.5525 142.97C26.5303 143.004 26.5018 143.032 26.4686 143.054C26.4191 143.089 26.3602 143.107 26.2998 143.108C26.2498 143.108 26.2005 143.096 26.1564 143.072C26.1122 143.049 26.0745 143.015 26.0466 142.973C24.6926 140.954 23.6494 140.482 23.4384 140.404C22.9234 140.461 19.1523 140.964 16.5643 143.606C14.6825 145.526 14.2648 147.029 14.5009 147.795C14.573 148.031 14.7098 148.185 14.8748 148.218C15.5692 148.356 18.2021 148.261 19.1577 148.212C19.2098 148.21 19.2616 148.222 19.3072 148.247C19.7751 147.198 20.8798 145.157 22.8113 143.959C22.8452 143.938 22.883 143.924 22.9224 143.917C22.9618 143.911 23.0021 143.912 23.041 143.921C23.0799 143.93 23.1166 143.947 23.149 143.97C23.1815 143.994 23.209 144.023 23.2301 144.057C23.2511 144.091 23.2652 144.129 23.2717 144.168C23.2781 144.208 23.2768 144.248 23.2676 144.287C23.2585 144.326 23.2418 144.362 23.2185 144.395C23.1952 144.427 23.1657 144.455 23.1318 144.476C20.9492 145.83 19.8649 148.449 19.656 148.999C20.0914 149.887 21.5368 151.549 26.2186 151.216C27.647 151.114 29.0972 151.048 30.4999 150.985C35.4883 150.76 40.1996 150.546 42.0878 148.747C44.1822 146.751 44.8189 143.246 44.9503 142.354C32.4143 136.416 26.9211 128.154 24.5174 122.254Z" fill="#8BC93A"/>
<path d="M25.4598 98.266C25.4598 98.266 31.0524 82.3092 45.2838 84.8775C59.5153 87.4457 62.5193 101.242 62.8334 113.876C63.1475 126.509 63.7458 129.787 66.0773 131.289C66.0773 131.289 65.8487 135.164 66.9929 142.733L67.1382 143.326C67.1382 143.326 66.8978 144.183 66.8711 144.205C66.8444 144.226 65.5437 145.166 65.5437 145.166C65.5437 145.166 53.7811 146.651 42.9869 141.03C32.1928 135.41 25.4726 126.92 23.5438 118.371C23.5438 118.371 22.5481 112.982 22.8889 110.264C23.2297 107.546 25.4598 98.266 25.4598 98.266Z" fill="#D9DE1F"/>
<g opacity="0.25">
<path d="M49.0314 89.0887C64.7964 90.3899 78.2234 83.1954 78.2234 83.1954L78.1865 83.2044C71.8611 85.231 64.8968 86.0835 58.0019 86.0841C57.7012 86.0841 57.401 86.0798 57.1008 86.0766C56.9539 86.0878 56.8524 86.0947 56.8065 86.0974H56.7867C56.7459 86.0969 56.7056 86.0882 56.6681 86.0718C47.86 85.9334 39.2435 84.4389 32.2937 82.2766C32.0474 82.4475 31.4203 82.8209 30.3338 83.0875C30.3338 83.0885 33.2669 87.7869 49.0314 89.0887Z" fill="#021168"/>
</g>
<g opacity="0.25">
<path d="M8.7819 92.7748C7.95717 92.6573 5.95516 91.2733 4.8954 90.8903C3.83564 90.5074 3.59954 92.0975 3.04028 91.3909C2.48102 90.6842 2.58625 85.1231 2.58786 85.0344C0.561813 88.5972 1.10825 93.0969 3.10652 96.3531C3.4441 96.8136 3.76887 97.1074 4.04129 97.1763C4.07644 97.1841 4.11216 97.1891 4.14812 97.1912C4.53698 96.6266 5.08289 95.6101 5.374 94.0627C5.38248 94.0179 5.40089 93.9757 5.42787 93.939C5.45485 93.9023 5.48971 93.8721 5.5299 93.8507C5.57008 93.8293 5.61456 93.8172 5.66005 93.8152C5.70555 93.8132 5.7509 93.8215 5.79278 93.8394C7.21042 94.4467 9.44372 95.1262 9.96772 94.7379C10.3213 94.4772 10.5366 93.2924 10.6381 92.0388C10.6295 92.0436 9.60396 92.8924 8.7819 92.7748Z" fill="#021168"/>
</g>
<g opacity="0.25">
<path d="M13.9494 99.4739C18.0341 101.471 22.959 102.287 24.0268 102.446C24.2137 101.302 24.4284 100.172 24.6635 99.0674C23.6374 98.8645 20.167 98.036 17.8797 95.7493C15.1705 93.0401 15.5433 90.1941 15.5433 90.1941C15.5433 90.1941 15.3964 90.3244 15.2079 90.4857C14.9146 91.0867 14.5477 91.5369 14.0936 91.6304C13.0878 91.8371 11.9474 91.2031 11.3096 90.763C11.2856 92.0503 11.1339 94.6313 10.3262 95.2285C9.861 95.5719 8.92089 95.4694 7.98879 95.237C8.58117 95.9261 10.3385 97.7091 13.9494 99.4739Z" fill="#021168"/>
</g>
<g opacity="0.25">
<path d="M5.89443 94.5415C5.87787 94.6152 5.85971 94.6831 5.84101 94.7552L5.8736 94.7952C5.97923 94.7304 6.09703 94.6878 6.21973 94.6702C6.10221 94.6243 5.99004 94.5805 5.89443 94.5415Z" fill="#021168"/>
</g>
<g opacity="0.25">
<path d="M38.8063 129.729C26.7927 121.249 24.123 106.408 24.123 106.408C23.9204 106.7 23.7428 107.008 23.5921 107.33C23.3784 108.321 23.1386 109.493 22.9014 110.809C22.8613 111.569 22.7305 116.257 25.0962 122.055C27.4705 127.877 32.9221 136.044 45.4069 141.896C45.5623 141.961 54.7471 145.77 65.1235 144.797L66.3409 144.227L66.4295 144.159L66.8617 143.469C66.5102 142.105 65.6011 138.118 65.6604 133.556C65.6657 133.15 65.6817 132.752 65.702 132.357C63.4976 133.138 49.8184 137.502 38.8063 129.729Z" fill="#021168"/>
</g>
<g opacity="0.25">
<path d="M44.9531 142.352C40.2915 140.145 36.6048 137.617 33.6878 135.008L33.6771 134.999C33.6771 134.999 39.493 146.424 32.9859 147.631C26.4789 148.839 20.7367 147.248 20.7367 147.248V146.918C20.3061 147.572 19.9448 148.269 19.6588 148.998C20.0941 149.886 21.5396 151.548 26.2214 151.215C27.6497 151.113 29.1 151.047 30.5027 150.984C35.4911 150.758 40.2023 150.545 42.0906 148.746C44.185 146.75 44.8217 143.243 44.9531 142.352Z" fill="#021168"/>
</g>
<g opacity="0.25">
<path d="M14.5573 146.634C14.4185 147.115 14.4142 147.506 14.5039 147.794C14.576 148.029 14.7128 148.184 14.8778 148.216C15.5722 148.355 18.2051 148.26 19.1607 148.211C19.2128 148.209 19.2646 148.221 19.3102 148.246C19.6278 147.536 20.015 146.859 20.4661 146.225C19.7731 146.445 19.0599 146.596 18.337 146.674C17.1907 146.803 15.2918 146.687 14.5573 146.634Z" fill="#021168"/>
</g>
<g opacity="0.25">
<path d="M65.7775 151.224C65.0831 151.453 63.2905 151.396 62.8156 151.376C62.6954 151.814 62.6474 152.19 62.7051 152.463C62.7441 152.649 62.8226 152.718 62.8781 152.754C64.1489 153.559 66.0259 152.946 66.4927 152.772C67.0025 151.653 67.5915 150.572 68.2555 149.537C68.2555 149.537 66.5825 150.959 65.7775 151.224Z" fill="#021168"/>
</g>
<g opacity="0.25">
<path d="M67.7708 151.569C67.3969 152.263 67.141 152.817 67.0438 153.032C67.1875 153.499 67.8899 155.523 69.2392 155.377C70.7995 155.208 72.8634 153.971 73.2453 153.737C73.4659 153.322 74.6058 151.243 75.9882 149.814C74.9514 150.442 71.8496 152.285 70.8256 152.504C69.7728 152.729 68.2174 151.842 67.7708 151.569Z" fill="#021168"/>
</g>
<g opacity="0.25">
<path d="M129.36 128.198C129.36 128.198 118.463 131.967 108.866 131.79C99.2687 131.613 96.3517 129.346 96.028 128.051C95.7043 126.756 98.3248 123.663 96.4649 121.337C94.605 119.011 84.9838 118.609 84.9838 118.609C94.4917 128.768 90.4322 141.782 88.9793 145.511C87.5264 149.241 86.6626 150.38 83.2473 151.28C79.8319 152.181 78.8501 153.047 77.6819 153.557C76.7402 153.969 75.2521 152.889 74.7099 152.454C74.2147 153.218 73.867 153.855 73.7709 154.035C73.7602 154.266 73.7564 155.175 74.305 155.745C74.6597 156.112 75.1917 156.279 75.8877 156.238C77.2327 156.16 78.5766 155.592 80.0007 154.992C81.4087 154.398 82.8643 153.784 84.572 153.493C87.4564 153.001 90.3494 152.017 91.9588 148.179C93.4624 144.594 94.0596 142.352 94.0655 142.33C94.071 142.311 94.0787 142.293 94.0884 142.276C94.0903 142.268 94.093 142.26 94.0965 142.253C94.1611 142.14 100.485 130.916 90.4984 121.386C90.4695 121.358 90.4463 121.325 90.4302 121.289C90.414 121.252 90.4052 121.213 90.4043 121.173C90.4033 121.133 90.4103 121.093 90.4247 121.056C90.4391 121.019 90.4607 120.985 90.4883 120.956C90.5158 120.927 90.5488 120.904 90.5853 120.887C90.6219 120.871 90.6612 120.863 90.7012 120.862C90.7411 120.861 90.7808 120.868 90.8181 120.882C90.8553 120.896 90.8894 120.918 90.9183 120.946C100.052 129.662 95.9927 139.755 94.8742 142.068C97.2992 141.896 107.738 140.952 118.357 136.919C119.195 136.599 119.98 136.271 120.725 135.934C127.185 132.5 129.36 128.198 129.36 128.198Z" fill="#021168"/>
</g>
<g opacity="0.25">
<path d="M98.8349 102.404C89.7319 104.72 75.8877 103.935 75.8877 103.935C75.7712 104.095 75.7777 104.267 75.9235 104.452C90.4695 109.633 100.452 105.141 100.716 105.019C104.772 102.656 110.963 98.3584 110.351 96.866C110.069 96.1889 109.608 95.6018 109.016 95.1685C108.797 95.8976 107.166 100.284 98.8349 102.404Z" fill="#021168"/>
</g>
<g opacity="0.25">
<path d="M99.7382 81.2411C99.6004 80.5542 95.2257 78.135 95.2257 78.135C95.8352 80.4618 96.6092 83.4648 97.1118 85.5902L97.1529 85.6105C98.0151 85.1746 98.843 84.7355 99.6191 84.3152C99.6795 83.8002 99.8584 81.8442 99.7382 81.2411Z" fill="#021168"/>
</g>
<g opacity="0.25">
<path d="M111.478 114.653C110.987 114.594 109.986 112.749 109.986 112.749C109.986 112.749 107.356 112.553 106.924 112.454C106.491 112.356 106.099 111.119 105.903 111.041C105.766 110.988 104.774 111.344 104.194 111.564C106.054 112.999 109.659 115.674 113.5 117.97L113.639 114.79C113.639 114.79 111.968 114.712 111.478 114.653Z" fill="#021168"/>
</g>
<g opacity="0.25">
<path d="M122.19 121.175C121.866 121.204 121.41 120.66 121.248 120.601C121.119 120.554 120.107 120.944 119.699 121.106C119.918 121.194 120.138 121.282 120.356 121.367C120.429 121.35 120.669 121.452 120.982 121.607C122.838 122.316 124.605 122.928 126.186 123.44C126.08 122.841 125.67 121.017 125.621 120.887C125.561 120.731 122.514 121.146 122.19 121.175Z" fill="#021168"/>
</g>
<g opacity="0.4">
<path d="M2.82394 85.6334C2.82394 85.6334 7.28038 80.7726 13.1694 81.8313C18.9917 82.8798 21.4611 84.9256 28.8458 85.143C29.1705 84.3023 29.4333 83.6533 29.6107 83.2377C27.9804 83.5048 25.5773 83.4946 22.2351 82.5577C14.9706 80.5226 8.12167 79.0264 4.11872 83.0299C3.56752 83.5811 3.08702 84.1987 2.68826 84.8685C2.66897 85.1308 2.71561 85.3937 2.82394 85.6334Z" fill="white"/>
</g>
<g opacity="0.4">
<path d="M76.4566 89.88C76.4566 89.88 79.7743 92.7164 88.5787 91.3618C96.3976 90.1589 104.283 84.3612 105.948 83.0787C105.885 82.6513 105.783 82.3106 105.628 82.1343C105.606 82.1046 105.578 82.0803 105.545 82.0635C105.512 82.0468 105.476 82.0379 105.439 82.0376C105.025 82.0376 103.409 82.9286 101.7 83.8719C98.3948 85.6955 93.4 88.4512 89.1476 89.3918C83.2794 90.6898 78.1643 89.8432 77.0095 89.6183C76.6762 89.6578 76.4566 89.738 76.4566 89.88Z" fill="white"/>
</g>
<g opacity="0.4">
<path d="M107.961 111.215C108.888 111.201 110.375 110.067 110.611 110.258C110.847 110.45 111.097 112.724 111.73 113.143C112.242 113.482 114.561 113.099 115.428 112.94C115.188 112.484 114.48 112.471 113.644 112.513C113.36 112.526 113.116 112.538 112.92 112.513C112.341 112.438 112.172 111.522 111.958 110.362C111.824 109.639 111.657 108.739 111.412 108.472C111.31 108.36 110.843 108.258 108.737 109.757C108.459 109.955 108.391 110.002 108.316 110.027C108.031 110.122 107.828 109.936 106.66 108.478C106.487 108.262 106.33 108.067 106.218 107.934C105.775 108.018 104.179 109.261 102.895 110.429L102.948 110.586C103.051 110.669 103.269 110.842 103.579 111.087C103.579 111.087 105.75 109.698 105.963 109.736C106.177 109.774 107.033 111.23 107.961 111.215Z" fill="white"/>
</g>
<g opacity="0.4">
<path d="M114.46 120.891C120.879 123.958 131.348 125.607 131.348 125.607C130.431 125.362 129.132 124.998 127.572 124.518L127.56 124.514C125.193 123.784 122.233 122.787 119.118 121.531C117.667 120.946 116.136 120.176 114.614 119.321C114.608 119.316 114.601 119.314 114.596 119.31C109.735 116.576 104.977 112.958 103.211 111.574C103.307 111.97 103.391 112.366 103.468 112.766C103.517 113.029 103.558 113.294 103.598 113.559C103.649 113.633 103.684 113.682 103.684 113.682C103.684 113.682 108.041 117.823 114.46 120.891Z" fill="white"/>
</g>
<g opacity="0.4">
<path d="M24.6463 141.256C24.0123 140.648 23.57 140.451 23.4407 140.402C22.9258 140.459 19.1547 140.962 16.5667 143.603C16.0955 144.076 15.669 144.592 15.2928 145.144C15.158 145.507 15.0839 145.889 15.0732 146.276C15.0716 146.339 19.301 142.263 24.6463 141.256Z" fill="white"/>
</g>
<g opacity="0.4">
<path d="M22.9746 130.318C22.4154 125.666 23.3592 118.872 23.3592 118.872V118.864C22.8961 117.232 22.5744 115.563 22.3977 113.876C21.2675 121.494 20.6318 131.984 23.7102 139.855C23.8854 139.927 24.1941 140.084 24.599 140.406C24.599 140.406 23.5344 134.97 22.9746 130.318Z" fill="white"/>
</g>
<g opacity="0.4">
<path d="M68.408 145.217C69.3305 145.001 76.4171 144.039 76.4171 144.039C76.4171 144.039 76.2409 143.978 75.9957 143.897C71.1349 143.484 67.8968 144.072 67.4182 144.169L66.0033 145.251C65.326 146.262 64.0173 148.391 63.2604 150.154L63.3042 150.714C63.3042 150.714 67.4855 145.433 68.408 145.217Z" fill="white"/>
</g>
<g opacity="0.4">
<path d="M68.2513 132.124C68.4869 125.96 73.4727 118.147 73.4727 118.147C73.2834 118.175 73.0977 118.224 72.9187 118.291C63.1208 125.458 66.9101 141.29 67.5078 143.531C67.8432 143.469 68.4719 143.371 69.3485 143.286C69.083 142.188 68.0457 137.508 68.2513 132.124Z" fill="white"/>
</g>
<path d="M32.8051 82.6545C31.0231 83.9146 28.6979 84.0583 26.6051 83.953C24.6496 83.8393 22.6674 83.3217 20.7882 82.7881C18.9486 82.2892 17.1074 81.8309 15.2608 81.513C11.409 80.8352 6.72982 80.7043 4.08843 83.9755C0.834901 87.721 1.45612 93.7142 4.59641 97.3731L3.29094 97.2914L3.39457 97.1771C4.14612 96.2637 4.54567 95.1024 4.77428 93.9492C4.80155 93.8161 4.85788 93.6906 4.93923 93.5818C5.02059 93.4729 5.12498 93.3834 5.24494 93.3196C5.3649 93.2557 5.49747 93.2192 5.63319 93.2125C5.76892 93.2058 5.90444 93.2292 6.03008 93.281C7.03536 93.6869 8.15494 94.1041 9.21737 94.227C9.3594 94.2447 9.50321 94.2427 9.6447 94.2211C9.61649 94.2368 9.59015 94.2556 9.56618 94.2772C9.58338 94.2545 9.5979 94.23 9.60944 94.204C10.0822 92.9509 10.0587 91.4974 10.095 90.1631C10.0951 89.92 10.1918 89.6868 10.3638 89.5149C10.5358 89.3431 10.769 89.2465 11.0121 89.2465C11.4293 89.2348 11.6462 89.5189 11.9464 89.7673C12.4805 90.1909 13.192 90.669 13.8634 90.6535C13.904 90.6535 13.8859 90.6535 13.8891 90.6583C13.8923 90.6631 13.8971 90.6583 13.904 90.6583C13.937 90.6483 13.9674 90.6314 13.9932 90.6086C14.5418 90.0771 14.7822 89.2583 15.0562 88.4677C15.2696 87.7802 15.4463 87.0817 15.5856 86.3754C15.6673 85.9727 16.2714 86.0512 16.2468 86.462C16.1101 88.0217 15.9979 89.4677 15.3222 90.9537C14.5103 92.7885 12.2241 92.0134 10.9422 91.2036C10.7632 91.0915 10.6056 90.99 10.4112 90.8447L11.9191 90.1439C11.9095 91.4344 11.8593 92.6763 11.5949 93.9529C11.4523 94.5085 11.3679 94.9288 10.9539 95.4587C9.77876 96.8475 6.70151 95.4763 5.30683 94.9571L6.57011 94.2889C6.42599 95.0591 6.19853 95.8114 5.89173 96.5324C5.58246 97.2321 5.19199 97.9212 4.66799 98.4927C4.33468 98.9361 3.64081 99.0391 3.24874 98.5995C1.89248 97.0062 0.934893 95.113 0.45512 93.0764C-0.0430883 91.0535 -0.023065 88.9376 0.513341 86.9245C1.00381 85.1465 1.93723 83.5219 3.22631 82.2026C8.30504 77.1848 16.648 79.8294 22.6593 81.4078C25.4631 82.1273 28.7743 82.7085 31.4601 81.3645L31.5712 81.2956C31.5904 81.2839 31.6005 81.2748 31.616 81.2652L31.6369 81.2508C32.5401 80.5232 33.7243 81.8196 32.8051 82.654V82.6545Z" fill="#021168"/>
<path d="M6.24929 94.2861C10.0418 98.8964 15.699 101.886 21.5955 102.678C22.0154 102.762 22.4459 102.769 22.8727 102.807L24.1546 102.905H24.1856C24.3204 102.915 24.4511 102.956 24.5686 103.022C24.6861 103.089 24.7875 103.181 24.8654 103.292C24.9434 103.402 24.9962 103.528 25.0199 103.661C25.0437 103.794 25.0379 103.931 25.0029 104.062C24.6135 105.499 24.2732 106.995 23.9634 108.478C22.0122 118.366 20.7136 130.155 24.3245 139.754C24.4128 139.981 24.4073 140.233 24.3093 140.456C24.2114 140.679 24.0289 140.853 23.8021 140.942C23.3935 141.054 22.9544 141.058 22.5303 141.17C20.282 141.656 18.1107 142.719 16.59 144.472C15.8021 145.358 14.9154 146.653 15.0826 147.644C15.0618 147.644 15.0366 147.616 15.011 147.617C15.0078 147.617 14.9971 147.617 15.0003 147.617L15.0222 147.619C16.3747 147.745 17.7694 147.645 19.1309 147.599L20.0817 148.388C20.3787 149.315 21.2927 149.977 22.2947 150.265C23.9218 150.857 26.2133 150.585 27.9824 150.492C29.9588 150.393 32.0852 150.31 34.029 150.187C35.3564 150.097 36.6763 149.979 37.947 149.755C39.5495 149.461 41.2695 149.036 42.2363 147.668C43.4648 146.09 44.0925 144.036 44.3777 142.073C44.4084 141.83 44.5343 141.609 44.7278 141.459C44.9213 141.309 45.1666 141.241 45.4097 141.272C49.4463 142.789 53.7339 143.81 58.0403 144.192C58.7956 144.245 59.8468 144.323 60.5903 144.328C62.2927 144.399 63.9897 144.282 65.6776 144.132C65.8503 144.114 66.0245 144.145 66.18 144.222C66.3356 144.299 66.466 144.419 66.556 144.567C66.646 144.716 66.692 144.887 66.6885 145.06C66.6851 145.234 66.6324 145.403 66.5365 145.548C65.9586 146.422 65.3956 147.346 64.8806 148.272C64.3657 149.198 63.8845 150.147 63.5517 151.076C63.408 151.478 63.2643 152.005 63.2985 152.337C63.2985 152.309 63.2728 152.302 63.2563 152.276C63.2488 152.252 63.1708 152.223 63.2424 152.258C64.1558 152.774 65.4004 152.525 66.3619 152.17C66.4828 152.12 66.6129 152.097 66.7436 152.101C66.8744 152.106 67.0026 152.138 67.12 152.195C67.2374 152.253 67.3412 152.335 67.4245 152.436C67.5078 152.537 67.5687 152.654 67.6032 152.78C67.8319 153.505 68.3452 154.81 69.1891 154.77C70.4877 154.581 71.8444 153.867 72.9816 153.183C73.7059 152.756 74.5029 153.375 74.3784 154.176C74.3896 154.674 74.5189 155.272 74.9884 155.494L75.0387 155.525C75.1962 155.578 75.3592 155.614 75.5247 155.631H75.8661L76.2576 155.593C78.3408 155.258 80.0933 154.168 82.1477 153.501C83.2929 153.073 84.6048 152.902 85.7933 152.619C88.0047 152.11 89.9292 150.874 90.9591 148.852C91.7635 147.267 92.3532 145.551 92.9477 143.875C93.1379 143.311 93.3275 142.721 93.4771 142.178C93.5284 141.992 93.6366 141.826 93.7867 141.704C93.9367 141.582 94.1211 141.51 94.3141 141.498C101.467 140.997 108.627 139.558 115.439 137.313C117.76 136.544 120.068 135.633 122.252 134.529C124.759 133.208 127.212 131.573 129.172 129.532C130.203 128.472 131.148 127.25 131.805 125.923C131.887 125.748 131.982 125.534 132.024 125.413L132.684 126.577C127.456 125.247 122.344 123.599 117.408 121.449C114.482 120.071 111.701 118.362 109.021 116.563C106.651 114.953 104.354 113.276 102.106 111.475C101.971 111.366 101.87 111.221 101.817 111.056L99.9932 105.578C99.927 105.379 99.9313 105.163 100.005 104.967C100.08 104.771 100.219 104.606 100.4 104.501C102.518 103.239 104.626 101.876 106.576 100.39C107.537 99.6458 108.499 98.8547 109.221 98.0049C109.387 97.8135 109.533 97.6063 109.658 97.3863C109.718 97.2878 109.759 97.1792 109.78 97.0659C109.412 96.1669 108.419 95.3074 107.363 94.9549L107.15 94.8715C107.078 94.8438 106.943 94.792 106.829 94.738C106.33 94.5131 106.099 93.9298 106.342 93.4395L106.365 93.3946L106.393 93.346L106.437 93.2782L106.47 93.2312C106.545 93.1302 106.597 93.0682 106.653 92.9999L106.967 92.6308C108.053 91.3071 109.337 89.9413 109.732 88.3511C109.763 88.154 109.736 88.0349 109.712 88.0013C109.706 87.9893 109.699 87.9785 109.689 87.9692C108.863 87.192 107.588 87.0051 106.503 87.3085L106.271 87.325C106.032 87.3416 105.796 87.2628 105.615 87.1057C105.434 86.9487 105.323 86.7264 105.306 86.4875C105.389 85.2263 105.547 83.6378 105.184 82.5705C105.235 82.6137 105.298 82.6423 105.364 82.6533C105.396 82.6595 105.428 82.662 105.46 82.6608C105.408 82.6729 105.356 82.6889 105.305 82.7089C100.342 85.0688 95.6276 88.2283 90.1974 89.5995C85.7747 90.6633 81.1667 90.6973 76.7287 89.6988C76.6167 89.6701 76.5205 89.5987 76.4604 89.5C76.4004 89.4012 76.3813 89.2829 76.4073 89.1702C76.4333 89.0576 76.5023 88.9596 76.5996 88.8972C76.6969 88.8348 76.8147 88.8129 76.9279 88.8361C79.759 89.2854 82.7246 89.2955 85.5738 88.9505C92.2063 88.2876 97.8 84.5245 103.575 81.4664C104.383 81.0658 105.524 80.4072 106.38 81.1497C107.596 82.2591 107.245 85.049 107.122 86.5494L105.927 85.5746C107.698 85.0469 109.763 85.4079 111.075 86.7775C112.846 88.9788 109.382 92.5309 108.058 94.1659L107.947 94.3032C107.944 94.3086 107.947 94.3032 107.947 94.3032L107.959 94.2845L107.972 94.2615L107.988 94.2295L108.012 94.1761L108.031 94.12C108.057 94.0291 108.071 93.9352 108.072 93.8406C108.069 93.7396 108.05 93.6397 108.015 93.5447C107.939 93.3631 107.813 93.182 107.641 93.0998C108.966 93.572 110.271 94.3363 111.049 95.5761C112.011 96.9622 111.595 98.0033 110.622 99.172C107.945 102.079 104.615 104.029 101.319 106.074L101.725 104.997L103.551 110.474L103.262 110.055C106.539 112.664 109.997 115.137 113.588 117.31C115.651 118.555 117.839 119.723 120.086 120.6C124.34 122.285 128.699 123.689 133.136 124.804C133.25 124.832 133.357 124.882 133.452 124.952C133.546 125.021 133.626 125.109 133.686 125.209C133.747 125.31 133.787 125.421 133.804 125.537C133.822 125.653 133.816 125.771 133.788 125.884C133.613 126.453 133.371 126.871 133.108 127.365C132.792 127.944 132.301 128.647 131.897 129.172C129.136 132.72 125.241 135.208 121.202 137.055C112.713 140.661 103.59 142.626 94.4044 143.318L95.2446 142.638C95.0683 143.279 94.8803 143.857 94.6795 144.454C93.5706 147.446 92.6721 150.873 89.8999 152.78C88.4913 153.782 86.9139 154.276 85.2949 154.596C84.4296 154.743 83.5733 154.933 82.7363 155.227C80.3919 155.986 78.0005 157.537 75.3981 157.448C73.4479 157.327 72.4272 155.691 72.5671 153.859L73.9671 154.719C72.5527 155.562 69.781 157.105 68.1614 156.406C66.826 155.806 66.2449 154.525 65.8389 153.237L67.0803 153.847C65.567 154.428 63.7968 154.677 62.306 153.821C61.1229 153.145 61.4412 151.505 61.8317 150.469C62.6441 148.296 63.7856 146.448 65.0227 144.528L65.8816 145.945C63.2231 146.217 60.5448 146.239 57.8822 146.009C53.453 145.585 49.0836 144.642 44.93 143.012L46.1944 142.269C46.0089 143.699 45.6275 145.096 45.0609 146.422C44.4733 147.778 43.6294 149.141 42.4206 150.044C41.1477 150.941 39.7236 151.278 38.2681 151.554C36.883 151.797 35.5124 151.916 34.1513 152.009C32.1653 152.151 30.0629 152.203 28.0817 152.317C26.0285 152.43 23.7984 152.695 21.7312 152.002C20.3114 151.582 18.8521 150.53 18.3735 149.036C18.3559 148.978 18.3372 148.929 18.3201 148.863C18.3004 148.788 18.2845 148.711 18.2725 148.635L19.2233 149.424C18.4408 149.461 17.6695 149.488 16.8848 149.499C16.2278 149.504 15.5623 149.514 14.8924 149.446L14.6948 149.416L14.6451 149.408L14.5661 149.387C13.0923 148.974 13.0272 147.144 13.4977 145.964C15.0671 142.209 18.8671 139.922 22.7525 139.269C22.9619 139.234 23.152 139.206 23.3972 139.181L22.6248 140.428C22.0563 138.95 21.598 137.433 21.2537 135.888C19.3307 126.71 20.3691 117.206 22.1724 108.104C22.4929 106.585 22.8294 105.089 23.2407 103.564L24.0889 104.723L22.7162 104.62C22.2589 104.58 21.799 104.57 21.3471 104.48L19.9861 104.262L19.6459 104.209C15.7102 103.386 11.9482 101.705 8.76996 99.2351C7.30157 98.0952 5.92559 96.8314 4.77342 95.3614C4.11695 94.425 5.41441 93.2857 6.24502 94.2808L6.24929 94.2861Z" fill="#021168"/>
<path d="M102.098 84.2177C101.96 84.2177 101.823 84.1863 101.699 84.1259C101.574 84.0655 101.465 83.9776 101.38 83.8688C101.294 83.7601 101.235 83.6333 101.205 83.4982C101.176 83.363 101.178 83.2229 101.21 83.0885C101.482 81.9759 101.765 80.6314 101.837 80.0615C101.375 79.7036 100.12 79.0054 99.063 78.49C98.8462 78.3842 98.6801 78.197 98.601 77.9692C98.5218 77.7415 98.536 77.4916 98.6404 77.2742C99.0517 76.4196 99.4016 75.4426 99.4561 75.0217C99.0378 74.6478 97.5545 73.876 96.0947 73.2868C95.8701 73.1961 95.6908 73.02 95.5961 72.7971C95.5015 72.5742 95.4992 72.3228 95.5899 72.0983C95.6806 71.8737 95.8567 71.6944 96.0796 71.5998C96.3025 71.5051 96.5538 71.5028 96.7784 71.5935C101.074 73.3279 101.216 74.2734 101.269 74.6291C101.372 75.3155 101.002 76.4137 100.654 77.2465C103.526 78.7218 103.608 79.2522 103.663 79.6133C103.734 80.0705 103.503 81.3861 102.984 83.5222C102.935 83.7205 102.821 83.8967 102.661 84.0228C102.5 84.1489 102.302 84.2175 102.098 84.2177Z" fill="#021168"/>
<path d="M96.912 86.988C96.7059 86.9877 96.506 86.9177 96.3447 86.7894C96.1835 86.6611 96.0703 86.4821 96.0237 86.2814C95.1359 82.4568 93.1393 75.007 93.119 74.9322C93.064 74.701 93.1013 74.4576 93.223 74.2535C93.3447 74.0494 93.5411 73.9008 93.7706 73.8393C94.0001 73.7777 94.2445 73.8081 94.452 73.9239C94.6595 74.0397 94.8136 74.2318 94.8817 74.4595C94.902 74.5343 96.9067 82.0145 97.8014 85.8684C97.8326 86.0025 97.8331 86.1419 97.8029 86.2762C97.7727 86.4105 97.7126 86.5362 97.6271 86.6441C97.5415 86.7519 97.4328 86.839 97.3089 86.8989C97.1849 86.9589 97.0491 86.9901 96.9115 86.9902L96.912 86.988Z" fill="#021168"/>
<path d="M24.1239 104.73C24.0807 104.73 24.0375 104.727 23.9947 104.721C23.876 104.704 23.7617 104.664 23.6585 104.603C23.5552 104.542 23.465 104.461 23.393 104.366C23.3209 104.27 23.2685 104.161 23.2387 104.045C23.2088 103.928 23.2022 103.808 23.2191 103.689C24.7895 92.6191 29.2401 82.5503 29.2849 82.4499C29.3835 82.2287 29.5659 82.0558 29.792 81.9692C30.0181 81.8825 30.2694 81.8892 30.4905 81.9878C30.7117 82.0864 30.8846 82.2688 30.9712 82.4949C31.0579 82.721 31.0512 82.9723 30.9526 83.1934C30.9088 83.2912 26.5597 93.1367 25.0267 103.945C24.9957 104.163 24.8874 104.362 24.7216 104.506C24.5558 104.65 24.3436 104.73 24.1239 104.73Z" fill="#021168"/>
<path d="M45.2833 143.088C45.1496 143.087 45.0176 143.058 44.8966 143.001C32.0353 136.974 26.4101 128.516 23.9578 122.483C21.2838 115.908 21.6791 110.809 21.6973 110.595C21.7282 110.363 21.8473 110.152 22.0299 110.005C22.2125 109.858 22.4446 109.787 22.6781 109.807C22.9116 109.826 23.1286 109.935 23.2841 110.11C23.4396 110.286 23.5217 110.514 23.5134 110.748C23.5096 110.797 23.1443 115.699 25.6831 121.885C28.0232 127.588 33.3904 135.593 45.6706 141.348C45.8588 141.436 46.0114 141.585 46.1031 141.772C46.1947 141.958 46.22 142.171 46.1747 142.374C46.1295 142.576 46.0163 142.758 45.8541 142.887C45.6918 143.017 45.4901 143.088 45.2823 143.088H45.2833Z" fill="#021168"/>
<path d="M65.2233 144.315L66.7349 143.159L66.4145 144.145C66.243 143.514 66.1143 142.928 65.9871 142.318C64.5251 134.701 64.6517 125.438 70.3805 119.544C71.2614 118.667 72.2629 117.93 73.3146 117.297C73.3781 117.264 73.4513 117.257 73.5201 117.275C73.589 117.294 73.6485 117.337 73.6872 117.397C73.726 117.457 73.7412 117.529 73.7298 117.599C73.7185 117.669 73.6816 117.733 73.6261 117.778C73.359 117.997 72.8302 118.388 72.5829 118.6C72.2714 118.905 71.9093 119.187 71.615 119.499L71.0156 120.14C67.8556 123.677 66.7098 128.526 66.7061 133.174C66.6938 136.118 67.0688 139.067 67.721 141.937C67.854 142.504 68.002 143.091 68.1622 143.618C68.2146 143.795 68.2121 143.985 68.1549 144.161C68.0977 144.337 67.9885 144.491 67.8417 144.604L66.3327 145.767C65.3606 146.47 64.2837 145.077 65.2233 144.317V144.315Z" fill="#021168"/>
<path d="M101.249 106.114C97.1364 107.736 92.6062 108.09 88.2299 107.874C87.6664 107.811 86.3385 107.719 85.7931 107.644C84.5143 107.463 83.0572 107.228 81.787 106.927L80.9927 106.756L80.2107 106.538C79.3213 106.298 77.9672 105.914 77.1126 105.586L75.5838 105.052C75.1367 104.892 75.3419 104.203 75.8151 104.336C76.7259 104.598 77.9886 105.019 78.8913 105.244C79.4255 105.37 80.701 105.669 81.2111 105.789L83.5566 106.191C87.4458 106.739 91.4658 106.725 95.324 106.011C97.076 105.652 98.8521 105.203 100.478 104.456C101.599 103.935 102.38 105.577 101.249 106.112V106.114Z" fill="#021168"/>
<path d="M93.5696 141.951C96.1768 137.08 96.4748 130.91 93.7667 126.01C92.881 124.364 91.7369 122.85 90.448 121.443C90.383 121.372 90.3472 121.28 90.3481 121.184C90.3489 121.088 90.3862 120.996 90.4524 120.926C90.5187 120.857 90.6089 120.815 90.7047 120.81C90.8005 120.805 90.8947 120.836 90.9683 120.898C92.49 122.183 93.7956 123.704 94.835 125.403C98.0436 130.628 97.9518 137.483 95.1485 142.869C94.5257 143.93 92.9558 143.025 93.5696 141.952V141.951Z" fill="#021168"/>
<path d="M94.5043 111.442C96.6307 111.541 99.6727 112.314 99.7924 114.921C99.9104 116.674 99.1738 118.419 97.9763 119.682C97.9255 119.735 97.8865 119.774 97.8096 119.842L97.5425 118.284C99.1033 119.02 101.024 120.311 100.773 122.294C100.715 122.585 100.639 122.871 100.544 123.152C100.2 124.214 99.7151 125.225 99.1017 126.158C99.0379 126.257 98.9375 126.327 98.8223 126.353C98.707 126.379 98.5862 126.359 98.4859 126.296C98.3856 126.234 98.3138 126.135 98.2861 126.02C98.2584 125.905 98.277 125.784 98.3379 125.683C98.8928 124.597 99.267 123.428 99.4457 122.222C99.5087 121.064 97.8897 120.344 96.9112 119.998L96.5036 119.646C96.4306 119.583 96.3707 119.507 96.3274 119.421C96.2841 119.334 96.2581 119.241 96.2511 119.145C96.2441 119.048 96.256 118.952 96.2863 118.86C96.3166 118.769 96.3647 118.684 96.4277 118.612C97.116 118.098 97.6653 117.421 98.0259 116.641C98.3229 115.97 98.5136 115.183 98.3961 114.454C97.995 113.007 95.8519 112.44 94.4525 112.211C93.9589 112.157 94.0054 111.428 94.5059 111.442H94.5043Z" fill="#021168"/>
<path d="M107.314 125.607C108.93 124.452 112.384 123.004 113.515 125.508C114.045 126.859 114.248 128.336 113.907 129.765C113.781 130.233 113.098 130.169 113.052 129.693C112.821 128.447 112.527 127.179 112.025 126.021C111.466 125.07 108.587 126.021 107.632 126.235C107.25 126.357 106.991 125.839 107.315 125.607L107.314 125.607Z" fill="#021168"/>
<path d="M103.545 110.466C104.132 113.324 104.364 116.313 103.586 119.141C103.63 118.436 103.613 117.729 103.536 117.027C103.288 114.976 102.663 112.924 101.817 111.059C101.302 109.817 103.186 109.167 103.545 110.466Z" fill="#021168"/>
<path d="M23.6915 139.207C24.1482 139.367 24.473 139.652 24.809 139.961C25.5894 140.721 26.1443 141.632 26.6288 142.583C26.8361 142.993 26.2859 143.367 25.9814 143.029C25.5541 142.552 25.099 142.09 24.599 141.702C24.1803 141.385 23.7551 141.081 23.2546 140.965C23.2476 140.965 23.1942 140.957 23.2588 140.98C22.0965 140.66 22.511 138.957 23.6915 139.207Z" fill="#021168"/>
<path d="M18.4677 148.713C19.1733 147.21 20.1636 145.872 21.4371 144.814C21.8571 144.471 22.311 144.172 22.7917 143.922C22.8692 143.882 22.959 143.872 23.0432 143.895C23.1273 143.919 23.1997 143.973 23.2458 144.047C23.292 144.121 23.3085 144.21 23.2921 144.295C23.2758 144.381 23.2277 144.457 23.1576 144.509C21.6587 145.693 20.6855 147.478 20.1973 149.296C19.8394 150.586 17.9699 149.958 18.4677 148.712V148.713Z" fill="#021168"/>
<path d="M67.0895 142.993C69.4467 142.682 71.7981 142.759 74.1505 142.981C74.9207 143.054 75.6872 143.158 76.4473 143.272C76.5377 143.285 76.6194 143.333 76.6756 143.405C76.7319 143.477 76.7584 143.568 76.7498 143.659C76.7412 143.75 76.698 143.834 76.6293 143.894C76.5605 143.954 76.4713 143.986 76.38 143.982C73.4091 143.906 70.3692 144.054 67.4842 144.775C66.2354 145.09 65.8182 143.24 67.0874 142.993H67.0895Z" fill="#021168"/>
<path d="M65.8824 152.647C66.9011 150.803 68.058 149.071 69.5531 147.577C69.9367 147.203 70.528 147.72 70.2133 148.15C69.066 149.72 68.2145 151.556 67.5559 153.378C67.0795 154.592 65.3157 153.825 65.8824 152.647Z" fill="#021168"/>
<path d="M72.6625 153.532C73.6555 152.04 74.7281 150.648 76.1089 149.49C76.1957 149.419 76.306 149.383 76.4178 149.39C76.5296 149.397 76.6348 149.445 76.7125 149.526C76.7902 149.607 76.8348 149.714 76.8374 149.826C76.8399 149.938 76.8003 150.047 76.7263 150.131C76.2055 150.748 75.7617 151.444 75.3578 152.161C74.9585 152.877 74.5997 153.615 74.2831 154.371C73.7324 155.573 71.9964 154.675 72.6625 153.531V153.532Z" fill="#021168"/>
<path d="M114.785 119.984C114.705 119.984 114.626 119.974 114.55 119.953C114.434 119.923 114.325 119.869 114.23 119.797C114.134 119.724 114.054 119.633 113.994 119.529C113.934 119.426 113.895 119.311 113.879 119.192C113.863 119.074 113.871 118.953 113.902 118.837C114.501 116.583 115.043 113.786 114.894 113.212C114.748 113.069 113.967 113.106 113.672 113.119C113.377 113.133 113.09 113.147 112.841 113.114C111.823 112.982 111.607 111.818 111.357 110.47C111.281 110.059 111.164 109.428 111.045 109.077C110.758 109.175 110.193 109.465 109.088 110.253C108.775 110.475 108.671 110.55 108.507 110.604C107.777 110.847 107.375 110.346 106.181 108.859L106.045 108.689C105.418 109.073 104.234 110.031 103.298 110.884C103.21 110.968 103.106 111.034 102.992 111.077C102.878 111.12 102.757 111.141 102.635 111.136C102.513 111.132 102.394 111.104 102.283 111.053C102.173 111.001 102.074 110.929 101.992 110.839C101.91 110.749 101.847 110.643 101.806 110.528C101.765 110.413 101.748 110.292 101.756 110.17C101.763 110.049 101.794 109.93 101.848 109.82C101.902 109.711 101.977 109.614 102.069 109.534C105.232 106.654 106.03 106.699 106.329 106.715C106.472 106.722 106.612 106.757 106.741 106.819C106.87 106.881 106.986 106.969 107.08 107.076C107.202 107.214 107.391 107.45 107.605 107.717C107.779 107.933 108.065 108.29 108.305 108.572C109.572 107.68 111.313 106.565 112.308 107.65C112.788 108.175 112.957 109.085 113.153 110.14C113.22 110.502 113.313 111.002 113.403 111.307C113.465 111.307 113.528 111.302 113.587 111.299C114.464 111.257 116.097 111.181 116.616 112.609C117.049 113.808 116.096 117.694 115.666 119.309C115.614 119.503 115.499 119.674 115.34 119.796C115.181 119.918 114.985 119.984 114.785 119.984Z" fill="#021168"/>
<path d="M127.675 125.148C127.444 125.148 127.221 125.059 127.053 124.9C126.884 124.742 126.782 124.525 126.767 124.294C126.664 122.684 126.348 119.877 125.926 118.925C125.639 119.029 125.128 119.385 124.863 119.571C124.29 119.971 123.838 120.286 123.334 120.308H123.266C122.379 120.308 121.938 119.573 121.643 119.079C121.564 118.948 121.474 118.799 121.387 118.682C120.82 119.029 119.636 120.137 118.62 121.289C118.461 121.471 118.235 121.583 117.993 121.598C117.752 121.614 117.513 121.533 117.331 121.374C117.149 121.214 117.038 120.988 117.022 120.747C117.006 120.505 117.087 120.267 117.247 120.085C120.755 116.099 121.692 116.662 122.143 116.933C122.667 117.247 122.965 117.743 123.204 118.141C123.247 118.213 123.302 118.305 123.354 118.384C123.498 118.293 123.677 118.168 123.814 118.072C124.606 117.519 125.507 116.891 126.431 117.114C126.745 117.189 127.184 117.398 127.486 117.963C128.247 119.39 128.536 123.388 128.587 124.175C128.595 124.295 128.579 124.415 128.54 124.529C128.501 124.642 128.44 124.747 128.361 124.837C128.281 124.927 128.185 125.001 128.077 125.053C127.97 125.106 127.852 125.137 127.733 125.145L127.675 125.148Z" fill="#021168"/>
<path d="M82.7435 74.8585C84.9256 70.7034 85.551 64.6418 84.4603 58.2282C83.4988 52.5785 81.3088 47.3812 78.8741 44.9871C78.386 44.516 77.8424 44.1061 77.2551 43.7665C76.5874 44.7173 74.3135 47.7967 72.6961 48.0542C72.6495 48.0616 72.6023 48.0654 72.5551 48.0654C70.802 48.0654 69.1707 42.961 68.7289 41.4595C65.8242 41.1572 62.599 41.0926 59.2926 41.1065C58.7782 42.1342 56.5636 46.4282 55.2287 46.8929C55.1538 46.9185 55.0751 46.9315 54.9959 46.9314C53.5467 46.9314 51.4058 42.8019 50.6388 41.216C50.306 41.2192 49.9738 41.2224 49.6442 41.2245H49.3237C46.419 41.2245 43.5089 40.9654 40.7366 40.6011C40.1021 41.5306 37.3816 45.3466 35.5217 45.3466H35.48C33.5571 45.2862 32.4824 40.4206 32.2473 39.2204C29.8175 38.7888 27.6643 38.4191 25.9101 38.2749C25.4604 39.5846 23.7666 44.4225 22.9963 45.2841C22.6529 45.6681 22.1695 45.7936 21.685 45.7936C21.1407 45.7936 20.5958 45.6334 20.2465 45.5095C19.8972 46.8684 18.1462 49.9494 17.556 50.9659C17.556 50.9691 17.5506 50.9707 17.549 50.9739C17.5474 50.9771 17.5432 50.9862 17.5394 50.9915C14.3724 55.3844 13.0135 60.9129 13.9072 65.7806C14.7282 70.2675 17.3834 74.1059 21.5856 76.8835C28.4078 81.3934 42.4481 85.2986 56.9626 85.4732C59.0736 85.3082 78.1781 83.5551 82.7435 74.8585ZM28.7999 51.9434C24.9706 49.7373 27.9495 44.3696 27.9805 44.3156C28.0008 44.2798 28.0282 44.2485 28.061 44.2235C28.0938 44.1986 28.1313 44.1806 28.1713 44.1706C28.2112 44.1606 28.2528 44.1588 28.2935 44.1654C28.3341 44.172 28.3731 44.1867 28.4078 44.2088L33.9299 47.7145C33.9351 47.7174 33.9401 47.7206 33.9449 47.7241L34.886 48.3213C34.952 48.3655 34.998 48.4338 35.0143 48.5115C35.0306 48.5892 35.0159 48.6703 34.9734 48.7373C34.9308 48.8043 34.8637 48.8521 34.7864 48.8703C34.7091 48.8886 34.6278 48.876 34.5597 48.8351L33.9673 48.4612C33.7109 49.3832 32.9626 51.5401 31.4327 52.2254C31.1208 52.3663 30.7825 52.4391 30.4403 52.4391C29.919 52.4364 29.3704 52.2719 28.7999 51.9434ZM51.1457 63.7481C51.1654 63.742 51.1856 63.7377 51.206 63.7353C51.2867 63.7377 51.3631 63.7719 51.4185 63.8305C51.474 63.889 51.504 63.9672 51.502 64.0478C51.4918 64.411 51.3861 67.3451 50.556 68.4727C50.4721 69.6765 50.2599 70.8678 49.923 72.0265C49.92 72.0431 49.9154 72.0594 49.9091 72.0751C49.0876 74.8372 47.2517 78.111 43.1505 78.5917C42.7605 78.6381 42.3681 78.6615 41.9753 78.6617C39.78 78.6617 37.8319 77.9021 36.4047 76.4685C35.1035 75.1619 34.3749 73.4003 34.5479 71.9816C34.7616 70.2253 34.6692 68.5448 34.6013 67.7351C34.5168 67.7758 34.4248 67.7988 34.3311 67.8024C34.2691 67.8023 34.2077 67.7915 34.1495 67.7703C33.2366 67.4445 32.8937 63.9778 32.7884 62.5025C32.7847 62.4325 32.8054 62.3633 32.8472 62.307C32.7558 62.2146 32.6661 62.12 32.5801 62.0239C31.915 61.2766 31.3601 60.438 30.9322 59.5337C31.4664 60.3686 32.0652 61.1607 32.7804 61.8305C32.9118 61.9561 33.0475 62.0757 33.1869 62.1922C33.2592 62.2151 33.3197 62.2653 33.3557 62.3321C33.9084 62.7797 34.5288 63.1364 35.1937 63.3887C35.6103 63.5414 36.0444 63.6411 36.4858 63.6857C36.5232 63.6681 36.5638 63.6585 36.605 63.6573C36.6463 63.6561 36.6874 63.6634 36.7257 63.6787C36.739 63.6861 36.7516 63.6945 36.7636 63.7038C37.1712 63.7185 37.5791 63.6907 37.9809 63.621C38.8607 63.4327 39.7019 63.0958 40.4685 62.6248L40.5016 60.5058C39.6886 60.0785 36.4036 58.1999 37.0216 55.9987C37.4788 54.3732 41.0181 54.3962 43.3855 54.9303C45.6824 55.449 46.9424 56.3827 46.7624 57.4286C46.3848 59.6186 42.2136 60.4118 41.1089 60.5849L41.0764 62.651C41.8882 63.2991 42.7909 63.8241 43.7557 64.2091C44.6935 64.5908 45.6917 64.8027 46.7037 64.8352C46.7106 64.8303 46.7149 64.8234 46.7224 64.8197C46.7704 64.7944 46.8243 64.7826 46.8785 64.7855C46.9326 64.7885 46.985 64.806 47.03 64.8362C48.0829 64.8072 49.118 64.5576 50.0683 64.1034C51.064 63.6376 51.9624 62.9651 52.7834 62.2055C52.2984 62.7799 51.7488 63.2967 51.1457 63.7455V63.7481ZM53.9842 51.7559L53.3918 52.1298C53.3237 52.1706 53.2423 52.1833 53.1651 52.165C53.0878 52.1467 53.0207 52.099 52.9781 52.0319C52.9355 51.9649 52.9208 51.8839 52.9371 51.8062C52.9535 51.7285 52.9995 51.6602 53.0654 51.6159L54.0093 51.0166L54.0184 51.0113L59.5436 47.5035C59.5783 47.4811 59.6172 47.4661 59.6579 47.4595C59.6987 47.4528 59.7403 47.4547 59.7803 47.465C59.8203 47.475 59.858 47.493 59.8908 47.518C59.9237 47.5429 59.9512 47.5744 59.9715 47.6103C60.0019 47.6637 62.9815 53.0325 59.1521 55.238C58.5816 55.5671 58.0304 55.731 57.5112 55.731C57.169 55.7311 56.8306 55.6582 56.5187 55.5174C54.9889 54.8342 54.2406 52.6773 53.9842 51.7559Z" fill="#F89B29"/>
<path d="M14.6415 55.7432C14.6415 55.7432 17.6151 52.0528 22.0614 53.1125C26.5077 54.1723 28.3334 56.7245 32.2792 55.1247C36.225 53.5249 37.1651 51.4673 41.676 51.8289C46.187 52.1906 49.2076 54.6242 51.8784 57.1368C54.5491 59.6495 59.927 59.6885 66.6798 56.6657C73.4325 53.6429 81.4416 55.9425 85.1321 63.1546C85.1321 63.1546 89.2579 78.4357 69.8617 83.4316C50.4655 88.4275 31.7734 83.4316 20.8612 76.7632C9.94894 70.0949 14.212 56.7891 14.6415 55.7432Z" fill="#FFF3E9"/>
<path d="M30.8366 24.7966C31.3623 24.7966 31.7885 23.6848 31.7885 22.3134C31.7885 20.9419 31.3623 19.8301 30.8366 19.8301C30.3109 19.8301 29.8848 20.9419 29.8848 22.3134C29.8848 23.6848 30.3109 24.7966 30.8366 24.7966Z" fill="#021168"/>
<path d="M22.3418 38.4991C19.0749 39.6844 19.8628 43.096 20.1999 44.5526C20.2282 44.6755 20.2533 44.7781 20.2698 44.8699C20.8387 45.106 22.0368 45.4458 22.5411 44.8812C23.1367 44.2145 24.6034 40.1902 25.2797 38.2341C24.0613 38.1695 23.0661 38.2363 22.3418 38.4991Z" fill="white"/>
<path d="M25.5677 11.7184C24.7093 12.0501 24.4193 15.4938 24.47 18.1106C26.2653 17.0546 28.3106 16.1262 30.5701 15.3415C28.9035 13.5366 26.4299 11.3845 25.5677 11.7184Z" fill="#F7EBD1"/>
<path d="M19.6991 45.1252C19.6868 45.0344 19.6499 44.8747 19.6072 44.6899C19.2664 43.2145 18.3605 39.2949 22.1348 37.9269C22.9868 37.6182 24.1518 37.5557 25.5646 37.647C25.6145 37.6155 25.6732 37.6006 25.7322 37.6045C25.7911 37.6085 25.8473 37.631 25.8926 37.6689C27.7482 37.8158 30.013 38.2079 32.5695 38.6625H32.5748L33.062 38.749C37.7476 39.5834 43.5592 40.6185 49.3238 40.6185H49.6405C51.1687 40.6084 52.7386 40.5833 54.2556 40.5587C64.8746 40.3894 74.9065 40.2281 79.301 44.5531C84.399 49.5704 88.2902 65.6052 83.2831 75.1419C79.981 81.4321 69.7626 84.175 63.0216 85.3245C68.3124 84.988 73.5444 84.0997 78.3844 82.5047C95.4463 76.8843 99.6351 68.0858 100.449 65.8349C99.1133 66.2675 97.717 66.7066 97.5402 66.7066C97.4619 66.7076 97.3863 66.6783 97.3291 66.6249C97.2719 66.5716 97.2375 66.4982 97.233 66.4201C97.2285 66.3419 97.2543 66.2651 97.3051 66.2055C97.3559 66.146 97.4276 66.1083 97.5055 66.1003C97.5626 66.0896 98.0247 65.9882 100.822 65.0732C101.172 64.9609 101.511 64.8165 101.834 64.6416C102.248 64.3971 102.588 64.0446 102.817 63.6219C103.453 62.4243 103 60.9778 102.984 60.9271C102.708 60.1408 102.084 59.3043 101.583 58.6302C101.151 58.0512 100.839 57.6324 100.775 57.313C100.701 56.9444 101.042 56.711 101.556 56.3568C102.554 55.671 104.061 54.6347 103.602 52.3672C103.454 51.6333 103.1 51.1061 102.522 50.7557C100.966 49.8124 98.3558 50.5495 98.3318 50.5575C98.2553 50.5768 98.1743 50.5657 98.1059 50.5265C98.0375 50.4873 97.9869 50.4231 97.9649 50.3473C97.9429 50.2716 97.9511 50.1902 97.9879 50.1205C98.0246 50.0507 98.087 49.9979 98.1619 49.9732C98.2789 49.9384 101.051 49.1527 102.836 50.2344C103.558 50.6713 104.017 51.3486 104.198 52.2465C104.737 54.9082 102.892 56.1768 101.902 56.8584C101.706 56.9919 101.469 57.1554 101.388 57.2462C101.466 57.4551 101.773 57.8674 102.071 58.2664C102.445 58.7701 102.884 59.3615 103.218 59.9757C106.609 48.8776 104.839 40.1864 102.721 34.8064C100.92 30.2357 98.5786 27.2295 97.5674 26.0591C97.5541 31.4498 96.7758 37.1353 95.1317 41.0961C95.1113 41.1436 95.079 41.1851 95.0378 41.2163C94.9966 41.2476 94.9479 41.2677 94.8967 41.2745C95.2833 42.9331 95.5849 44.6104 95.8004 46.2998C95.8107 46.3798 95.7889 46.4607 95.7396 46.5246C95.6903 46.5885 95.6177 46.6302 95.5377 46.6406C95.5243 46.6406 95.5109 46.6406 95.4981 46.6406C95.424 46.6404 95.3525 46.6131 95.297 46.564C95.2416 46.5148 95.206 46.4471 95.1969 46.3735C92.4241 24.8092 78.0911 18.409 77.9437 18.347C69.4507 14.8601 59.5485 12.99 49.9738 12.99C47.7501 12.99 45.5452 13.0909 43.377 13.2961C41.2762 13.4948 39.2603 13.7843 37.3438 14.1582C37.332 14.1582 37.3208 14.1635 37.309 14.1651C35.2508 14.5635 33.2204 15.0942 31.2304 15.7537C31.2121 15.7616 31.1932 15.7677 31.1738 15.7719C28.597 16.6367 26.2969 17.6857 24.328 18.8977C24.32 18.9025 24.3136 18.9084 24.3051 18.9127C22.192 20.2171 20.4592 21.709 19.1815 23.3606C11.6606 33.0693 16.2271 47.0903 17.3445 50.1088C18.596 47.9065 19.7589 45.5637 19.6991 45.1252ZM60.8118 20.38C61.7012 20.38 62.3721 21.709 62.3721 23.4717C62.3721 25.2344 61.7012 26.5634 60.8118 26.5634C59.9224 26.5634 59.251 25.2344 59.251 23.4717C59.251 21.709 59.9219 20.38 60.8118 20.38ZM30.8367 19.2209C31.7261 19.2209 32.397 20.5504 32.397 22.3131C32.397 24.0758 31.7261 25.4048 30.8367 25.4048C29.9473 25.4048 29.2759 24.0753 29.2759 22.3131C29.2759 20.5509 29.9468 19.2209 30.8367 19.2209Z" fill="#8BC93A"/>
<path d="M32.8888 39.3372C33.3493 41.5715 34.3796 44.7054 35.4982 44.7401H35.5254C36.8074 44.7401 39.0188 41.985 40.0588 40.5107C37.5269 40.1608 35.1205 39.7335 32.9545 39.3478L32.8888 39.3372Z" fill="white"/>
<path d="M72.6004 47.4532C73.8114 47.2609 75.8235 44.7327 76.7182 43.47C74.7745 42.4674 72.2522 41.8745 69.3864 41.5337C70.2016 44.2205 71.6374 47.6108 72.6004 47.4532Z" fill="white"/>
<path d="M55.0293 46.3181C55.8669 46.0265 57.5761 43.1367 58.6081 41.1101C57.1659 41.1208 55.7114 41.1438 54.2639 41.1667C53.2928 41.1822 52.3014 41.1977 51.3121 41.21C52.6571 43.9224 54.4043 46.536 55.0293 46.3181Z" fill="white"/>
<path d="M60.8117 25.9562C61.2091 25.9562 61.7636 25.0112 61.7636 23.4729C61.7636 21.9345 61.2091 20.9885 60.8117 20.9885C60.4143 20.9885 59.8593 21.9334 59.8593 23.4718C59.8593 25.0102 60.4127 25.9562 60.8117 25.9562Z" fill="#021168"/>
<path d="M85.8029 23.6057C86.5544 22.4871 89.1098 18.9372 91.3303 18.8421C92.0444 18.8148 92.6582 19.1252 93.1496 19.7758C95.5565 22.9588 92.5968 32.2969 92.2416 33.3807C93.2731 35.6818 94.0989 38.0697 94.7093 40.5164C98.5211 30.8295 97.1381 13.0187 93.374 11.3447C92.3527 10.8901 90.8811 11.1123 89.2535 11.6951C89.2301 11.7108 89.2045 11.723 89.1776 11.7314C89.1672 11.7334 89.1567 11.7347 89.1461 11.7352C85.0641 13.2308 80.0511 16.9389 78.6447 18.0136C79.7354 18.5659 82.6337 20.2271 85.8029 23.6057Z" fill="#8BC93A"/>
<path d="M43.3201 12.6957C54.8578 11.6044 67.4905 13.4376 78.0155 17.7237C78.9796 16.97 84.2485 12.9414 88.7343 11.2524C88.0127 8.61689 86.61 6.70141 84.5589 5.56046C80.3043 3.19523 74.5899 4.8917 74.286 4.98571C74.2807 4.99159 74.2791 4.9996 74.2737 5.00548C74.2568 5.02383 74.2378 5.04014 74.2171 5.05409L72.1339 6.42953L73.668 4.7571C65.4602 0.0960735 53.9535 2.64826 51.4809 3.27803L53.3883 5.32918L50.7475 3.36776L50.7363 3.35922L50.7122 3.34159C50.7026 3.33227 50.6937 3.32227 50.6855 3.31168C50.6855 3.30847 50.6786 3.30633 50.6759 3.30313L50.6631 3.28657C50.6507 3.27423 50.6394 3.26083 50.6294 3.24651C50.232 2.78073 47.4544 -0.175811 42.6171 1.97896C37.8423 4.10703 35.8254 9.93785 35.5011 10.9725C36.4658 12.1439 37.1479 13.1342 37.4139 13.5322C39.2974 13.1711 41.2661 12.8923 43.3201 12.6957Z" fill="#8BC93A"/>
<path d="M91.3561 19.4479C89.5629 19.5248 87.1592 22.6406 86.2282 24.0635C88.0545 26.0858 90.0966 28.8709 91.8609 32.5566C92.5729 30.1967 94.6107 22.7127 92.6653 20.1402C92.2951 19.653 91.8715 19.4265 91.3561 19.4479Z" fill="#F7EBD1"/>
<path d="M23.8709 18.4733C23.8244 17.0193 23.7694 11.7616 25.3484 11.1511C26.907 10.5491 30.2508 14.0772 31.2005 15.1284C33.0259 14.5317 34.8845 14.0419 36.767 13.6616C35.4807 11.8012 29.5468 3.75682 24.7848 6.03926C20.0891 8.28911 20.2696 18.4316 20.4048 21.1221C21.4689 20.1258 22.63 19.2384 23.8709 18.4733Z" fill="#8BC93A"/>
<path d="M47.3326 65.2947C48.0196 66.4965 49.1386 68.1316 49.7732 68.2811C49.797 68.2899 49.8225 68.2928 49.8477 68.2898C49.8728 68.2867 49.8969 68.2777 49.9179 68.2635C50.5589 67.8132 50.8554 65.4266 50.8938 64.0282C50.8953 63.9913 50.904 63.955 50.9195 63.9214C50.6905 64.0834 50.4544 64.2355 50.2112 64.3776C49.7096 64.6446 49.1878 64.8909 48.6328 65.0442C48.2071 65.1638 47.7722 65.2476 47.3326 65.2947Z" fill="white"/>
<path d="M35.0262 63.8083C34.4466 63.5635 33.9066 63.2341 33.4237 62.8308C33.6112 65.0743 34.0236 67.0298 34.3553 67.1959C34.4146 67.1959 34.4958 67.1388 34.5914 67.0394C34.6122 67.0028 34.6404 66.971 34.6742 66.9459C35.0748 66.4716 35.6832 65.3755 36.1976 64.1582C35.7958 64.0834 35.4031 63.9661 35.0262 63.8083Z" fill="white"/>
<path d="M42.6964 71.0462C42.4392 71.2387 42.2079 71.4637 42.0084 71.7155C41.7886 71.9881 41.5966 72.2819 41.4353 72.5926C41.2732 72.9093 41.1404 73.24 41.0384 73.5808C40.9351 73.9264 40.8583 74.2795 40.8087 74.6368C40.8079 74.2721 40.835 73.9078 40.8899 73.5472C40.9461 73.1814 41.0355 72.8215 41.157 72.4719C41.2832 72.1185 41.4442 71.7785 41.6377 71.457C41.7687 71.2397 41.9166 71.0331 42.08 70.839C41.6383 70.6034 40.641 70.261 39.0567 70.7493C37.0948 71.3545 35.9186 73.8345 35.6675 74.4136C35.9691 75.0156 36.3659 75.565 36.8426 76.0406C38.3847 77.5896 40.6036 78.284 43.0842 77.9886C46.7907 77.5517 48.5016 74.5984 49.2922 72.0296C46.7752 69.5357 43.0709 70.8988 42.6964 71.0462Z" fill="#FB4A66"/>
<path d="M46.1617 57.3206C46.2749 56.6625 45.1051 55.9388 43.2505 55.5195C42.3542 55.3153 41.4382 55.2098 40.5189 55.2048C38.9698 55.2048 37.7781 55.5478 37.6067 56.1588C37.0992 57.9675 40.3095 59.7174 40.8618 60.0047C42.3259 59.8012 45.8775 58.9696 46.1617 57.3206Z" fill="#021168"/>
<path d="M49.6336 68.8733C48.5194 68.6116 47.0029 65.9633 46.6552 65.3319C45.591 65.3306 44.5361 65.1336 43.5432 64.7507C43.0072 64.5436 42.488 64.2952 41.9904 64.0077C41.5522 63.7564 41.1346 63.4706 40.7416 63.1531C39.9238 63.6306 39.0285 64.0077 38.0761 64.168C37.6633 64.2285 37.2457 64.249 36.8289 64.2294C36.4213 65.2256 35.8049 66.553 35.1693 67.2741C35.2286 67.797 35.4241 69.838 35.1543 72.051C35.1009 72.4917 35.1591 73.0461 35.3504 73.6428C35.869 72.6183 37.0431 70.7279 38.8758 70.1633C40.9344 69.5271 42.1774 70.1569 42.5929 70.4341C43.3942 70.1462 46.894 69.079 49.476 71.3657C49.6845 70.5509 49.8309 69.7215 49.9141 68.8845C49.8884 68.8845 49.8644 68.8958 49.8382 68.8958C49.7694 68.8965 49.7007 68.8889 49.6336 68.8733Z" fill="#021168"/>
<g opacity="0.25">
<path d="M84.6316 67.9129C84.7067 67.7056 84.7749 67.5053 84.8362 67.3119C85.091 64.7731 85.0173 62.0105 84.6044 59.1624C84.7705 61.6221 84.7646 64.475 84.6316 67.9129Z" fill="#021168"/>
</g>
<g opacity="0.25">
<path d="M91.9649 55.1247C91.7294 47.6556 84.8196 36.2894 76.1823 36.2108C67.545 36.1323 37.6089 36.9768 29.5806 33.6063C21.5523 30.2358 22.5741 22.3132 22.5741 22.3132C16.0537 28.2423 15.3577 38.1301 15.4052 42.5908C15.9709 46.1477 16.9142 48.9472 17.3448 50.1111C18.5963 47.9067 19.7591 45.5639 19.6993 45.1253C19.687 45.0345 19.6502 44.8748 19.6074 44.69C19.2666 43.2147 18.3607 39.295 22.135 37.9271C22.987 37.6183 24.152 37.5558 25.5648 37.6472C25.6148 37.6156 25.6735 37.6007 25.7324 37.6047C25.7913 37.6086 25.8475 37.6312 25.8928 37.6691C27.4152 37.7898 29.2169 38.0761 31.2247 38.426C33.0649 38.7203 35.116 39.1022 37.4134 39.4986C37.965 39.5879 38.5245 39.6746 39.0917 39.7587C42.9414 40.2928 47.3578 40.4905 51.7875 40.5957C52.6154 40.5845 53.4434 40.5711 54.2553 40.5583C64.8743 40.389 74.9062 40.2277 79.3007 44.5527C84.3987 49.57 88.29 65.6048 83.2828 75.1415C82.5264 76.5838 81.4037 77.8358 80.0453 78.9282C78.4493 80.317 76.7181 81.202 75.3496 81.7592C74.3758 82.2079 73.3662 82.6138 72.3423 82.976C72.2776 83.0678 72.2691 83.1629 72.2659 83.3071C72.2607 83.3908 72.2769 83.4745 72.3129 83.5502C72.349 83.6259 72.4038 83.6911 72.4721 83.7398C72.4721 83.7398 73.2028 83.7473 73.9143 83.7505C75.4313 83.3942 76.9253 82.9861 78.3814 82.5064C79.1712 82.2465 79.9338 81.9794 80.6692 81.7052C82.7113 80.6577 85.7869 78.8849 89.636 76.0811C95.7131 71.6535 97.7664 67.6949 97.9368 66.6159C97.8064 66.6575 97.6727 66.6881 97.5372 66.7073C97.459 66.7082 97.3834 66.679 97.3261 66.6256C97.2689 66.5722 97.2345 66.4989 97.23 66.4207C97.2255 66.3426 97.2514 66.2658 97.3021 66.2062C97.3529 66.1467 97.4247 66.109 97.5025 66.101C97.5201 66.0978 97.5778 66.0855 97.7322 66.0428C97.917 65.3927 98.8646 63.8276 99.4415 63.0072C100.207 61.918 98.0874 60.3279 96.9112 58.7671C95.735 57.2063 97.8518 56.1759 98.323 54.7331C98.7941 53.2904 95.6725 53.3492 97.0864 51.3471C97.346 50.9791 97.7247 50.7259 98.1691 50.5566C98.1182 50.5445 98.0714 50.5192 98.0333 50.4833C97.9953 50.4474 97.9673 50.4021 97.9523 50.352C97.9305 50.275 97.94 50.1924 97.9789 50.1224C98.0177 50.0523 98.0826 50.0005 98.1595 49.9781C98.2765 49.9434 101.048 49.1576 102.834 50.2393C103.053 50.3723 103.254 50.534 103.43 50.72C104.058 40.2795 98.6371 32.1988 97.3807 30.4756C97.0629 34.4113 96.3268 38.2128 95.1293 41.0983C95.1089 41.1459 95.0765 41.1873 95.0353 41.2186C94.9941 41.2499 94.9455 41.2699 94.8942 41.2767C95.2809 42.9354 95.5825 44.6127 95.798 46.3021C95.8083 46.3821 95.7864 46.4629 95.7371 46.5268C95.6879 46.5907 95.6152 46.6325 95.5352 46.6429C95.5219 46.6429 95.5085 46.6429 95.4957 46.6429C95.4216 46.6426 95.3501 46.6154 95.2946 46.5662C95.2392 46.517 95.2035 46.4493 95.1944 46.3758C94.8557 43.6802 94.286 41.0187 93.4916 38.4206C93.4467 38.3357 93.4013 38.2518 93.3559 38.1674C97.2445 51.094 91.9649 55.1247 91.9649 55.1247Z" fill="#021168"/>
</g>
<g opacity="0.25">
<path d="M91.415 16.0706C87.3709 17.0128 84.0581 21.8816 84.0581 21.8816C84.6232 22.3976 85.2081 22.9708 85.8026 23.6037C86.5542 22.4852 89.1096 18.9352 91.33 18.8401C91.7177 18.8224 92.1019 18.9194 92.4347 19.119C92.4347 19.119 95.2032 19.9576 95.2032 24.6688C95.2032 28.6509 93.6322 33.9994 93.1462 35.5586C93.7647 37.1782 94.2866 38.8331 94.7091 40.5145C96.8457 35.0779 97.351 27.0827 96.7154 20.817C96.1518 17.8819 94.7502 15.2934 91.415 16.0706Z" fill="#021168"/>
</g>
<g opacity="0.25">
<path d="M74.0212 16.0705C74.1574 16.0411 75.0922 11.9185 77.6246 11.4346C80.157 10.9506 83.0072 14.2277 83.0072 14.2277L85.1337 12.7726C85.1337 12.7726 82.8662 7.82584 78.0669 9.12169C73.7819 10.2781 72.6447 14.7923 72.447 15.7489C72.7422 15.8397 73.0364 15.9327 73.3295 16.0278C73.6596 16.0593 73.963 16.0833 74.0212 16.0705Z" fill="#021168"/>
</g>
<g opacity="0.25">
<path d="M22.3421 38.4991C20.9271 39.0129 20.2733 39.9413 20.0137 40.953C19.9888 41.5014 20.0642 42.0497 20.2364 42.5709C20.2364 42.5709 21.4591 40.2452 24.7345 39.7741C24.9429 39.1994 25.1309 38.6663 25.2799 38.2347C24.0615 38.1695 23.0664 38.2363 22.3421 38.4991Z" fill="#021168"/>
</g>
<g opacity="0.25">
<path d="M32.5297 40.4719C32.3946 39.9377 32.3011 39.4896 32.2487 39.223C29.8189 38.7914 27.6657 38.4218 25.9115 38.2776C25.8047 38.5874 25.6284 39.0964 25.411 39.7022C28.0882 39.5051 31.4614 40.2224 32.5297 40.4719Z" fill="#021168"/>
</g>
<g opacity="0.25">
<path d="M39.9782 40.6247C39.9472 40.6567 38.551 40.293 38.551 40.293C37.4912 42.3137 34.7232 43.7164 34.7232 43.7164C34.6953 43.9033 34.7047 44.0939 34.751 44.2772C34.9871 44.556 35.2317 44.7254 35.4839 44.7387C35.6158 44.7321 35.7467 44.7115 35.8743 44.6773C37.1445 44.2858 39.0029 41.9905 39.9782 40.6247Z" fill="#021168"/>
</g>
<g opacity="0.25">
<path d="M56.4338 42.4338C56.3948 42.6101 54.5552 45.8786 54.3255 45.9437C54.6193 46.2311 54.864 46.3753 55.029 46.3176C55.8521 46.0308 57.5176 43.2334 58.5544 41.2133C58.4963 41.1541 58.4186 41.1182 58.336 41.1123H58.2062C57.609 41.1438 55.1764 41.3521 55.1764 41.3521C55.1764 41.3521 56.4734 42.257 56.4338 42.4338Z" fill="#021168"/>
</g>
<g opacity="0.25">
<path d="M72.855 45.928C72.3054 46.1144 70.665 44.465 70.665 44.465C70.6406 44.6181 70.6318 44.7732 70.6388 44.9281C71.3081 46.4178 72.0351 47.5454 72.5997 47.453C73.8106 47.2607 75.8228 44.7326 76.7175 43.4698C76.3607 43.2856 75.9777 43.12 75.5829 42.9624C75.2683 43.4132 73.3603 45.756 72.855 45.928Z" fill="#021168"/>
</g>
<g opacity="0.25">
<path d="M51.4854 42.8628C51.134 42.2218 50.8391 41.6342 50.6388 41.2181C50.306 41.2213 49.9738 41.2245 49.6442 41.2266H49.3237C49.0935 41.2266 48.8633 41.2224 48.6336 41.2192H48.5636H48.5364C45.9457 41.1786 43.3626 40.9446 40.8857 40.623C40.812 40.6583 40.7308 40.6952 40.6523 40.7299C40.4386 41.0402 40.077 41.5434 39.6299 42.1075C40.9471 42.4541 45.7027 43.5422 51.4854 42.8628Z" fill="#021168"/>
</g>
<g opacity="0.25">
<path d="M69.29 43.1895C69.0363 42.4732 68.843 41.8461 68.7292 41.4594C65.8394 41.1587 62.6329 41.093 59.3441 41.1063L59.2907 41.1149C59.1262 41.4429 58.795 42.0908 58.3762 42.8402C58.3762 42.8402 65.0825 42.4326 69.29 43.1895Z" fill="#021168"/>
</g>
<g opacity="0.25">
<path d="M83.7201 56.5476C83.7201 56.5476 83.8008 55.538 83.3996 53.7011C82.2661 49.9235 80.6338 46.7192 78.8737 44.9869C78.3856 44.5158 77.8419 44.1059 77.2547 43.7664C77.0533 44.0527 76.705 44.5334 76.274 45.0708C76.274 45.0708 81.2448 48.8921 83.7201 56.5476Z" fill="#021168"/>
</g>
<g opacity="0.25">
<path d="M33.1862 62.1879C33.2585 62.2108 33.319 62.261 33.355 62.3278C33.9076 62.7754 34.5281 63.1321 35.193 63.3844C35.2838 63.4175 35.3757 63.4474 35.4681 63.4757C36.3446 63.6798 37.2233 63.6894 38.0214 63.6066C38.886 63.4163 39.7129 63.0831 40.4678 62.6205L40.5009 60.5016C40.0791 60.2784 39.671 60.0303 39.2787 59.7585C39.0608 60.3205 38.4001 61.4855 36.6117 61.7841C34.2305 62.182 31.2926 59.9439 31.2926 59.9439C31.3701 60.1041 31.4529 60.2532 31.5335 60.4006C31.9043 60.913 32.3215 61.3903 32.7797 61.8263C32.9111 61.9518 33.0473 62.0714 33.1862 62.1879Z" fill="#021168"/>
</g>
<g opacity="0.25">
<path d="M41.0764 62.6467C41.3392 62.8555 41.6191 63.0505 41.9054 63.2374C43.2985 64.0593 44.8621 64.5495 46.4751 64.67C49.7019 64.9056 51.5074 63.1974 51.5074 63.1974C51.5074 63.1974 47.4291 63.7849 45.3534 62.9618C43.5292 62.2375 43.2857 60.5047 43.2531 60.0918C42.5502 60.3026 41.8338 60.4659 41.109 60.5805L41.0764 62.6467Z" fill="#021168"/>
</g>
<g opacity="0.25">
<path d="M34.8122 64.6919C34.8122 64.8959 34.2519 66.7361 34.2519 66.7361C34.3716 67.103 34.684 66.8776 35.0243 66.4588C35.3656 65.9247 35.7721 65.1486 36.1353 64.3035C36.021 64.217 34.5329 63.811 34.5329 63.811C34.5329 63.811 34.8112 64.4883 34.8122 64.6919Z" fill="#021168"/>
</g>
<g opacity="0.25">
<path d="M49.8731 65.8183C49.8437 66.532 49.6963 68.0046 49.6963 68.0265C49.6963 68.0265 49.8715 68.167 50.1615 67.9731C50.4585 67.4699 50.6583 66.5175 50.7736 65.578C50.8004 65.3488 50.8196 65.1587 50.8308 65.0438C50.8345 65.0032 50.8388 64.9616 50.842 64.921C50.842 64.921 50.7784 64.6699 50.7491 64.4498C50.7197 64.2298 50.6529 64.1555 50.6529 64.1555C50.5732 64.1781 50.4955 64.2072 50.4206 64.2426C50.3549 64.2832 50.2929 64.3286 50.2261 64.3676C49.9991 64.5278 49.6151 64.8179 49.6151 64.8179C49.6151 64.8179 49.9024 65.1042 49.8731 65.8183Z" fill="#021168"/>
</g>
<g opacity="0.25">
<path d="M43.0796 77.9859C46.4084 77.5933 48.1247 75.1715 49.013 72.8212C49.0263 72.7491 49.0317 72.7085 49.0317 72.7085C49.0317 72.7085 46.4827 76.5704 42.1411 76.5902C39.8626 76.6015 37.6364 75.9078 35.7676 74.6042C36.0533 75.1307 36.4131 75.6135 36.8359 76.0379C38.3801 77.5869 40.599 78.2787 43.0796 77.9859Z" fill="#021168"/>
</g>
<g opacity="0.25">
<path d="M70.6374 79.214C56.5539 82.5258 46.475 79.8192 46.475 79.8192C51.4538 76.9043 50.1526 71.1515 50.1526 71.1515C50.0875 71.4325 50.0116 71.7241 49.924 72.0222C49.921 72.0388 49.9164 72.0551 49.9101 72.0708C49.7215 72.7083 49.4853 73.3307 49.2034 73.9328C48.797 75.0967 48.0576 76.1155 47.077 76.8627C46.0786 77.7446 44.8009 78.3946 43.1515 78.5891C42.7615 78.6355 42.3691 78.6588 41.9763 78.659C39.781 78.659 37.8329 77.8995 36.4057 76.4658C35.721 75.7826 35.1891 74.9619 34.8454 74.0578C34.6998 73.789 34.5748 73.5096 34.4715 73.2219C33.9566 75.8131 35.9586 79.2124 35.9586 79.2124C12.6513 71.417 16.2675 53.2333 16.3466 52.8503C14.0444 56.8832 13.1326 61.5779 13.9023 65.7817C14.7233 70.2685 17.3786 74.107 21.5808 76.8846C28.403 81.3944 42.4432 85.2996 56.9577 85.4743C59.0725 85.3066 78.177 83.5513 82.7424 74.8569C83.597 73.2288 84.2097 71.3048 84.5772 69.1848C84.597 68.7505 84.6141 68.3301 84.6306 67.9113C83.3332 71.4902 79.8606 77.0459 70.6374 79.214Z" fill="#021168"/>
</g>
<g opacity="0.25">
<path d="M84.5783 69.1861C84.6852 68.5761 84.7717 67.9522 84.8358 67.3118C84.7745 67.5051 84.7063 67.7054 84.6312 67.9127C84.6152 68.3293 84.5981 68.7518 84.5783 69.1861Z" fill="#021168"/>
</g>
<g opacity="0.25">
<path d="M84.5783 69.1861C84.6852 68.5761 84.7717 67.9522 84.8358 67.3118C84.7745 67.5051 84.7063 67.7054 84.6312 67.9127C84.6152 68.3293 84.5981 68.7518 84.5783 69.1861Z" fill="#021168"/>
</g>
<g opacity="0.4">
<path d="M73.0465 5.4376L73.6709 4.75709C65.4631 0.0960665 53.9564 2.64825 51.4838 3.27802L52.4004 4.26407C53.9815 3.97242 62.9991 2.52807 73.0465 5.4376Z" fill="white"/>
</g>
<g opacity="0.4">
<path d="M81.9927 6.16832C85.7505 7.08653 87.2723 10.5313 87.6841 11.6845C88.0377 11.5286 88.3892 11.3827 88.7364 11.2524C88.0147 8.61688 86.6121 6.70141 84.5609 5.56046C80.3064 3.19522 74.592 4.89169 74.2881 4.98571C74.2827 4.99158 74.2811 4.9996 74.2758 5.00547C74.2589 5.02382 74.2399 5.04014 74.2192 5.05408L72.1894 6.39534L71.0676 7.3253C71.0676 7.3253 77.4577 5.06049 81.9927 6.16832Z" fill="white"/>
</g>
<g opacity="0.4">
<path d="M36.5524 12.3117C36.8766 11.3502 39.2504 4.75821 44.0492 3.2129C47.3033 2.16489 49.6664 2.86677 50.9745 3.53339L50.7507 3.36727L50.7395 3.35873L50.7155 3.3411C50.7059 3.33178 50.6969 3.32178 50.6888 3.31119C50.6888 3.30798 50.6818 3.30585 50.6791 3.30264L50.6663 3.28608C50.654 3.27375 50.6427 3.26034 50.6327 3.24602C50.2353 2.78024 47.4577 -0.1763 42.6204 1.97848C37.8456 4.10654 35.8286 9.93736 35.5044 10.972C35.9077 11.4618 36.2581 11.9159 36.5524 12.3117Z" fill="white"/>
</g>
<g opacity="0.4">
<path d="M26.3018 7.35488C29.1275 6.79669 34.1934 12.6681 35.2889 13.9859C35.7743 13.8719 36.267 13.7638 36.7669 13.6616C35.4807 11.8012 29.5468 3.75682 24.7848 6.03926C21.9538 7.39547 20.8967 11.6174 20.5313 15.348C20.5516 15.2908 23.1343 7.98091 26.3018 7.35488Z" fill="white"/>
</g>
<g opacity="0.4">
<path d="M91.8468 12.4896C93.3317 12.1573 94.3002 12.5911 94.8973 13.1081C94.4487 12.2113 93.9359 11.5943 93.3723 11.3427C92.351 10.8882 90.8794 11.1104 89.2519 11.6931C89.2285 11.7088 89.2029 11.7211 89.176 11.7295C89.1656 11.7315 89.1551 11.7327 89.1445 11.7332C85.0625 13.2288 80.0495 16.9369 78.6431 18.0117C79.3398 18.3719 80.015 18.7723 80.6653 19.2108C80.6653 19.2108 88.8748 13.1541 91.8468 12.4896Z" fill="white"/>
</g>
<g opacity="0.25">
<path d="M93.4932 38.4239C93.1596 37.3417 92.7974 36.3115 92.4067 35.3333C92.7721 36.3241 93.0862 37.268 93.3575 38.1707C93.4029 38.2551 93.4483 38.3389 93.4932 38.4239Z" fill="#021168"/>
</g>
<g opacity="0.4">
<path d="M93.4932 38.4239C93.1596 37.3417 92.7974 36.3115 92.4067 35.3333C92.7721 36.3241 93.0862 37.268 93.3575 38.1707C93.4029 38.2551 93.4483 38.3389 93.4932 38.4239Z" fill="white"/>
</g>
<g opacity="0.4">
<path d="M92.4088 35.3334C87.3269 22.5415 78.0641 18.4007 77.9477 18.3526C69.4547 14.8657 59.5525 12.9956 49.9778 12.9956C47.7541 12.9956 45.5492 13.0966 43.381 13.3017C41.2802 13.5004 39.2643 13.7899 37.3478 14.1638C37.336 14.1638 37.3248 14.1691 37.313 14.1707C35.2537 14.5673 33.222 15.0961 31.2306 15.754C31.2124 15.7619 31.1934 15.7679 31.174 15.7721C28.9391 16.52 26.9125 17.4115 25.129 18.4253C24.6947 18.8099 24.3625 19.2153 24.1675 19.6415C24.1675 19.6415 28.6106 17.2485 37.4412 15.9644C37.6859 16.8725 40.4987 17.3853 43.8826 17.1193C47.0122 16.873 49.5553 16.0435 49.9997 15.1819C51.5002 15.1995 53.0578 15.2503 54.6875 15.3486C74.6333 16.5504 85.1134 22.8267 93.3602 38.1687C93.0867 37.2681 92.7726 36.3242 92.4088 35.3334Z" fill="white"/>
</g>
<g opacity="0.4">
<path d="M51.2635 17.3457C50.3074 17.421 49.5574 17.7954 49.5879 18.1816C49.6183 18.5678 50.4174 18.8226 51.3736 18.7457C52.3297 18.6688 53.0797 18.2964 53.0492 17.9097C53.0188 17.523 52.2191 17.2709 51.2635 17.3457Z" fill="white"/>
</g>
<path d="M20.1378 22.7186C19.9095 22.7182 19.6897 22.6324 19.5216 22.4779C19.3535 22.3235 19.2493 22.1117 19.2297 21.8842C19.1806 21.3138 18.108 7.88941 24.2572 4.94142C30.5644 1.91918 37.7392 12.9072 38.0415 13.3762C38.161 13.5793 38.1973 13.8207 38.1429 14.05C38.0885 14.2793 37.9475 14.4786 37.7495 14.6063C37.5515 14.734 37.3118 14.7802 37.0805 14.7352C36.8492 14.6902 36.6442 14.5576 36.5085 14.365C34.6892 11.5462 29.0838 4.65404 25.0477 6.58715C20.8813 8.58328 20.7494 18.1938 21.0501 21.7277C21.0604 21.8472 21.047 21.9674 21.0107 22.0817C20.9745 22.196 20.9161 22.302 20.8388 22.3936C20.7616 22.4853 20.667 22.5609 20.5606 22.616C20.4541 22.6711 20.3379 22.7047 20.2184 22.7148C20.1917 22.7173 20.1648 22.7186 20.1378 22.7186Z" fill="#021168"/>
<path d="M89.1005 12.3475C88.8974 12.3473 88.7002 12.2793 88.5401 12.1544C88.38 12.0295 88.2661 11.8548 88.2164 11.6579C87.56 9.05712 86.2294 7.18384 84.2637 6.09096C80.1368 3.79837 74.5149 5.552 74.4583 5.57016C74.3346 5.60997 74.2039 5.6228 74.0749 5.60778C73.9459 5.59276 73.8216 5.55024 73.7104 5.48309C64.7479 0.1031 51.3096 3.94901 51.1756 3.99067C51.0004 4.04217 50.8138 4.03992 50.6399 3.98421C50.466 3.9285 50.3129 3.8219 50.2002 3.67819C50.0966 3.54946 47.5343 0.454576 42.8684 2.5351C37.919 4.74062 36.0606 11.2301 36.0425 11.2952C35.9766 11.5271 35.8217 11.7234 35.6115 11.8415C35.4014 11.9596 35.1531 11.9897 34.9208 11.9254C34.6885 11.8611 34.4911 11.7075 34.3716 11.4982C34.2521 11.2889 34.2202 11.0408 34.283 10.8081C34.3663 10.5079 36.3795 3.42767 42.1254 0.86694C46.4521 -1.06135 49.7414 0.623367 51.2188 2.08588C53.9334 1.3808 65.6511 -1.22587 74.3028 3.71451C75.7819 3.31603 80.9797 2.17775 85.1488 4.49438C87.5744 5.84205 89.202 8.10152 89.9866 11.2103C90.0458 11.445 90.0094 11.6937 89.8853 11.9015C89.7611 12.1094 89.5595 12.2594 89.3248 12.3187C89.2515 12.3377 89.1762 12.3474 89.1005 12.3475Z" fill="#021168"/>
<path d="M51.5275 2.4347L53.3917 5.32927L50.3096 3.79465C50.1982 3.73941 50.0987 3.66276 50.0169 3.56907C49.9352 3.47538 49.8726 3.3665 49.8329 3.24863C49.7933 3.13077 49.7772 3.00623 49.7857 2.88215C49.7941 2.75807 49.827 2.63688 49.8823 2.5255C50.1846 1.8733 51.1563 1.8279 51.5259 2.4347H51.5275Z" fill="#021168"/>
<path d="M74.6135 5.51734L72.1367 6.42968L73.4288 4.12801C73.4911 4.01642 73.5749 3.91822 73.6753 3.83902C73.7756 3.75982 73.8906 3.70118 74.0136 3.66646C74.1366 3.63173 74.2653 3.6216 74.3923 3.63664C74.5192 3.65168 74.642 3.69159 74.7535 3.7541C75.474 4.13762 75.3768 5.25454 74.6135 5.51681V5.51734Z" fill="#021168"/>
<path d="M24.18 19.2466C24.0224 19.2463 23.8711 19.1849 23.7579 19.0754C23.6446 18.9658 23.5782 18.8166 23.5727 18.6591C23.4915 16.5412 23.4904 11.5409 25.2382 10.8647C27.0207 10.174 30.5311 13.9131 31.5631 15.0754C31.6204 15.1343 31.6651 15.2042 31.6947 15.2809C31.7242 15.3576 31.7379 15.4394 31.7349 15.5215C31.732 15.6036 31.7124 15.6843 31.6774 15.7586C31.6425 15.833 31.5928 15.8994 31.5314 15.9541C31.47 16.0087 31.3982 16.0503 31.3203 16.0764C31.2424 16.1025 31.1601 16.1126 31.0782 16.106C30.9963 16.0995 30.9166 16.0764 30.8438 16.0381C30.7711 15.9999 30.7069 15.9473 30.655 15.8836C28.6087 13.5803 26.2841 11.7706 25.6789 11.9998C25.0913 12.2273 24.664 15.3794 24.7906 18.6126C24.7936 18.6925 24.781 18.7722 24.7532 18.8471C24.7255 18.9221 24.6832 18.9908 24.6289 19.0495C24.5746 19.1081 24.5093 19.1555 24.4367 19.1888C24.364 19.2222 24.2855 19.2409 24.2057 19.244L24.18 19.2466Z" fill="#021168"/>
<path d="M78.4272 17.2345C81.1883 18.439 83.6219 20.3048 85.7686 22.3945C88.9431 25.5289 91.4472 29.3214 93.1939 33.4183C94.8866 37.4854 96.1462 41.8531 95.8674 46.2914C95.871 46.3847 95.8395 46.476 95.7792 46.5473C95.7189 46.6186 95.6341 46.6648 95.5415 46.6767C95.4488 46.6886 95.3551 46.6654 95.2787 46.6117C95.2023 46.558 95.1488 46.4777 95.1286 46.3865C94.4695 43.5918 93.7858 40.8414 92.8953 38.1605C90.7176 31.5173 86.7467 25.3595 81.1642 21.0954C80.0751 20.2707 78.9208 19.4929 77.6922 18.9054C76.64 18.3819 77.3183 16.8125 78.4283 17.2356L78.4272 17.2345Z" fill="#021168"/>
<path d="M91.9215 33.9844C91.8557 33.9846 91.7904 33.9739 91.7281 33.9529C91.6523 33.9275 91.5823 33.8874 91.522 33.835C91.4618 33.7825 91.4124 33.7187 91.3768 33.6472C91.3412 33.5757 91.32 33.4978 91.3145 33.4181C91.309 33.3384 91.3192 33.2584 91.3446 33.1826C92.2671 30.4296 94.2584 22.7533 92.4214 20.3245C92.0165 19.7903 91.632 19.7401 91.3692 19.7519C89.8201 19.8181 87.4741 22.6496 86.3599 24.4193C86.2718 24.5514 86.1357 24.6439 85.9804 24.6771C85.8252 24.7102 85.6632 24.6815 85.5288 24.5969C85.3945 24.5124 85.2985 24.3787 85.2612 24.2244C85.224 24.0701 85.2485 23.9074 85.3295 23.7708C85.659 23.2474 88.6257 18.6515 91.3168 18.5361C91.8809 18.5105 92.7003 18.675 93.392 19.5906C95.9463 22.968 92.8578 32.4946 92.4983 33.5693C92.458 33.6903 92.3805 33.7956 92.277 33.8701C92.1734 33.9445 92.049 33.9846 91.9215 33.9844Z" fill="#021168"/>
<path d="M57.8638 86.7027C53.9724 86.6982 50.0855 86.4396 46.2278 85.9287C35.9288 84.5736 26.4641 81.5727 20.9089 77.9015C16.422 74.9364 13.5867 70.8218 12.7043 66.0021C11.7829 60.9672 13.1103 55.2827 16.2596 50.6944C15.7789 49.438 14.521 45.8459 13.9692 41.2869C13.0665 33.8263 14.5359 27.3706 18.2173 22.6177C22.5525 17.0219 31.6812 13.1845 43.2632 12.0895C54.7737 11.002 67.3706 12.8005 77.9186 17.0283C80.2432 15.2319 89.6 8.336 93.8652 10.2306C97.2207 11.7225 97.9659 19.7792 98.1304 23.1742C98.1585 23.7575 98.1776 24.3415 98.1875 24.9263C99.0422 25.8584 101.762 29.0713 103.839 34.3338C106.071 39.9841 107.936 49.156 104.221 60.8508C104.364 61.4693 104.576 62.8939 103.892 64.1865C103.435 65.0524 102.684 65.6865 101.657 66.0769C100.901 68.3887 96.8062 77.7161 78.7625 83.6602C72.6518 85.6745 65.4744 86.7027 57.8638 86.7027ZM49.8942 13.6343C36.6509 13.6343 24.7628 17.1517 19.6611 23.7356C11.4464 34.3402 18.0635 50.2996 18.1313 50.4593C18.1924 50.6039 18.2152 50.7618 18.1976 50.9177C18.18 51.0736 18.1226 51.2224 18.0309 51.3498C14.959 55.6113 13.6391 60.9645 14.5007 65.6731C15.2912 69.9923 17.8557 73.6939 21.9163 76.3786C32.0711 83.0908 58.3921 88.4505 78.1921 81.9263C97.3901 75.602 100 65.2607 100.025 65.1592C100.062 64.9997 100.141 64.8528 100.253 64.734C100.366 64.6152 100.509 64.5287 100.666 64.4835C101.457 64.2592 101.983 63.8864 102.274 63.3426C102.797 62.3672 102.407 61.1237 102.403 61.1114C102.344 60.9277 102.344 60.73 102.403 60.5463C106.048 49.2853 104.291 40.4856 102.176 35.0864C100.885 31.7923 99.3061 29.3234 98.1651 27.7867C97.991 32.984 97.1107 37.9163 95.6931 41.3312C95.6003 41.5548 95.4224 41.7324 95.1987 41.8249C94.975 41.9174 94.7236 41.9173 94.5 41.8245C94.2764 41.7317 94.0988 41.5539 94.0063 41.3301C93.9138 41.1064 93.9139 40.8551 94.0067 40.6315C95.559 36.8924 96.4281 31.1801 96.3693 25.3467C96.3693 25.3189 96.3693 25.2906 96.3693 25.2628C96.3615 24.5962 96.3413 23.9294 96.3089 23.2624C95.9708 16.2767 94.4218 12.4725 93.1254 11.8993C90.4076 10.6911 82.7948 15.483 78.6349 18.7899C78.5077 18.8908 78.3559 18.956 78.1952 18.9787C78.0345 19.0014 77.8705 18.9809 77.7204 18.9192C69.0169 15.3446 59.126 13.6343 49.8942 13.6343Z" fill="#021168"/>
<path d="M56.7866 86.7069C56.5503 86.7057 56.3236 86.6129 56.1543 86.4481C55.985 86.2832 55.8862 86.0591 55.8788 85.8229C55.8713 85.5867 55.9557 85.3568 56.1143 85.1816C56.2728 85.0063 56.4931 84.8994 56.7289 84.8833C56.9362 84.8699 77.5545 83.4352 82.208 74.5741C86.9016 65.634 83.1855 50.0789 78.4497 45.4184C74.4179 41.4507 64.1787 41.6147 54.2771 41.7734C52.7569 41.7979 51.1849 41.8231 49.6508 41.8332C43.6614 41.8738 37.6692 40.8055 32.8506 39.9508C28.2746 39.1357 24.3224 38.4322 22.5522 39.0738C20.1255 39.954 20.274 42.1628 20.7953 44.4185C20.8488 44.6412 20.8877 44.8175 20.9075 44.9628C21.0143 45.7421 20.0635 47.8665 18.0834 51.2765C17.9615 51.485 17.7618 51.6367 17.5282 51.6983C17.2946 51.7598 17.0461 51.7263 16.8372 51.605C16.6283 51.4837 16.4759 51.2846 16.4136 51.0512C16.3512 50.8178 16.3839 50.5692 16.5045 50.3599C17.6866 48.3242 18.9872 45.7849 19.0898 45.1588C19.0748 45.0803 19.0455 44.9532 19.0166 44.8293C18.678 43.3657 17.6481 38.9108 21.9293 37.3575C24.16 36.5488 28.1367 37.2571 33.1706 38.1534C37.9176 38.9984 43.8232 40.0598 49.6386 40.0123C51.1636 40.0021 52.7308 39.977 54.2472 39.9524C64.9976 39.7799 75.1524 39.6175 79.7301 44.1188C84.9514 49.2579 88.9448 65.6703 83.8238 75.4245C78.696 85.1883 57.7379 86.6476 56.8491 86.7048C56.8261 86.7064 56.8064 86.7069 56.7866 86.7069Z" fill="#021168"/>
<path d="M21.6827 46.1043C20.7746 46.1043 19.8895 45.7042 19.74 45.6337C19.5987 45.5619 19.4909 45.4378 19.4397 45.2878C19.3885 45.1378 19.3977 44.9737 19.4655 44.8304C19.5334 44.6872 19.6544 44.576 19.8029 44.5205C19.9513 44.465 20.1156 44.4697 20.2608 44.5334C20.7623 44.7695 21.9246 45.1151 22.3151 44.6781C22.8551 44.074 24.3326 40.0844 25.137 37.7144C25.1889 37.5615 25.2993 37.4355 25.4441 37.3641C25.5888 37.2927 25.756 37.2817 25.9089 37.3335C26.0617 37.3854 26.1877 37.4958 26.2592 37.6406C26.3306 37.7853 26.3416 37.9525 26.2897 38.1054C25.9287 39.1689 24.0858 44.5232 23.2226 45.489C22.8087 45.9548 22.2393 46.1043 21.6827 46.1043Z" fill="#021168"/>
<path d="M35.5212 45.6534H35.4677C33.2633 45.5845 32.1832 40.5966 31.9049 39.0694C31.876 38.9107 31.9112 38.747 32.003 38.6142C32.0948 38.4815 32.2355 38.3907 32.3942 38.3617C32.553 38.3327 32.7167 38.368 32.8494 38.4598C32.9822 38.5515 33.073 38.6922 33.102 38.851C33.5827 41.4726 34.6863 44.411 35.5057 44.4366H35.526C36.6002 44.4366 38.8302 41.8161 40.0791 39.9417C40.1686 39.8071 40.308 39.7136 40.4664 39.6818C40.6249 39.6499 40.7895 39.6823 40.9241 39.7719C41.0587 39.8614 41.1522 40.0007 41.1841 40.1592C41.2159 40.3177 41.1835 40.4823 41.094 40.6169C40.5305 41.4625 37.63 45.6534 35.5212 45.6534Z" fill="#021168"/>
<path d="M55.0016 47.2348C53.5059 47.2348 51.6311 44.001 50.2802 41.1743C50.2457 41.1022 50.2258 41.024 50.2216 40.9442C50.2174 40.8644 50.2289 40.7845 50.2555 40.7092C50.2822 40.6338 50.3234 40.5645 50.3768 40.5051C50.4303 40.4456 50.4949 40.3973 50.567 40.3629C50.6391 40.3284 50.7173 40.3085 50.7971 40.3043C50.8769 40.3001 50.9568 40.3116 51.0321 40.3383C51.1075 40.3649 51.1768 40.4061 51.2362 40.4596C51.2956 40.513 51.344 40.5776 51.3784 40.6497C52.694 43.4022 54.3531 45.8871 54.9572 46.019C55.6666 45.7124 57.3657 42.9562 58.5569 40.5333C58.6313 40.3946 58.7565 40.2901 58.9064 40.2418C59.0562 40.1934 59.2189 40.2051 59.3603 40.2743C59.5017 40.3434 59.6108 40.4647 59.6647 40.6126C59.7186 40.7605 59.713 40.9235 59.6492 41.0674C59.0082 42.3713 56.8033 46.6643 55.3279 47.1771C55.2232 47.2146 55.1128 47.2341 55.0016 47.2348Z" fill="#021168"/>
<path d="M72.5587 48.3693C70.602 48.3693 68.9911 43.4866 68.3762 41.3361C68.3543 41.2592 68.3477 41.1788 68.3568 41.0994C68.3659 41.02 68.3906 40.9432 68.4294 40.8733C68.4682 40.8035 68.5204 40.7419 68.583 40.6922C68.6456 40.6426 68.7174 40.6057 68.7942 40.5837C68.8711 40.5618 68.9515 40.5552 69.0309 40.5643C69.1103 40.5734 69.1871 40.5981 69.257 40.6369C69.3268 40.6757 69.3883 40.7279 69.438 40.7905C69.4877 40.8531 69.5246 40.9249 69.5466 41.0017C70.5508 44.5143 72.016 47.2374 72.5533 47.1525C73.5634 46.9922 75.5659 44.6366 76.6663 43.0149C76.7589 42.8863 76.898 42.7989 77.054 42.7713C77.21 42.7436 77.3707 42.7778 77.5019 42.8666C77.6331 42.9555 77.7244 43.092 77.7566 43.2471C77.7888 43.4023 77.7593 43.5639 77.6742 43.6976C77.1828 44.4224 74.6381 48.0536 72.7461 48.3543C72.6842 48.3644 72.6215 48.3694 72.5587 48.3693Z" fill="#021168"/>
<path d="M40.8096 61.2295C40.6716 61.2295 40.5354 61.1983 40.4112 61.1381C39.9187 60.8988 35.6262 58.7189 36.4371 55.8297C37.0364 53.6931 41.0009 53.7625 43.5194 54.3341C46.2073 54.9414 47.6083 56.1059 47.3653 57.5294C46.8846 60.3305 41.9169 61.0986 40.9271 61.2247C40.8881 61.2288 40.8489 61.2304 40.8096 61.2295ZM40.4891 55.8153C38.9289 55.8153 38.2521 56.1807 38.1923 56.3243C37.9001 57.3649 39.8305 58.7606 40.9699 59.3733C42.8143 59.0907 45.3847 58.2601 45.5636 57.218C45.4413 56.828 43.5798 55.9547 41.0324 55.8292C40.8401 55.819 40.659 55.8153 40.4891 55.8153Z" fill="#021168"/>
<path d="M30.9314 59.5315C33.4681 62.6878 36.5518 64.4676 40.2903 62.0196C40.4528 61.9178 40.6434 61.8704 40.8346 61.8842C41.0258 61.8981 41.2077 61.9724 41.3538 62.0965C41.4302 62.1622 41.5386 62.2487 41.646 62.3278C43.1678 63.4549 45.0031 64.2507 46.9042 64.3415C49.0435 64.4377 51.0423 63.4821 52.7826 62.2012C49.8004 66.7949 44.1399 66.8211 40.1648 63.4671L41.2475 63.5612C36.9113 66.2971 32.5146 64.1792 30.9314 59.5315Z" fill="#021168"/>
<path d="M40.7692 63.7031H40.7559C40.5138 63.6992 40.2832 63.5993 40.1147 63.4254C39.9462 63.2515 39.8537 63.0179 39.8574 62.7758L39.8969 60.3021C39.9051 60.0631 40.0068 59.8367 40.1801 59.6719C40.3534 59.507 40.5845 59.4167 40.8237 59.4205C41.0629 59.4243 41.291 59.5218 41.459 59.6921C41.6271 59.8624 41.7215 60.0918 41.7221 60.331L41.6826 62.8046C41.6788 63.0443 41.5809 63.2729 41.41 63.441C41.2391 63.6091 41.0089 63.7033 40.7692 63.7031Z" fill="#021168"/>
<path d="M34.361 68.118C34.2535 68.116 34.1473 68.0947 34.0475 68.055C33.751 67.9482 32.8488 67.6277 32.4856 62.5217C32.4799 62.442 32.4901 62.3619 32.5153 62.2861C32.5406 62.2103 32.5806 62.1402 32.633 62.0798C32.6854 62.0195 32.7491 61.97 32.8206 61.9343C32.8921 61.8986 32.9699 61.8773 33.0497 61.8716C33.2107 61.8602 33.3696 61.9133 33.4915 62.019C33.5519 62.0714 33.6013 62.1352 33.6371 62.2067C33.6728 62.2782 33.6941 62.356 33.6997 62.4357C33.8327 64.3004 34.1457 66.1214 34.4272 66.7623C34.8279 66.3222 35.5201 65.0418 36.0468 63.7316C36.1095 63.5853 36.2269 63.4694 36.3739 63.4086C36.521 63.3479 36.686 63.347 36.8336 63.4064C36.9812 63.4657 37.0998 63.5805 37.1638 63.7261C37.2279 63.8717 37.2325 64.0367 37.1765 64.1856C35.7979 67.6133 34.8631 68.118 34.361 68.118Z" fill="#021168"/>
<path d="M49.8368 69.2024C49.7443 69.2021 49.6522 69.1912 49.5622 69.1698C48.299 68.8728 46.7681 66.1877 46.329 65.372C46.2911 65.3017 46.2675 65.2245 46.2594 65.145C46.2513 65.0655 46.259 64.9852 46.282 64.9087C46.3049 64.8322 46.3428 64.7609 46.3933 64.699C46.4438 64.637 46.506 64.5857 46.5763 64.5478C46.6467 64.5099 46.7238 64.4863 46.8033 64.4782C46.8828 64.4701 46.9631 64.4778 47.0397 64.5008C47.1162 64.5237 47.1874 64.5615 47.2494 64.6121C47.3113 64.6626 47.3627 64.7248 47.4005 64.7951C48.2311 66.3367 49.339 67.8008 49.7919 67.9717C50.2118 67.5444 50.5451 65.5953 50.5884 64.019C50.5897 63.9389 50.6071 63.8598 50.6394 63.7865C50.6717 63.7132 50.7183 63.647 50.7765 63.592C50.8347 63.5369 50.9034 63.494 50.9784 63.4658C51.0534 63.4376 51.1332 63.4246 51.2133 63.4277C51.2932 63.4298 51.3719 63.4477 51.4449 63.4803C51.5179 63.5128 51.5838 63.5595 51.6387 63.6175C51.6937 63.6756 51.7367 63.7439 51.7652 63.8185C51.7938 63.8932 51.8074 63.9727 51.8052 64.0526C51.7785 65.0082 51.6032 68.1897 50.4431 69.0085C50.2664 69.1353 50.0542 69.2031 49.8368 69.2024Z" fill="#021168"/>
<path d="M41.9762 78.965C39.6997 78.965 37.6779 78.1745 36.1913 76.6821C34.8271 75.312 34.0644 73.4515 34.2486 71.9425C34.5413 69.5442 34.2518 67.29 34.2486 67.2676C34.2274 67.1076 34.2706 66.9457 34.3687 66.8175C34.4668 66.6894 34.6118 66.6054 34.7718 66.5842C34.9318 66.5629 35.0937 66.6061 35.2219 66.7042C35.3501 66.8023 35.434 66.9474 35.4553 67.1074C35.4681 67.2056 35.7678 69.5383 35.4553 72.0889C35.3399 73.0327 35.7891 74.5535 37.0529 75.8221C38.5283 77.3033 40.6558 77.9646 43.0429 77.682C48.862 76.9961 49.5676 69.7658 49.6499 68.3236C49.6591 68.1625 49.7319 68.0116 49.8524 67.9042C49.912 67.851 49.9816 67.81 50.057 67.7837C50.1325 67.7574 50.2124 67.7462 50.2922 67.7507C50.372 67.7553 50.4501 67.7755 50.5221 67.8103C50.594 67.845 50.6585 67.8936 50.7117 67.9533C50.7649 68.0129 50.8058 68.0824 50.8321 68.1579C50.8584 68.2334 50.8696 68.3133 50.8651 68.3931C50.7732 70.0057 49.9698 78.0906 43.1856 78.8908C42.7843 78.9393 42.3804 78.9641 41.9762 78.965Z" fill="#021168"/>
<path d="M35.3288 75.0314C35.23 75.0314 35.1326 75.0073 35.0452 74.9612C34.9578 74.9151 34.8829 74.8484 34.827 74.7669C34.7712 74.6854 34.736 74.5914 34.7246 74.4933C34.7132 74.3951 34.7259 74.2956 34.7615 74.2035C34.8149 74.0603 36.1503 70.6882 38.7842 69.8768C40.7606 69.2657 42.0575 69.7737 42.6232 70.1022C43.7289 69.7187 47.437 68.7252 50.0784 71.529C50.1845 71.6473 50.2401 71.8024 50.2334 71.9611C50.2267 72.1199 50.1582 72.2697 50.0426 72.3787C49.9269 72.4877 49.7732 72.5471 49.6144 72.5443C49.4555 72.5416 49.304 72.4768 49.1922 72.3638C46.7095 69.7278 42.9426 71.2752 42.7824 71.3425C42.6763 71.3868 42.5599 71.4002 42.4465 71.3813C42.3331 71.3624 42.2274 71.3119 42.1414 71.2357C42.1083 71.2085 41.1334 70.4243 39.1442 71.0381C37.0739 71.6791 35.9089 74.6169 35.8977 74.6447C35.8527 74.7589 35.7744 74.8569 35.6729 74.9259C35.5714 74.9949 35.4515 75.0316 35.3288 75.0314Z" fill="#021168"/>
<path d="M42.9097 71.2662C41.7474 71.9809 41.0877 73.3296 40.8089 74.6367C40.7021 73.0968 41.0845 71.4425 42.1785 70.293C42.9615 69.4271 43.9625 70.8191 42.9097 71.2662Z" fill="#021168"/>
<path d="M30.8364 25.7088C29.6116 25.7088 28.9711 23.9995 28.9711 22.3131C28.9711 20.6268 29.6121 18.917 30.8364 18.917C32.0607 18.917 32.7011 20.6263 32.7011 22.3131C32.7011 24 32.0607 25.7088 30.8364 25.7088ZM30.8305 20.1338C30.6462 20.1819 30.1895 20.981 30.1895 22.3137C30.1895 23.6464 30.6473 24.4449 30.8428 24.493C31.0271 24.4449 31.4838 23.6453 31.4838 22.3137C31.4838 20.982 31.026 20.1813 30.8305 20.1338Z" fill="#021168"/>
<path d="M60.8117 26.8674C59.5874 26.8674 58.9469 25.1582 58.9469 23.4718C58.9469 21.7855 59.5879 20.0757 60.8117 20.0757C62.0354 20.0757 62.6769 21.785 62.6769 23.4718C62.6769 25.1587 62.0365 26.8674 60.8117 26.8674ZM60.8063 21.292C60.622 21.3406 60.1653 22.1397 60.1653 23.4718C60.1653 24.804 60.6231 25.6031 60.8186 25.6512C61.0029 25.6031 61.4596 24.804 61.4596 23.4718C61.4596 22.1397 61.0007 21.34 60.8063 21.292Z" fill="#021168"/>
<path d="M46.0339 12.7984C48.7854 7.75974 43.7905 4.29255 40.5727 7.11929C37.355 9.94603 39.4419 13.4885 39.4419 13.4885L46.0339 12.7984Z" fill="#021168"/>
<path d="M83.0736 14.5499C83.487 12.1264 79.9509 9.04327 76.7316 11.0063C73.5122 12.9693 73.6062 16.4258 73.6062 16.4258L78.3602 18.0731L83.0736 14.5499Z" fill="#021168"/>
<path d="M44.0492 9.79688C44.5581 9.79688 44.9706 9.25019 44.9706 8.57581C44.9706 7.90143 44.5581 7.35474 44.0492 7.35474C43.5403 7.35474 43.1278 7.90143 43.1278 8.57581C43.1278 9.25019 43.5403 9.79688 44.0492 9.79688Z" fill="white"/>
<path d="M76.9688 14.9204C77.4777 14.9204 77.8902 14.3737 77.8902 13.6993C77.8902 13.025 77.4777 12.4783 76.9688 12.4783C76.4599 12.4783 76.0474 13.025 76.0474 13.6993C76.0474 14.3737 76.4599 14.9204 76.9688 14.9204Z" fill="white"/>
<path d="M98.1425 49.9093C100.439 48.9697 103.924 49.0616 104.659 51.9668C105.365 54.5414 103.926 56.3191 101.871 57.5824C101.83 57.6112 101.796 57.6508 101.818 57.6192C101.87 57.5463 101.906 57.4637 101.926 57.3764C101.945 57.289 101.947 57.1987 101.931 57.1107L101.925 57.0835C101.926 57.0771 101.926 57.0706 101.925 57.0643C101.925 57.0546 101.909 57.0354 101.922 57.0568C102.031 57.2811 102.203 57.5076 102.384 57.764C102.882 58.4803 103.399 59.179 103.779 60.0074C104.657 61.9202 104.599 64.1738 102.578 65.3014C102.066 65.6091 101.471 65.826 100.896 65.9787C100.367 66.1203 98.986 66.4931 98.4657 66.6021C98.2259 66.6528 97.8568 66.7442 97.611 66.7789C97.0667 66.8601 96.9792 66.0482 97.5357 66.0215C97.4962 66.0215 97.4877 66.0215 97.4914 66.0215H97.4855C97.4823 66.0215 97.4882 66.0177 97.4882 66.0177C97.5055 66.0065 97.5233 65.9961 97.5416 65.9868C98.6884 65.3244 99.9117 64.7945 101.099 64.2144C102.492 63.4618 102.687 62.5837 102.109 61.1596C101.682 60.0443 100.762 59.1229 100.18 58.0268C100.028 57.7277 99.9133 57.3399 99.9832 56.9932C100.041 56.7247 100.175 56.4785 100.368 56.2839C101.055 55.6573 101.917 55.3453 102.461 54.6905C103.27 53.8145 103.363 52.2195 102.536 51.3301C102.269 51.0497 101.869 50.8392 101.41 50.7084C100.482 50.4589 99.3657 50.4733 98.3322 50.6261C97.9 50.6913 97.736 50.0684 98.1399 49.9098L98.1425 49.9093Z" fill="#021168"/>
<path d="M44.1116 56.1689C44.0726 56.5027 43.0262 56.6555 41.7747 56.5107C40.5232 56.366 39.5393 55.9766 39.5777 55.6433C39.6162 55.3099 40.6626 55.1566 41.9146 55.3019C43.1667 55.4472 44.1501 55.835 44.1116 56.1689Z" fill="white"/>
<path d="M60.0129 47.6914C58.0611 48.263 55.7466 49.281 53.6565 50.3376C53.3451 50.4978 53.0566 50.6271 52.7874 50.7366C52.709 51.3018 52.6973 51.8743 52.7527 52.4422C53.0577 55.6044 55.3038 57.9749 57.7695 57.7372C60.2351 57.4995 61.9893 54.746 61.6816 51.5811C61.5347 50.0171 60.9055 48.6481 60.0129 47.6914Z" fill="#021168"/>
<path d="M53.2743 49.5818C50.7349 50.867 50.1922 50.311 49.2922 49.3901L49.164 49.2592C49.164 49.2592 49.0037 52.1031 51.073 52.0192C51.854 51.9877 52.8106 51.7163 54.0397 51.0946C57.939 49.1235 61.113 48.0189 62.7582 48.0686C62.7582 48.0686 61.0307 46.3983 57.9706 47.488C56.2191 48.1455 54.4911 48.966 53.2743 49.5818Z" fill="#021168"/>
<path d="M55.2564 50.6875C54.633 50.7479 54.1881 51.4449 54.2671 52.2451C54.3462 53.0453 54.9124 53.6446 55.5357 53.5842C56.1591 53.5239 56.604 52.8268 56.5255 52.0272C56.447 51.2275 55.8803 50.6293 55.2564 50.6875Z" fill="white"/>
<path d="M27.7842 44.6738C29.736 45.2454 32.0505 46.2635 34.1406 47.3206C34.452 47.4808 34.7405 47.6095 35.0097 47.719C35.0886 48.2842 35.1004 48.8567 35.0449 49.4246C34.7399 52.5868 32.4938 54.9573 30.0282 54.7196C27.5625 54.4819 25.8084 51.7284 26.1155 48.5635C26.2651 47.0017 26.8922 45.631 27.7842 44.6738Z" fill="#021168"/>
<path d="M34.5223 46.5643C37.0617 47.8495 37.6044 47.2934 38.5044 46.3731L38.6332 46.2422C38.6332 46.2422 38.7934 49.0855 36.7236 49.0016C35.9432 48.9706 34.986 48.6988 33.7569 48.077C29.8576 46.106 26.6836 45.0019 25.0384 45.051C25.0384 45.051 26.7664 43.3813 29.826 44.4704C31.5775 45.1279 33.3055 45.9484 34.5223 46.5643Z" fill="#021168"/>
<path d="M32.5402 47.6722C33.1641 47.732 33.6086 48.429 33.53 49.2292C33.4515 50.0294 32.8848 50.6287 32.2609 50.5683C31.637 50.508 31.1926 49.8109 31.2711 49.0113C31.3496 48.2116 31.9164 47.6118 32.5402 47.6722Z" fill="white"/>
</svg>
