  <svg width="253" height="134" viewBox="0 0 253 134" fill="none" xmlns="http://www.w3.org/2000/svg">
                    <g clip-path="url(#clip0_8322_5052)">
                    <path d="M22.1682 68.8932C9.79383 49.2243 3.24751 26.4509 3.28815 3.21313" stroke="#FBA11D" stroke-width="2.95669" stroke-miterlimit="10"/>
                    <path d="M77.0107 116.286C54.4191 106.302 35.3228 89.7998 22.1685 68.8945" stroke="#23AAAC" stroke-width="4.43504" stroke-miterlimit="10"/>
                    <path d="M177.347 115.99C161.564 123.036 144.482 126.702 127.197 126.753C109.913 126.804 92.8096 123.238 76.9855 116.285" stroke="#D45B07" stroke-width="8.87008" stroke-miterlimit="10"/>
                    <path d="M230.539 70.4097C217.561 90.3899 199.103 106.21 177.372 115.978" stroke="#FB5352" stroke-width="7.39173" stroke-miterlimit="10"/>
                    <path d="M250.392 3.21313C250.433 27.0631 243.535 50.41 230.539 70.4081" stroke="#8EC627" stroke-width="1.47835" stroke-miterlimit="10"/>
                    <path d="M252.572 3.23824C252.574 3.67233 252.448 4.09738 252.208 4.4595C251.969 4.82163 251.628 5.10453 251.227 5.27234C250.827 5.44015 250.386 5.48533 249.96 5.40214C249.534 5.31895 249.142 5.11114 248.834 4.80505C248.526 4.49896 248.316 4.10836 248.231 3.68278C248.145 3.2572 248.188 2.8158 248.353 2.4145C248.519 2.01321 248.8 1.6701 249.16 1.42867C249.521 1.18724 249.946 1.05836 250.38 1.05835C250.959 1.05834 251.515 1.28761 251.925 1.69607C252.336 2.10453 252.569 2.65897 252.572 3.23824V3.23824Z" fill="white" stroke="#C442F0" stroke-width="1.47835" stroke-miterlimit="10"/>
                    <path d="M6.47812 3.23905C6.47812 3.87967 6.28815 4.50591 5.93223 5.03857C5.57632 5.57123 5.07043 5.98639 4.47857 6.23154C3.88671 6.4767 3.23546 6.54085 2.60714 6.41587C1.97883 6.29089 1.40167 5.98239 0.948678 5.5294C0.495688 5.07641 0.18722 4.49927 0.0622402 3.87095C-0.0627394 3.24264 0.00139985 2.59138 0.246556 1.99952C0.491712 1.40766 0.906876 0.901784 1.43954 0.545872C1.97219 0.189961 2.59843 0 3.23906 0C4.09811 0 4.92196 0.341257 5.5294 0.948697C6.13684 1.55614 6.47812 2.38 6.47812 3.23905V3.23905Z" fill="#FBA11D"/>
                    <path d="M234.973 70.4337C234.973 71.3063 234.714 72.1592 234.229 72.8845C233.744 73.6099 233.055 74.175 232.248 74.5083C231.442 74.8417 230.555 74.9283 229.699 74.7571C228.844 74.586 228.058 74.1649 227.442 73.547C226.826 72.9292 226.407 72.1424 226.238 71.2863C226.069 70.4302 226.158 69.5433 226.494 68.7379C226.83 67.9325 227.397 67.2447 228.123 66.7618C228.85 66.2788 229.704 66.0222 230.576 66.0247C231.155 66.0247 231.727 66.1388 232.262 66.3605C232.796 66.5823 233.281 66.9072 233.689 67.3168C234.098 67.7264 234.422 68.2125 234.642 68.7474C234.862 69.2823 234.975 69.8553 234.973 70.4337V70.4337Z" fill="white" stroke="#FB5352" stroke-width="1.47835" stroke-miterlimit="10"/>
                    <path d="M26.9839 71.0497C26.9839 71.7805 26.7672 72.4948 26.3612 73.1024C25.9552 73.71 25.3782 74.1836 24.7031 74.4632C24.0279 74.7429 23.2851 74.816 22.5684 74.6735C21.8516 74.5309 21.1933 74.179 20.6766 73.6623C20.1598 73.1456 19.808 72.4872 19.6654 71.7705C19.5229 71.0538 19.596 70.3109 19.8757 69.6358C20.1553 68.9607 20.6289 68.3836 21.2365 67.9777C21.8441 67.5717 22.5584 67.355 23.2892 67.355C24.2691 67.355 25.2088 67.7442 25.9017 68.4371C26.5946 69.13 26.9839 70.0698 26.9839 71.0497V71.0497Z" fill="white" stroke="#FBA11D" stroke-width="2.21752" stroke-miterlimit="10"/>
                    <path d="M183.123 115.99C183.126 117.089 182.802 118.164 182.193 119.079C181.584 119.994 180.718 120.708 179.703 121.13C178.688 121.552 177.571 121.664 176.493 121.451C175.414 121.238 174.424 120.71 173.646 119.934C172.868 119.158 172.337 118.168 172.122 117.09C171.907 116.012 172.016 114.895 172.436 113.879C172.856 112.864 173.568 111.995 174.482 111.384C175.395 110.774 176.47 110.448 177.569 110.448C179.04 110.448 180.451 111.031 181.492 112.07C182.533 113.109 183.12 114.519 183.123 115.99V115.99Z" fill="white" stroke="#D45B07" stroke-width="1.86272" stroke-miterlimit="10"/>
                    <path d="M81.5797 115.99C81.5797 116.881 81.3153 117.753 80.82 118.494C80.3247 119.235 79.6207 119.813 78.7971 120.154C77.9734 120.495 77.0671 120.584 76.1927 120.41C75.3183 120.237 74.5152 119.807 73.8848 119.177C73.2544 118.546 72.8251 117.743 72.6511 116.869C72.4772 115.995 72.5665 115.088 72.9076 114.265C73.2488 113.441 73.8265 112.737 74.5678 112.242C75.3091 111.746 76.1806 111.482 77.0721 111.482C78.2676 111.482 79.4141 111.957 80.2594 112.802C81.1048 113.648 81.5797 114.794 81.5797 115.99Z" fill="white" stroke="#23AAAC" stroke-width="2.39492" stroke-miterlimit="10"/>
                    </g>
                    <defs>
                    <clipPath id="clip0_8322_5052">
                    <rect width="252.57" height="134" fill="white"/>
                    </clipPath>
                    </defs>
                    </svg>