<svg width="283" height="465" viewBox="0 0 283 465" fill="none" xmlns="http://www.w3.org/2000/svg">
<path d="M74.3294 334.282C74.3294 334.282 74.7148 417.707 71.7281 446.982C71.7281 446.982 82.77 462.999 107.975 450.346C107.975 450.346 101.547 375.005 103.591 337.269C103.553 337.968 92.6248 319.854 74.3294 334.282Z" fill="url(#paint0_linear_1_2834)"/>
<path d="M263.267 338.208C263.305 337.509 263.343 336.81 262.644 336.772C259.812 337.32 256.98 337.867 254.847 338.452C242.274 337.771 229.852 334.295 219.092 326.003C216.412 323.755 213.033 321.469 209.692 318.485C221.453 321.225 233.365 321.169 242.56 319.564C243.258 319.602 243.334 318.204 242.673 317.468C237.123 316.466 231.611 314.766 226.06 313.764C235.217 312.859 243.127 309.082 247.81 300.224C248.547 299.563 247.188 298.789 247.188 298.789C240.787 300.545 234.463 300.903 227.478 300.525C211.677 294.763 193.537 280.464 184.325 269.452C183.042 267.28 181.022 265.769 179.739 263.596C192.425 262.181 207.397 257.385 214.327 245.845C215.837 243.825 214.63 240.255 211.798 240.802C210.363 241.425 208.928 242.049 207.493 242.672C206.096 242.596 204.661 243.219 203.963 243.181C193.485 242.614 182.46 239.213 172.946 233.792C177.175 233.32 181.442 232.149 185.086 229.543C187.219 228.958 188.654 228.335 190.165 226.314C190.901 225.653 190.24 224.916 189.542 224.879C189.542 224.879 189.542 224.879 190.278 224.218C191.015 223.557 190.354 222.82 189.655 222.782C184.728 223.216 180.537 222.989 176.384 222.063C171.608 219.702 167.606 215.981 163.604 212.26C174.044 213.526 185.258 213.433 193.206 208.957C193.905 208.995 193.905 208.995 194.603 209.033C196 209.108 196.775 207.749 196.152 206.313C196.888 205.652 197.625 204.991 198.323 205.029C199.059 204.368 198.437 202.932 197.738 202.895C195.643 202.781 192.849 202.63 190.753 202.516C177.709 197.605 165.59 188.538 154.169 179.509C145.429 172.727 139.559 164.7 134.425 156.011C148.282 158.865 163.064 157.563 173.108 153.201C173.807 153.238 173.844 152.54 173.184 151.803C173.184 151.803 173.184 151.803 172.485 151.765C162.083 149.8 152.136 139.449 144.094 132.706C141.414 130.458 139.432 128.248 137.45 126.038C152.287 136.654 170.108 143.927 180.492 133.275C181.229 132.614 181.266 131.915 180.568 131.878C127.898 121.315 100.776 65.8792 83.4721 10.2741C82.925 7.44094 79.4325 7.25177 78.5447 10.708C78.469 12.1057 78.3933 13.5033 78.3176 14.9009C76.9584 14.1265 74.7872 15.4106 73.9752 17.4692C68.308 44.4963 62.3173 90.4293 33.8851 98.0007C33.1865 97.9628 33.8094 99.3983 33.8094 99.3983C38.0761 98.2276 43.0792 96.396 47.4973 92.4301C36.187 107.237 19.8358 124.574 2.95809 125.762C1.56108 125.686 1.40968 128.482 2.80669 128.557C14.7191 128.502 26.0845 125.613 36.2042 119.853C27.8772 131.317 18.2289 141.308 6.71214 146.992C4.54092 148.276 5.78654 151.147 7.9199 150.561C20.0595 146.313 31.614 139.93 41.2624 129.939C40.4503 131.998 39.6761 133.358 38.1655 135.379C37.3913 136.738 35.9186 138.06 35.1066 140.119C24.4569 155.662 9.22056 165.35 -7.69499 167.237C-9.79051 167.124 -9.28125 170.656 -7.88424 170.731C-1.63554 171.771 3.99037 171.375 9.69196 169.581C0.157185 177.475 -11.3596 183.159 -22.46 181.156C-23.857 181.08 -23.9705 183.177 -22.6114 183.951C-6.81067 189.713 6.76376 184.841 20.5653 175.777C3.98694 197.307 -17.1781 212.981 -43.7592 212.242C-45.1562 212.167 -45.232 213.564 -45.3077 214.962C-47.4032 214.848 -48.2531 217.606 -46.2332 219.117C-30.6597 229.072 -13.9334 230.679 3.02003 228.093C1.54732 229.415 0.0367491 231.435 -2.13447 232.72C-17.5601 245.901 -34.1935 255.514 -53.2424 257.986C-53.9409 257.948 -54.6773 258.609 -54.753 260.007C-56.8485 259.894 -58.2455 259.818 -60.3789 260.403C-63.1729 260.252 -63.4378 265.144 -60.6817 265.994C-41.3884 271.945 -21.0561 271.644 -1.15723 266.414C-2.66779 268.435 -4.21619 271.155 -5.72676 273.175L-6.46313 273.836C-17.4706 283.052 -30.233 285.866 -41.9011 294.345C-42.6375 295.006 -42.0525 297.14 -41.3162 296.479C-32.0085 292.778 -22.7387 289.776 -14.0916 285.338C-17.887 290.74 -21.6444 295.442 -26.1383 300.806C-38.8456 315.537 -57.5194 336.953 -75.1714 339.501C-76.5684 339.426 -77.3426 340.785 -77.4183 342.183C-80.1744 341.333 -82.1943 339.822 -84.9126 338.273C-86.2718 337.498 -87.7823 339.519 -87.1595 340.955C-78.1753 356.159 -54.2747 354.651 -40.191 353.311C-33.1681 352.99 -23.9361 350.687 -15.3269 346.948C-21.9541 352.897 -29.8648 356.673 -37.077 360.488C-38.5118 361.111 -37.9647 363.944 -36.5298 363.321C-33.6601 362.075 -30.7904 360.829 -27.9207 359.582C-40.4009 370.12 -55.448 376.314 -70.268 378.315L-70.9665 378.277C-72.3635 378.201 -73.7227 377.427 -75.1197 377.351C-76.4789 376.577 -77.3288 379.334 -75.9696 380.109C-46.333 402.039 -4.6291 395.186 24.7116 370.843C20.9163 376.245 16.4603 380.91 10.7208 383.402C10.0223 383.364 9.94663 384.762 9.90878 385.461C4.90568 387.292 -0.0974124 389.124 -5.83687 391.617C-8.00808 392.901 -7.53666 397.132 -5.40329 396.546C13.6835 393.375 32.7324 390.902 50.14 379.93C56.6915 375.379 62.5823 370.091 68.511 364.104C64.64 370.903 60.769 377.702 56.1994 384.464C56.1616 385.163 56.1237 385.861 56.8601 385.2C65.8856 373.774 75.6096 362.386 81.294 347.976C81.0669 352.169 80.8398 356.362 80.6127 360.555C79.3086 371.698 79.9865 385.051 76.5869 396.081C74.9627 400.198 73.3765 403.617 71.0539 407.696C71.016 408.395 70.9782 409.094 71.7145 408.433C77.4918 405.241 81.2115 401.238 85.0446 395.137C91.8989 384.996 100.735 377.064 106.891 366.884C108.402 364.863 109.214 362.805 110.762 360.085C109.761 365.638 108.061 371.153 105.663 376.63C105.625 377.328 106.285 378.065 106.323 377.366C110.969 369.207 113.518 360.935 115.445 351.227C125.713 368.604 138.379 380.504 152.328 394.576C152.989 395.313 153.763 393.953 153.065 393.915C151.743 392.442 151.121 391.007 149.799 389.533C151.781 391.743 153.763 393.953 156.444 396.201C157.104 396.938 157.841 396.277 157.18 395.54C152.16 384.755 148.574 373.347 144.951 362.638C175.118 374.785 214.44 386.026 239.514 362.853C240.987 361.531 240.44 358.698 238.307 359.284C235.475 359.831 232.643 360.379 229.849 360.227C222.127 360.51 215.218 358.734 208.384 355.56C225.148 356.468 242.14 353.183 254.035 340.511C255.47 339.888 256.244 338.528 257.679 337.905C263.191 339.605 263.229 338.906 263.267 338.208C263.267 338.208 262.568 338.17 263.267 338.208Z" fill="url(#paint1_linear_1_2834)"/>
<path opacity="0.5" d="M-21.29 185.425C-5.48929 191.187 8.08511 186.315 21.8866 177.25C15.1459 185.296 8.40514 193.341 0.380917 199.214C-3.30086 202.519 -7.60546 204.389 -11.9479 206.957C-9.81452 206.372 -6.98265 205.824 -4.88713 205.938C2.21148 204.219 8.61158 202.463 15.1252 198.611C21.601 195.457 34.7798 184.957 39.9721 179.632C36.4211 193.457 22.7503 213.041 24.223 211.719C38.8366 200.596 43.4061 193.835 51.1482 180.237C51.5611 198.482 49.8406 217.312 51.6506 235.633C51.537 237.729 50.6493 241.186 52.122 239.864C57.3522 233.839 76.0295 186.491 79.1263 181.051C83.2967 194.594 95.9799 219.11 96.0556 217.713C98.7189 207.344 97.229 196.049 96.4376 184.792C105.102 192.971 127.66 203.305 126.377 201.132C111.144 184.888 96.2518 162.355 93.4233 136.97C93.5369 134.874 88.6439 160.541 87.3019 172.383C79.5633 160.049 77.1512 126.977 76.3391 129.036C68.4835 144.731 64.7433 162.05 58.2847 177.82C56.1719 165.09 60.5557 135.891 59.1208 136.514C54.6648 141.179 51.6058 145.919 47.8483 150.622C44.8272 154.663 41.1454 157.968 36.7652 161.235C41.4104 153.076 48.7946 133.151 48.0204 134.511C41.8646 144.691 31.6692 151.848 20.9266 156.172C18.7176 158.155 15.8478 159.401 13.6388 161.384C7.16295 164.538 0.725001 166.993 -6.33576 168.012C-8.43128 167.899 -7.92202 171.431 -6.52501 171.506C-0.276305 172.545 5.34959 172.149 11.0512 170.356C1.51641 178.25 -10.0003 183.934 -21.1007 181.931C-21.8371 182.592 -22.687 185.349 -21.29 185.425Z" fill="url(#paint2_linear_1_2834)"/>
<path opacity="0.6" d="M4.1278 130.031C4.82631 130.069 4.82631 130.069 5.52482 130.106C6.22332 130.144 6.95966 129.483 6.95966 129.483L7.65818 129.521C24.5737 127.634 39.263 115.113 53.8766 103.99C51.5539 108.069 47.8343 112.073 44.8511 115.416C43.3783 116.737 44.6239 119.608 46.7195 119.722C57.3485 117.494 67.6196 108.939 75.1345 99.534C74.1711 104.388 73.2077 109.242 72.9427 114.134C72.8292 116.23 75.5853 117.08 76.3595 115.72C80.9291 108.959 83.4788 100.687 86.6892 93.1511C89.7653 101.027 92.1052 109.565 97.3147 116.855C98.636 118.329 100.071 117.706 100.184 115.609C100.525 109.32 99.4687 102.955 99.1109 96.6274C105.208 100.462 111.23 105.694 115.817 111.55C117.138 113.023 119.385 110.341 118.063 108.868C108.229 96.4204 103.55 79.346 95.9246 64.9156C95.3018 63.4802 93.1684 64.0655 93.0927 65.4631C92.8656 69.656 91.94 73.8112 91.0522 77.2674C87.9004 70.7889 86.844 64.4238 86.5618 56.6989C86.6375 55.3013 84.6177 53.7902 83.8435 55.15C80.0482 60.5514 77.6499 66.0284 73.8545 71.4298C75.2343 58.8889 77.9733 47.1225 79.3153 35.2803C79.7695 26.8945 80.2615 17.8098 80.0172 9.38615C79.2808 10.0471 79.2808 10.0471 79.243 10.7459C79.1673 12.1436 79.0916 13.5412 79.0159 14.9389C78.3174 14.901 77.6189 14.8632 76.9204 14.8254C76.184 15.4863 75.4477 16.1473 74.6735 17.5071C69.0063 44.5342 63.0156 90.4672 34.5833 98.0385C33.8848 98.0007 34.5076 99.4362 34.5076 99.4362C38.7744 98.2655 43.7775 96.4339 48.1956 92.468C42.1534 100.551 34.6762 109.257 26.6142 115.83C19.2885 121.741 12.0763 125.555 4.3549 125.838C3.65639 125.8 3.65638 125.8 3.61853 126.499C2.76862 129.256 2.73079 129.955 4.1278 130.031Z" fill="url(#paint3_linear_1_2834)"/>
<path opacity="0.4" d="M180.943 293.098C174.033 291.322 167.822 289.584 161.612 287.846C154.967 281.178 147.511 276.569 140.866 269.901C134.222 263.234 129.862 253.185 123.218 246.518C121.896 245.044 119.725 246.328 120.31 248.463C120.782 252.694 120.782 252.694 121.253 256.924C121.762 260.456 124.611 272.525 118.118 263.062C115.551 258.718 113.721 253.713 110.418 250.03C109.757 249.293 108.36 249.217 108.284 250.615C105.15 256.753 106.867 263.855 107.923 270.22C104.11 263.005 101.808 253.769 97.2974 246.515C96.6746 245.08 95.2397 245.703 94.5033 246.364C90.5188 255.26 91.3859 265.119 91.5545 274.94C88.554 265.666 86.9505 256.468 84.6107 247.931C83.9879 246.496 82.5909 246.42 81.8167 247.78C76.9822 259.433 74.866 272.634 71.3907 285.062C70.7128 271.709 71.432 258.431 72.1511 245.154C72.2268 243.756 70.1692 242.944 69.395 244.303C57.8954 262.604 49.1142 282.454 41.6543 303.777C42.6006 286.306 44.9438 268.911 47.9477 252.253C48.0613 250.157 46.7021 249.382 45.2294 250.704C36.9402 261.469 30.0481 272.31 20.4755 280.903C13.1119 287.512 5.74833 294.122 -2.31374 300.694C2.21795 294.632 6.74965 288.57 9.96002 281.034C15.493 269.419 23.0837 258.616 27.2575 246.226C27.2954 245.527 26.7104 243.393 25.9362 244.753C17.7984 252.723 9.58495 262.09 0.786523 269.323C0.0501651 269.984 -1.38468 270.607 -2.12104 271.268C-2.89524 272.628 -3.63162 273.289 -4.40582 274.649L-5.14217 275.31C-5.87852 275.971 -5.87853 275.971 -6.61489 276.632C-16.886 285.187 -29.6484 288 -40.5802 295.818C-41.3165 296.479 -40.7316 298.614 -39.9952 297.953C-30.6875 294.251 -21.4177 291.249 -12.7707 286.811C-16.566 292.213 -20.3235 296.915 -24.8173 302.279C-35.2777 314.328 -49.4956 331.08 -64.5806 337.972C-67.4503 339.219 -70.32 340.465 -73.8504 340.975C-73.8504 340.975 -73.8504 340.975 -74.5489 340.937C-54.5572 346.926 -31.7508 339.75 -14.381 329.477C-6.43251 325.002 0.893197 319.091 7.55825 312.443C9.80517 309.761 12.7506 307.117 14.9975 304.435C16.4702 303.113 17.9808 301.093 19.4914 299.072L20.6613 303.34C19.8114 306.098 18.9615 308.855 18.1115 311.613C14.8255 320.546 10.8409 329.442 6.19565 337.6C0.0777054 347.081 -7.36155 355.089 -13.4416 363.871C-14.9522 365.892 -12.9703 368.102 -11.4597 366.081C1.90828 352.087 19.0131 346.705 34.2494 337.017C45.8419 329.936 56.3023 317.887 62.6474 304.213C60.569 316.716 55.7345 328.369 53.6562 340.872C53.5427 342.968 55.5625 344.48 56.3746 342.421C62.4168 334.338 65.7407 324.706 69.7632 315.111C73.7477 306.216 77.1852 294.487 82.529 286.366C86.7372 299.21 87.9622 315.396 96.5507 324.973C97.2114 325.709 99.3069 325.823 99.4204 323.726C100.573 315.378 96.4784 300.438 100.425 292.242C103.464 300.817 108.522 310.903 116.092 313.415C116.79 313.453 118.225 312.83 118.263 312.131C118.717 303.745 115.565 297.267 113.886 289.466C117.189 293.15 120.493 296.833 123.834 299.817C125.193 300.592 125.967 299.232 125.344 297.796C124.873 293.566 123.703 289.297 121.835 284.991C118.758 277.114 120.042 279.287 124.704 283.744C130.688 289.675 136.049 294.171 143.695 295.286C144.393 295.324 145.13 294.663 144.469 293.926C141.241 288.845 138.014 283.764 135.523 278.022C148.264 288.525 163.291 295.646 178.809 293.684C181.528 295.232 181.603 293.835 180.943 293.098Z" fill="url(#paint4_linear_1_2834)"/>
<path opacity="0.4" d="M38.9676 211.116C37.4949 212.438 36.0222 213.76 34.5495 215.082C30.8677 218.387 26.5252 220.955 22.8813 223.561C27.2616 220.294 32.3782 216.366 36.8342 211.701C36.8721 211.003 36.8342 211.701 36.8342 211.701C29.5085 217.612 22.2963 221.427 15.0842 225.242C7.83417 229.755 1.16912 236.403 -5.45808 242.352C-12.7838 248.263 -21.393 252.002 -29.9643 255.042C-34.231 256.212 -38.4978 257.383 -42.7645 258.554C-46.9934 259.026 -51.2601 260.196 -55.4512 259.969C-56.1497 259.931 -56.1875 260.63 -55.489 260.668C-54.092 260.744 -52.7329 261.518 -51.3358 261.594C-51.3737 262.293 -51.4115 262.991 -50.713 263.029C-46.522 263.256 -42.2931 262.785 -38.0642 262.313C-8.57556 261.106 22.0486 238.935 39.6283 211.853C40.3646 211.192 39.7039 210.455 38.9676 211.116Z" fill="url(#paint5_linear_1_2834)"/>
<path opacity="0.4" d="M263.267 338.208C263.305 337.509 263.343 336.81 262.644 336.772C259.812 337.32 256.98 337.867 254.847 338.452C245.766 337.961 236.762 336.071 228.569 332.123C225.152 330.536 221.773 328.251 219.092 326.003C216.412 323.755 213.033 321.469 209.692 318.485C221.453 321.225 233.365 321.169 242.559 319.564C243.258 319.602 243.334 318.204 242.673 317.468C237.123 316.466 231.611 314.766 226.06 313.765C233.121 312.745 238.861 310.253 244.015 305.626C245.488 304.304 246.998 302.283 248.509 300.262C249.245 299.601 247.886 298.827 247.886 298.827C241.486 300.583 235.162 300.941 228.176 300.563C225.42 299.712 222.003 298.126 218.587 296.539C205.656 289.531 192.215 278.99 184.986 270.188C183.703 268.016 181.683 266.505 180.399 264.333C192.387 262.88 206.623 258.745 214.213 247.942C214.251 247.243 214.95 247.281 214.987 246.582C216.498 244.561 215.29 240.992 212.458 241.539C211.023 242.162 209.589 242.785 208.154 243.408C206.757 243.333 205.322 243.956 204.623 243.918C194.146 243.351 183.121 239.95 173.607 234.529C174.305 234.566 175.702 234.642 176.439 233.981C179.271 233.434 181.404 232.848 184.274 231.602C185.01 230.941 185.709 230.979 186.445 230.318C188.578 229.733 190.013 229.109 191.524 227.089C192.26 226.428 191.599 225.691 190.901 225.653C190.901 225.653 190.901 225.653 191.637 224.992C192.374 224.331 191.713 223.595 191.015 223.557C186.087 223.991 181.896 223.764 177.743 222.838C172.967 220.477 168.965 216.755 164.963 213.034C165.662 213.072 165.662 213.072 166.36 213.11C176.8 214.376 186.617 214.207 194.566 209.732C195.264 209.769 195.264 209.769 195.963 209.807C196.661 209.845 197.397 209.184 197.397 209.184C197.435 208.485 197.473 207.786 197.473 207.786C198.21 207.125 198.946 206.464 199.644 206.502C200.381 205.841 199.758 204.406 199.059 204.368C196.964 204.254 194.17 204.103 192.074 203.99C184.504 201.477 177.746 196.906 171.687 192.372C166.288 188.576 160.889 184.779 156.189 181.02C147.449 174.239 141.579 166.211 136.445 157.523C148.206 160.262 161.591 158.885 170.823 156.581C172.258 155.958 173.693 155.335 175.09 155.411C175.789 155.448 175.826 154.75 175.166 154.013C175.166 154.013 175.166 154.013 174.467 153.975C164.065 152.01 154.118 141.659 146.076 134.916C143.396 132.668 141.414 130.458 139.432 128.248C154.269 138.864 172.089 146.137 182.474 135.485C183.211 134.824 183.248 134.125 182.55 134.088C181.153 134.012 179.794 133.237 179.095 133.2C179.095 133.2 179.095 133.2 178.397 133.162C177 133.086 175.603 133.01 174.206 132.935C165.201 131.045 156.309 127.059 148.117 123.111C131.108 113.78 120.803 97.1014 109.062 81.0464C108.402 80.3097 106.967 80.9329 107.589 82.3683C111.251 92.3788 116.384 101.067 122.255 109.095C125.407 115.573 128.558 122.052 132.485 127.171C131.824 126.434 130.465 125.66 129.804 124.923C124.443 120.427 119.158 114.534 113.023 111.398C111.664 110.624 110.852 112.682 111.512 113.419C113.456 116.328 116.099 119.275 118.081 121.484C127.292 132.496 137.24 142.847 148.812 149.081C146.018 148.93 143.224 148.778 140.467 147.928C124.553 144.263 110.924 137.217 99.8061 122.597C99.1455 121.861 97.6728 123.183 98.3334 123.919C101.599 128.301 104.128 133.344 107.431 137.028C120.19 160.147 136.631 179.961 154.847 192.862C139.896 184.343 126.418 174.501 113.828 161.204C112.507 159.73 111.695 161.789 112.317 163.225C116.206 169.042 120.132 174.161 124.058 179.28C135.722 196.732 150.181 214.336 167.19 223.668C155.429 220.928 139.855 210.974 131.266 201.397C130.606 200.66 129.133 201.982 129.794 202.719C132.399 206.364 135.003 210.01 138.344 212.994C141.61 217.376 144.177 221.721 148.877 225.48C154.2 230.674 160.996 234.546 167.131 237.682C145.006 232.279 122.788 215.656 107.046 195.88C105.725 194.407 104.214 196.427 104.837 197.863C106.705 202.169 109.272 206.514 112.575 210.197C115.765 215.977 118.294 221.02 120.785 226.762C120.785 226.762 120.049 227.423 120.748 227.46C122.654 231.068 124.598 233.977 126.504 237.584C121.219 231.691 115.934 225.798 110.648 219.905C109.403 217.034 108.119 214.862 107.572 212.029C107.61 211.33 106.213 211.254 106.175 211.953C107.665 223.247 111.911 235.392 118.442 244.156C119.764 245.63 121.274 243.609 120.651 242.173C119.481 237.905 117.575 234.297 116.367 230.728C121.577 238.018 126.786 245.309 133.431 251.977C136.073 254.924 139.452 257.209 143.53 259.533C148.154 264.689 152.779 269.846 158.102 275.04C166.729 283.918 177.64 289.415 188.589 294.213C198.839 298.974 209.826 303.073 220.964 304.377C202.614 306.888 182.281 307.188 166.784 295.836C166.123 295.099 164.65 296.421 165.273 297.857C167.878 301.502 170.558 303.75 173.239 305.998C185.168 318.558 200.742 328.513 215.844 334.237C219.96 335.862 224.773 337.524 229.587 339.187C203.818 336.389 175.802 336.274 156.757 312.814C156.096 312.078 155.322 313.438 155.284 314.136C157.228 317.045 159.134 320.653 161.079 323.562C161.079 323.562 161.079 323.562 161.041 324.26C170.572 342.298 181.879 353.424 196.207 360.508C192.714 360.319 189.92 360.167 186.428 359.978C176.649 359.448 166.983 356.822 158.13 352.138C150.635 348.227 146.238 338.878 141.727 331.625C141.765 330.926 141.028 331.587 140.991 332.286C140.877 334.382 141.5 335.818 141.424 337.215C141.424 337.215 141.424 337.215 141.386 337.914C144.349 347.887 145.801 359.88 149.386 371.288C147.404 369.078 145.422 366.868 144.177 363.997C134.381 350.851 129.663 334.476 123.548 318.024C123.548 318.024 122.888 317.288 122.85 317.987L122.812 318.685L122.114 318.648C122.076 319.346 122.076 319.346 122.038 320.045C121.924 322.142 121.849 323.539 121.735 325.636C120.62 333.285 117.448 340.122 114.275 346.959C111.065 354.494 107.817 362.729 103.908 370.227C99.961 378.424 94.6551 385.846 88.6507 393.23C90.4641 385.619 92.2775 378.007 92.7695 368.923C93.0173 351.414 94.2285 329.052 86.6791 313.224C86.0184 312.487 85.2821 313.148 85.9427 313.885C85.9049 314.584 85.8292 315.981 86.4898 316.718C85.7913 316.68 85.7913 316.68 85.7535 317.379C86.5827 327.937 79.6149 340.175 74.9318 349.033C70.173 359.288 61.9974 367.957 53.9732 373.83C45.2126 380.364 35.1307 385.425 25.1245 389.088C39.0774 377.229 49.1421 359.551 53.7702 338.776C53.808 338.077 53.1473 337.34 52.411 338.001C50.8626 340.721 49.2763 344.139 47.7279 346.859C47.0672 346.122 46.4066 345.385 44.9717 346.009C25.9779 360.399 7.7582 373.43 -14.3497 380.643C-26.4514 384.192 -39.0624 384.21 -51.5219 381.433C-54.2781 380.583 -56.3736 380.469 -59.1298 379.619C-60.5647 380.242 -61.9617 380.166 -63.3965 380.79L-64.095 380.752C-65.492 380.676 -66.8512 379.902 -68.2482 379.826C-69.6074 379.051 -70.4573 381.809 -69.0981 382.583C-67.739 383.358 -66.3798 384.132 -65.0585 385.606C-36.6296 403.966 0.88324 396.887 28.6755 375.263L27.9392 375.924C24.9559 379.267 22.0105 381.911 18.3666 384.517C17.6681 384.479 17.6302 385.178 17.6302 385.178C17.6302 385.178 17.6302 385.178 16.8938 385.839C14.7226 387.123 13.2499 388.445 11.0787 389.729C7.51047 390.938 4.64073 392.184 1.03465 394.092C0.336138 394.054 0.29829 394.753 -0.438068 395.414C-1.25013 397.472 -0.665145 399.606 1.46822 399.021C17.7231 396.397 33.9401 394.472 49.063 386.881C51.9327 385.634 54.1039 384.35 57.0115 382.405C63.563 377.854 69.4539 372.566 75.3826 366.579C71.5115 373.378 67.6405 380.177 63.0709 386.939C63.0331 387.637 62.9953 388.336 63.7316 387.675C72.0208 376.91 81.7448 365.522 87.3535 352.509C87.0885 357.401 86.8236 362.293 87.2572 367.222C87.0301 371.415 86.7651 376.307 86.5002 381.199C86.1595 387.488 85.1203 393.74 83.4205 399.255C81.7964 403.372 80.2102 406.79 77.8876 410.87C77.8497 411.569 77.8118 412.267 78.5482 411.606C84.3255 408.415 88.0451 404.411 91.8783 398.311C97.1842 390.889 103.113 384.902 108.381 378.179C110.628 375.497 112.176 372.777 114.423 370.096C115.934 368.075 116.746 366.016 118.294 363.296C117.293 368.849 115.593 374.364 113.195 379.841C113.157 380.54 113.818 381.277 113.855 380.578C118.501 372.419 121.05 364.147 122.977 354.439C133.245 371.816 145.911 383.716 159.861 397.788C160.521 398.524 161.295 397.165 160.597 397.127C159.974 395.691 158.653 394.218 157.992 393.481C158.653 394.218 159.974 395.691 160.635 396.428C161.956 397.901 162.617 398.638 163.938 400.111L164.636 400.149C164.636 400.149 165.373 399.488 164.712 398.751C160.353 388.703 156.691 378.693 153.729 368.72C153.767 368.021 153.144 366.586 152.483 365.849C182.65 377.996 221.972 389.237 247.046 366.065C248.519 364.743 247.972 361.91 245.839 362.495C243.705 363.08 240.873 363.628 238.079 363.477C237.419 362.74 237.419 362.74 236.72 362.702C233.228 362.513 229.037 362.286 225.544 362.097C222.089 361.209 219.333 360.359 215.916 358.772C231.982 359.642 247.539 356.98 259.358 345.706C260.094 345.045 260.831 344.384 261.567 343.723C263.002 343.099 263.776 341.74 265.211 341.116C263.191 339.605 263.229 338.906 263.267 338.208C263.267 338.208 262.568 338.17 263.267 338.208Z" fill="url(#paint6_linear_1_2834)"/>
<path opacity="0.5" d="M30.7952 193.853C27.8877 195.798 25.6408 198.48 22.7332 200.425C12.5756 206.883 2.60725 209.848 -8.7581 212.736C-25.0887 216.758 -40.418 215.227 -56.5972 216.453C-57.2957 216.415 -57.3335 217.114 -56.635 217.152C-52.5954 220.174 -47.7815 221.837 -42.9298 222.8C-17.8421 238.177 21.1813 229.076 30.7952 193.853C31.4938 193.89 30.7952 193.853 30.7952 193.853Z" fill="url(#paint7_linear_1_2834)"/>
<defs>
<linearGradient id="paint0_linear_1_2834" x1="70.7566" y1="392.639" x2="106.87" y2="391.937" gradientUnits="userSpaceOnUse">
<stop offset="0.1327" stop-color="#6E5D00"/>
<stop offset="0.4712" stop-color="#4B3200"/>
<stop offset="0.6194" stop-color="#383007"/>
<stop offset="0.9337" stop-color="#003138"/>
</linearGradient>
<linearGradient id="paint1_linear_1_2834" x1="90.5894" y1="410.564" x2="82.7874" y2="10.2929" gradientUnits="userSpaceOnUse">
<stop offset="0.0138911" stop-color="#057046"/>
<stop offset="1" stop-color="#169300"/>
</linearGradient>
<linearGradient id="paint2_linear_1_2834" x1="7.61773" y1="208.202" x2="82.8332" y2="172.522" gradientUnits="userSpaceOnUse">
<stop stop-color="#FFE23A"/>
<stop offset="0.9861" stop-color="#004227"/>
</linearGradient>
<linearGradient id="paint3_linear_1_2834" x1="15.1555" y1="122.58" x2="90.2601" y2="67.6002" gradientUnits="userSpaceOnUse">
<stop stop-color="#FFE23A"/>
<stop offset="0.9861" stop-color="#004227"/>
</linearGradient>
<linearGradient id="paint4_linear_1_2834" x1="-24.8099" y1="367.704" x2="94.7016" y2="276.892" gradientUnits="userSpaceOnUse">
<stop stop-color="#FFE23A"/>
<stop offset="0.9861" stop-color="#004227"/>
</linearGradient>
<linearGradient id="paint5_linear_1_2834" x1="-56.1668" y1="238.188" x2="40.5334" y2="236.309" gradientUnits="userSpaceOnUse">
<stop stop-color="#FFE23A"/>
<stop offset="0.9861" stop-color="#004227"/>
</linearGradient>
<linearGradient id="paint6_linear_1_2834" x1="7.48359" y1="227.809" x2="297.769" y2="359.999" gradientUnits="userSpaceOnUse">
<stop stop-color="#004B14"/>
<stop offset="0.7095" stop-color="#0C498D"/>
<stop offset="1" stop-color="#005667"/>
</linearGradient>
<linearGradient id="paint7_linear_1_2834" x1="-3.49568" y1="191.995" x2="-33.5595" y2="241.932" gradientUnits="userSpaceOnUse">
<stop stop-color="#004B14"/>
<stop offset="0.7095" stop-color="#0C498D"/>
<stop offset="1" stop-color="#005667"/>
</linearGradient>
</defs>
</svg>
