<svg width="171" height="174" viewBox="0 0 171 174" fill="none" xmlns="http://www.w3.org/2000/svg">
<g clip-path="url(#clip0_4310_78)">
<path d="M2.05029 66.1892L37.6676 164.432C38.3287 166.253 39.3599 167.916 40.6962 169.318C42.0326 170.72 43.6449 171.83 45.4317 172.578C47.2184 173.325 49.1407 173.694 51.0773 173.662C53.0138 173.629 54.9226 173.196 56.6832 172.388C100.76 152.158 139.207 121.433 168.658 82.9017C169.835 81.3628 170.681 79.5965 171.141 77.7145C171.601 75.8324 171.666 73.8754 171.331 71.967C170.997 70.0585 170.27 68.2402 169.198 66.6268C168.125 65.0133 166.729 63.6398 165.099 62.593L77.2135 6.13738C74.3354 4.29806 70.8854 3.57103 67.5098 4.09245C64.1341 4.61387 61.0644 6.34799 58.8754 8.97002C44.9816 25.438 27.9884 39.0166 8.86092 48.9347C5.82179 50.4909 3.45384 53.1011 2.20026 56.277C0.946672 59.4529 0.893366 62.9768 2.05029 66.1892Z" fill="#D8DBE8"/>
<path d="M1.83057 62.2613L37.4478 160.504C38.1089 162.325 39.1402 163.989 40.4765 165.391C41.8128 166.793 43.4252 167.902 45.212 168.65C46.9987 169.397 48.921 169.767 50.8575 169.734C52.7941 169.701 54.7029 169.268 56.4634 168.46C100.54 148.23 138.987 117.505 168.439 78.9738C169.616 77.4349 170.461 75.6687 170.921 73.7866C171.381 71.9045 171.446 69.9475 171.112 68.0391C170.777 66.1307 170.051 64.3124 168.978 62.6989C167.905 61.0855 166.51 59.7119 164.879 58.6651L76.9938 2.20953C74.1157 0.370201 70.6657 -0.35683 67.2901 0.164593C63.9144 0.686015 60.8447 2.42013 58.6556 5.04216C44.7618 21.5101 27.7687 35.0887 8.6412 45.0069C5.60206 46.563 3.23412 49.1733 1.98053 52.3492C0.726946 55.5251 0.67364 59.0489 1.83057 62.2613Z" fill="white"/>
<path d="M1.83057 62.2613L37.4478 160.504C38.1089 162.325 39.1402 163.989 40.4765 165.391C41.8128 166.793 43.4252 167.902 45.212 168.65C46.9987 169.397 48.921 169.767 50.8575 169.734C52.7941 169.701 54.7029 169.268 56.4634 168.46C100.54 148.23 138.987 117.505 168.439 78.9738C169.616 77.4349 170.461 75.6687 170.921 73.7866C171.381 71.9045 171.446 69.9475 171.112 68.0391C170.777 66.1307 170.051 64.3124 168.978 62.6989C167.905 61.0855 166.51 59.7119 164.879 58.6651L76.9938 2.20953C74.1157 0.370201 70.6657 -0.35683 67.2901 0.164593C63.9144 0.686015 60.8447 2.42013 58.6556 5.04216C44.7618 21.5101 27.7687 35.0887 8.6412 45.0069C5.60206 46.563 3.23412 49.1733 1.98053 52.3492C0.726946 55.5251 0.67364 59.0489 1.83057 62.2613Z" fill="#FB5352"/>
</g>
<defs>
<clipPath id="clip0_4310_78">
<rect width="171" height="174" fill="white"/>
</clipPath>
</defs>
</svg>
