<svg width="148" height="141" viewBox="0 0 148 141" fill="none" xmlns="http://www.w3.org/2000/svg">
<g clip-path="url(#clip0_4310_82)">
<path d="M15.7099 15.9983C13.5367 32.9441 8.70278 49.4408 1.38666 64.8797C-0.0952643 67.9665 -0.40127 71.4876 0.525926 74.7838C1.45312 78.08 3.54994 80.9252 6.42381 82.7868L94.3093 139.255C95.9338 140.3 97.7571 140.999 99.6646 141.305C101.572 141.612 103.522 141.521 105.393 141.037C107.263 140.554 109.013 139.688 110.533 138.496C112.053 137.303 113.31 135.809 114.224 134.107C133.316 98.4162 144.829 59.1668 148.043 18.8186C148.196 16.8933 147.949 14.9571 147.318 13.1317C146.687 11.3062 145.686 9.63088 144.377 8.21079C143.068 6.7907 141.479 5.6565 139.711 4.87938C137.943 4.10225 136.033 3.69896 134.102 3.69482H29.6144C26.197 3.7042 22.9002 4.95858 20.3409 7.2232C17.7816 9.48782 16.1352 12.6075 15.7099 15.9983Z" fill="#D8DBE8"/>
<path d="M15.7099 12.3035C13.5367 29.2493 8.70278 45.746 1.38666 61.1848C-0.0952643 64.2717 -0.40127 67.7928 0.525926 71.089C1.45312 74.3852 3.54994 77.2304 6.42381 79.092L94.3093 135.56C95.9338 136.606 97.7571 137.304 99.6646 137.61C101.572 137.917 103.522 137.826 105.393 137.342C107.263 136.859 109.013 135.994 110.533 134.801C112.053 133.608 113.31 132.114 114.224 130.412C133.316 94.7214 144.829 55.472 148.043 15.1238C148.196 13.1984 147.949 11.2623 147.318 9.43683C146.687 7.61139 145.686 5.93606 144.377 4.51596C143.068 3.09587 141.479 1.96168 139.711 1.18455C137.943 0.407423 136.033 0.00413324 134.102 0H29.6144C26.197 0.00937447 22.9002 1.26376 20.3409 3.52838C17.7816 5.793 16.1352 8.91265 15.7099 12.3035Z" fill="white"/>
<path d="M15.7099 12.3035C13.5367 29.2493 8.70278 45.746 1.38666 61.1848C-0.0952643 64.2717 -0.40127 67.7928 0.525926 71.089C1.45312 74.3852 3.54994 77.2304 6.42381 79.092L94.3093 135.56C95.9338 136.606 97.7571 137.304 99.6646 137.61C101.572 137.917 103.522 137.826 105.393 137.342C107.263 136.859 109.013 135.994 110.533 134.801C112.053 133.608 113.31 132.114 114.224 130.412C133.316 94.7214 144.829 55.472 148.043 15.1238C148.196 13.1984 147.949 11.2623 147.318 9.43683C146.687 7.61139 145.686 5.93606 144.377 4.51596C143.068 3.09587 141.479 1.96168 139.711 1.18455C137.943 0.407423 136.033 0.00413324 134.102 0H29.6144C26.197 0.00937447 22.9002 1.26376 20.3409 3.52838C17.7816 5.793 16.1352 8.91265 15.7099 12.3035Z" fill="#8EC627"/>
</g>
<defs>
<clipPath id="clip0_4310_82">
<rect width="148" height="141" fill="white"/>
</clipPath>
</defs>
</svg>
