<svg width="10" height="10" viewBox="0 0 10 10" fill="none" xmlns="http://www.w3.org/2000/svg">
<path d="M8.68097 5.19376C8.68097 5.92451 8.46429 6.63886 8.05831 7.24645C7.65232 7.85405 7.07526 8.3276 6.40014 8.60725C5.72502 8.88689 4.98215 8.96006 4.26544 8.8175C3.54873 8.67494 2.89036 8.32305 2.37364 7.80634C1.85693 7.28962 1.50506 6.63129 1.3625 5.91458C1.21994 5.19787 1.2931 4.45498 1.57275 3.77986C1.85239 3.10473 2.32595 2.52769 2.93354 2.12171C3.54114 1.71573 4.25549 1.49902 4.98624 1.49902C5.96614 1.49902 6.9059 1.88829 7.59879 2.58118C8.29169 3.27408 8.68097 4.21385 8.68097 5.19376Z" fill="white" stroke="#FBA11D" stroke-width="2.21752" stroke-miterlimit="10"/>
</svg>
