<svg width="8" height="7" viewBox="0 0 8 7" fill="none" xmlns="http://www.w3.org/2000/svg">
<path d="M7.1752 3.38309C7.1752 4.02372 6.98523 4.64996 6.62932 5.18261C6.27341 5.71527 5.76751 6.13043 5.17565 6.37558C4.58379 6.62074 3.93254 6.68489 3.30423 6.55991C2.67591 6.43493 2.09875 6.12643 1.64576 5.67344C1.19277 5.22045 0.884302 4.64331 0.759323 4.015C0.634343 3.38668 0.698482 2.73542 0.943639 2.14356C1.18879 1.5517 1.60396 1.04583 2.13662 0.689915C2.66928 0.334004 3.29552 0.144043 3.93614 0.144043C4.79519 0.144043 5.61904 0.4853 6.22648 1.09274C6.83392 1.70018 7.1752 2.52404 7.1752 3.38309Z" fill="#FBA11D"/>
</svg>
