<svg width="149" height="142" viewBox="0 0 149 142" fill="none" xmlns="http://www.w3.org/2000/svg">
<g clip-path="url(#clip0_4308_68)">
<path d="M119.737 3.88037H15.2497C13.3152 3.87941 11.4014 4.27895 9.6289 5.05383C7.85635 5.8287 6.26342 6.96214 4.95036 8.38279C3.6373 9.80344 2.63256 11.4805 1.99939 13.3085C1.36622 15.1364 1.11832 17.0757 1.27132 19.0042C4.48511 59.3524 15.9987 98.6018 35.0905 134.292C36.0048 135.994 37.2613 137.488 38.7811 138.681C40.3009 139.874 42.0511 140.739 43.9216 141.223C45.7921 141.706 47.7423 141.798 49.6498 141.491C51.5572 141.184 53.3806 140.486 55.0051 139.44L142.891 82.9724C145.764 81.1108 147.861 78.2656 148.788 74.9694C149.716 71.6732 149.41 68.152 147.928 65.0652C140.612 49.6264 135.778 33.1297 133.604 16.1839C133.18 12.7993 131.539 9.6847 128.987 7.42091C126.436 5.15712 123.148 3.8987 119.737 3.88037V3.88037Z" fill="#D8DBE8"/>
<path d="M119.509 1.7243e-06H15.0223C13.0878 -0.000957832 11.174 0.39858 9.40148 1.17346C7.62893 1.94833 6.036 3.08177 4.72294 4.50242C3.40989 5.92306 2.40514 7.60015 1.77197 9.42811C1.1388 11.2561 0.890906 13.1953 1.0439 15.1238C4.25769 55.472 15.7713 94.7214 34.8631 130.412C35.7773 132.114 37.0339 133.608 38.5537 134.801C40.0735 135.994 41.8237 136.859 43.6942 137.342C45.5646 137.826 47.5149 137.917 49.4224 137.61C51.3298 137.304 53.1532 136.606 54.7777 135.56L142.663 79.092C145.537 77.2304 147.634 74.3852 148.561 71.089C149.488 67.7928 149.182 64.2717 147.7 61.1848C140.384 45.746 135.55 29.2493 133.377 12.3035C132.953 8.91894 131.312 5.80433 128.76 3.54054C126.208 1.27675 122.92 0.018332 119.509 1.7243e-06V1.7243e-06Z" fill="white"/>
<path d="M119.509 1.7243e-06H15.0223C13.0878 -0.000957832 11.174 0.39858 9.40148 1.17346C7.62893 1.94833 6.036 3.08177 4.72294 4.50242C3.40989 5.92306 2.40514 7.60015 1.77197 9.42811C1.1388 11.2561 0.890906 13.1953 1.0439 15.1238C4.25769 55.472 15.7713 94.7214 34.8631 130.412C35.7773 132.114 37.0339 133.608 38.5537 134.801C40.0735 135.994 41.8237 136.859 43.6942 137.342C45.5646 137.826 47.5149 137.917 49.4224 137.61C51.3298 137.304 53.1532 136.606 54.7777 135.56L142.663 79.092C145.537 77.2304 147.634 74.3852 148.561 71.089C149.488 67.7928 149.182 64.2717 147.7 61.1848C140.384 45.746 135.55 29.2493 133.377 12.3035C132.953 8.91894 131.312 5.80433 128.76 3.54054C126.208 1.27675 122.92 0.018332 119.509 1.7243e-06V1.7243e-06Z" fill="#FBA11D"/>
</g>
<defs>
<clipPath id="clip0_4308_68">
<rect width="149" height="142" fill="white"/>
</clipPath>
</defs>
</svg>
