<svg width="6" height="7" viewBox="0 0 6 7" fill="none" xmlns="http://www.w3.org/2000/svg">
<path d="M5.26896 3.38228C5.27139 3.81638 5.14491 4.24142 4.90551 4.60354C4.66611 4.96567 4.3246 5.24857 3.92425 5.41638C3.52389 5.5842 3.08275 5.62937 2.6567 5.54618C2.23064 5.46299 1.83885 5.25518 1.53103 4.94909C1.22321 4.643 1.0132 4.25241 0.92761 3.82683C0.84202 3.40125 0.884732 2.95984 1.05029 2.55855C1.21584 2.15725 1.4968 1.81415 1.85757 1.57272C2.21834 1.33128 2.64265 1.2024 3.07675 1.20239C3.65603 1.20238 4.21177 1.43165 4.62253 1.84011C5.0333 2.24857 5.2657 2.80301 5.26896 3.38228Z" fill="white" stroke="#C442F0" stroke-width="1.47835" stroke-miterlimit="10"/>
</svg>
