<svg width="11" height="11" viewBox="0 0 11 11" fill="none" xmlns="http://www.w3.org/2000/svg">
<path d="M9.67005 5.57777C9.67004 6.45033 9.41115 7.30325 8.92613 8.02858C8.44111 8.75391 7.75178 9.31903 6.94541 9.65238C6.13905 9.98572 5.2519 10.0723 4.3963 9.90119C3.54069 9.73007 2.75508 9.30892 2.13895 8.69107C1.52283 8.07322 1.10388 7.28645 0.93515 6.43037C0.76642 5.57428 0.855503 4.68738 1.1911 3.88195C1.5267 3.07652 2.09372 2.38878 2.8204 1.90579C3.54709 1.42281 4.40075 1.16628 5.2733 1.16872C5.85173 1.16872 6.42448 1.28285 6.95872 1.50458C7.49296 1.7263 7.9782 2.05127 8.38664 2.46085C8.79507 2.87043 9.11866 3.35658 9.33889 3.89144C9.55912 4.4263 9.67167 4.99935 9.67005 5.57777Z" fill="white" stroke="#FB5352" stroke-width="1.47835" stroke-miterlimit="10"/>
</svg>
