<svg width="208" height="257" viewBox="0 0 208 257" fill="none" xmlns="http://www.w3.org/2000/svg">
<path d="M92.4693 184.731C92.4693 184.731 92.6822 230.833 91.0317 247.01C91.0317 247.01 97.1337 255.862 111.062 248.87C111.062 248.87 107.51 207.235 108.64 186.381C108.619 186.767 102.58 176.757 92.4693 184.731Z" fill="url(#paint0_linear_1_3072)"/>
<path d="M196.88 186.9C196.901 186.514 196.922 186.128 196.536 186.107C194.971 186.409 193.406 186.712 192.227 187.035C185.279 186.659 178.414 184.738 172.468 180.155C170.987 178.913 169.12 177.65 167.273 176.001C173.773 177.515 180.356 177.484 185.437 176.597C185.823 176.618 185.864 175.846 185.499 175.439C182.432 174.885 179.386 173.946 176.319 173.392C181.379 172.892 185.75 170.804 188.338 165.91C188.745 165.544 187.994 165.116 187.994 165.116C184.457 166.087 180.962 166.285 177.102 166.076C168.37 162.891 158.346 154.99 153.255 148.904C152.546 147.704 151.43 146.869 150.721 145.668C157.731 144.886 166.005 142.236 169.835 135.859C170.669 134.742 170.002 132.769 168.437 133.072C167.644 133.416 166.851 133.761 166.058 134.105C165.286 134.063 164.493 134.408 164.107 134.387C158.317 134.073 152.225 132.194 146.967 129.198C149.304 128.937 151.662 128.29 153.676 126.85C154.854 126.527 155.647 126.182 156.482 125.065C156.889 124.7 156.524 124.293 156.138 124.272C156.138 124.272 156.138 124.272 156.545 123.907C156.952 123.542 156.587 123.135 156.201 123.114C153.478 123.353 151.162 123.228 148.867 122.716C146.227 121.411 144.016 119.355 141.804 117.299C147.574 117.999 153.771 117.947 158.163 115.474C158.549 115.495 158.549 115.495 158.935 115.515C159.707 115.557 160.135 114.806 159.791 114.012C160.198 113.647 160.605 113.282 160.991 113.303C161.398 112.938 161.053 112.144 160.667 112.123C159.509 112.061 157.965 111.977 156.807 111.914C149.599 109.2 142.902 104.189 136.59 99.1999C131.761 95.4525 128.517 91.0163 125.679 86.2149C133.337 87.7916 141.506 87.0721 147.056 84.6615C147.442 84.6824 147.463 84.2962 147.098 83.8891C147.098 83.8891 147.098 83.8891 146.712 83.8682C140.964 82.7823 135.467 77.0621 131.023 73.3356C129.541 72.0934 128.446 70.8721 127.351 69.6509C135.55 75.5174 145.398 79.5366 151.137 73.6504C151.544 73.2851 151.565 72.8989 151.179 72.878C122.072 67.0411 107.085 36.4061 97.5218 5.67764C97.2195 4.112 95.2895 4.00746 94.7989 5.91746C94.757 6.68983 94.7152 7.46218 94.6734 8.23455C93.9223 7.80655 92.7224 8.5162 92.2736 9.65383C89.1418 24.5895 85.8313 49.9729 70.1191 54.157C69.7331 54.1361 70.0773 54.9294 70.0773 54.9294C72.4351 54.2824 75.1999 53.2702 77.6415 51.0786C71.3912 59.261 62.3552 68.8417 53.0283 69.4985C52.2563 69.4567 52.1726 71.0014 52.9446 71.0432C59.5277 71.0125 65.8084 69.4161 71.4007 66.2332C66.7991 72.5683 61.4672 78.0892 55.1028 81.2303C53.903 81.94 54.5913 83.5265 55.7703 83.203C62.4788 80.8552 68.8641 77.3279 74.1959 71.807C73.7472 72.9446 73.3193 73.696 72.4846 74.8128C72.0567 75.5642 71.2429 76.2948 70.7941 77.4324C64.909 86.0219 56.489 91.3756 47.1412 92.4185C45.9832 92.3558 46.2646 94.3076 47.0366 94.3494C50.4898 94.9238 53.5987 94.7048 56.7495 93.7136C51.4804 98.0759 45.1161 101.217 38.9818 100.11C38.2098 100.068 38.147 101.227 38.8981 101.655C47.6299 104.839 55.1314 102.147 62.7583 97.1375C53.5968 109.035 41.9006 117.697 27.2114 117.289C26.4394 117.247 26.3976 118.02 26.3557 118.792C25.1977 118.729 24.728 120.253 25.8442 121.088C34.4505 126.589 43.6937 127.477 53.0625 126.048C52.2487 126.779 51.4139 127.896 50.214 128.605C41.6895 135.89 32.4976 141.202 21.9708 142.568C21.5848 142.547 21.1779 142.912 21.1361 143.685C19.978 143.622 19.206 143.58 18.0271 143.904C16.4831 143.82 16.3366 146.523 17.8598 146.993C28.5216 150.282 39.7576 150.116 50.7541 147.226C49.9193 148.342 49.0636 149.845 48.2289 150.962L47.8219 151.327C41.739 156.42 34.6863 157.975 28.2382 162.661C27.8313 163.026 28.1546 164.205 28.5615 163.84C33.7051 161.795 38.8278 160.136 43.6063 157.683C41.5089 160.668 39.4325 163.267 36.9491 166.231C29.9268 174.371 19.6073 186.207 9.85248 187.615C9.08046 187.573 8.65262 188.324 8.61079 189.097C7.08768 188.627 5.97148 187.792 4.46928 186.936C3.71818 186.508 2.88342 187.625 3.22759 188.418C8.19245 196.82 21.4004 195.987 29.1833 195.246C33.0643 195.069 38.166 193.796 42.9236 191.73C39.2613 195.017 34.8897 197.104 30.9042 199.213C30.1112 199.557 30.4136 201.122 31.2065 200.778C32.7924 200.089 34.3782 199.401 35.9641 198.712C29.0673 204.535 20.752 207.958 12.5621 209.064L12.1761 209.043C11.4041 209.001 10.653 208.573 9.881 208.531C9.1299 208.103 8.66023 209.627 9.41133 210.055C25.7891 222.174 48.8354 218.388 65.0497 204.935C62.9523 207.92 60.4898 210.498 57.3181 211.875C56.9321 211.854 56.8903 212.627 56.8694 213.013C54.1046 214.025 51.3397 215.037 48.168 216.415C46.9682 217.124 47.2287 219.462 48.4076 219.139C58.9553 217.386 69.4821 216.02 79.1019 209.957C82.7224 207.442 85.9778 204.519 89.2541 201.211C87.1149 204.968 84.9756 208.725 82.4504 212.462C82.4295 212.848 82.4086 213.234 82.8155 212.869C87.8032 206.555 93.1769 200.261 96.3182 192.298C96.1927 194.615 96.0672 196.932 95.9417 199.249C95.221 205.407 95.5956 212.787 93.7169 218.882C92.8194 221.157 91.9428 223.046 90.6593 225.301C90.6384 225.687 90.6175 226.073 91.0244 225.708C94.217 223.944 96.2726 221.731 98.3908 218.36C102.179 212.756 107.062 208.372 110.464 202.747C111.298 201.63 111.747 200.493 112.603 198.99C112.049 202.058 111.11 205.106 109.785 208.133C109.764 208.519 110.129 208.926 110.15 208.54C112.717 204.031 114.126 199.46 115.191 194.095C120.865 203.698 127.864 210.274 135.573 218.05C135.938 218.457 136.366 217.706 135.98 217.685C135.25 216.871 134.906 216.078 134.175 215.263C135.271 216.485 136.366 217.706 137.847 218.948C138.212 219.355 138.619 218.99 138.254 218.583C135.48 212.623 133.499 206.319 131.496 200.4C148.167 207.113 169.897 213.325 183.754 200.52C184.568 199.789 184.265 198.223 183.086 198.547C181.521 198.849 179.956 199.152 178.412 199.068C174.145 199.225 170.327 198.243 166.551 196.489C175.815 196.991 185.205 195.176 191.778 188.173C192.571 187.828 192.999 187.077 193.792 186.733C196.838 187.672 196.859 187.286 196.88 186.9C196.88 186.9 196.494 186.879 196.88 186.9Z" fill="url(#paint1_linear_1_3072)"/>
<path opacity="0.5" d="M39.6282 102.469C48.36 105.653 55.8614 102.961 63.4884 97.9518C59.7633 102.398 56.0383 106.844 51.6039 110.089C49.5693 111.916 47.1905 112.949 44.7908 114.368C45.9697 114.045 47.5347 113.742 48.6927 113.805C52.6155 112.855 56.1524 111.885 59.7519 109.756C63.3306 108.013 70.6134 102.211 73.4828 99.2678C71.5204 106.908 63.9657 117.731 64.7795 117C72.8553 110.853 75.3805 107.117 79.6589 99.6023C79.8871 109.685 78.9363 120.091 79.9365 130.215C79.8738 131.374 79.3832 133.284 80.197 132.553C83.0873 129.224 93.4088 103.058 95.1201 100.052C97.4248 107.536 104.434 121.085 104.476 120.312C105.947 114.582 105.124 108.34 104.687 102.12C109.475 106.64 121.941 112.35 121.232 111.15C112.814 102.173 104.584 89.7202 103.021 75.6922C103.084 74.5336 100.38 88.7178 99.6381 95.262C95.3616 88.446 94.0286 70.1701 93.5799 71.3077C89.2387 79.9808 87.1718 89.5517 83.6026 98.2666C82.4351 91.2317 84.8576 75.0957 84.0647 75.4401C81.6022 78.0179 79.9118 80.6376 77.8353 83.2363C76.1658 85.4697 74.1312 87.2961 71.7106 89.1016C74.2776 84.5929 78.3583 73.5818 77.9304 74.3332C74.5286 79.9587 68.8944 83.914 62.9579 86.3036C61.7371 87.3995 60.1512 88.0882 58.9305 89.184C55.3518 90.9268 51.7941 92.2833 47.8922 92.8466C46.7342 92.7839 47.0156 94.7357 47.7876 94.7775C51.2407 95.3519 54.3497 95.133 57.5005 94.1417C52.2314 98.5041 45.8671 101.645 39.7328 100.538C39.3259 100.904 38.8562 102.427 39.6282 102.469Z" fill="url(#paint2_linear_1_3072)"/>
<path opacity="0.6" d="M53.6746 71.8575C54.0607 71.8784 54.0607 71.8784 54.4467 71.8993C54.8327 71.9202 55.2396 71.5549 55.2396 71.5549L55.6256 71.5758C64.9735 70.5329 73.091 63.6136 81.1667 57.4666C79.8832 59.721 77.8277 61.9335 76.1791 63.7808C75.3652 64.5114 76.0536 66.0979 77.2116 66.1606C83.0854 64.9295 88.7614 60.2018 92.9143 55.0044C92.3819 57.6867 91.8495 60.3691 91.7031 63.0724C91.6403 64.2309 93.1634 64.7007 93.5913 63.9493C96.1165 60.2129 97.5255 55.6414 99.2996 51.4771C101 55.8296 102.293 60.5474 105.171 64.5765C105.902 65.3907 106.695 65.0463 106.757 63.8878C106.946 60.4121 106.362 56.8947 106.164 53.3981C109.534 55.5172 112.861 58.4086 115.396 61.6444C116.126 62.4586 117.368 60.9766 116.638 60.1624C111.203 53.2837 108.617 43.8481 104.403 35.8736C104.059 35.0803 102.88 35.4038 102.838 36.1762C102.713 38.4932 102.201 40.7894 101.711 42.6994C99.9689 39.1193 99.3852 35.6018 99.2293 31.3329C99.2711 30.5606 98.1549 29.7255 97.727 30.4769C95.6297 33.4619 94.3043 36.4886 92.207 39.4735C92.9695 32.5431 94.4831 26.0408 95.2247 19.4966C95.4757 14.8624 95.7476 9.84206 95.6126 5.18697C95.2056 5.55225 95.2056 5.55224 95.1847 5.93842C95.1429 6.71078 95.1011 7.48314 95.0592 8.2555C94.6732 8.23459 94.2872 8.21369 93.9012 8.19278C93.4943 8.55805 93.0874 8.92333 92.6595 9.67479C89.5277 24.6104 86.2172 49.9939 70.505 54.178C70.1189 54.157 70.4631 54.9503 70.4631 54.9503C72.821 54.3034 75.5858 53.2912 78.0274 51.0996C74.6883 55.5665 70.5563 60.3778 66.101 64.0096C62.0527 67.2762 58.0671 69.3842 53.8001 69.5404C53.4141 69.5195 53.4141 69.5195 53.3932 69.9056C52.9235 71.4295 52.9026 71.8156 53.6746 71.8575Z" fill="url(#paint3_linear_1_3072)"/>
<path opacity="0.4" d="M151.386 161.972C147.568 160.99 144.135 160.03 140.703 159.069C137.031 155.384 132.911 152.837 129.239 149.153C125.567 145.468 123.158 139.915 119.486 136.23C118.756 135.416 117.556 136.126 117.879 137.305C118.14 139.643 118.14 139.643 118.4 141.981C118.682 143.933 120.256 150.603 116.668 145.373C115.249 142.972 114.238 140.207 112.412 138.171C112.047 137.764 111.275 137.722 111.233 138.495C109.501 141.887 110.45 145.811 111.034 149.329C108.927 145.341 107.655 140.237 105.162 136.229C104.818 135.436 104.025 135.78 103.618 136.145C101.416 141.061 101.895 146.51 101.988 151.937C100.33 146.812 99.444 141.729 98.1509 137.011C97.8068 136.218 97.0348 136.176 96.6069 136.928C93.9353 143.367 92.7659 150.663 90.8453 157.531C90.4707 150.151 90.8681 142.814 91.2656 135.476C91.3074 134.704 90.1703 134.255 89.7425 135.007C83.3876 145.12 78.5349 156.089 74.4124 167.873C74.9354 158.218 76.2303 148.605 77.8903 139.4C77.9531 138.241 77.202 137.813 76.3881 138.544C71.8074 144.493 67.9986 150.483 62.7086 155.232C58.6394 158.885 54.5701 162.537 50.1149 166.169C52.6192 162.819 55.1235 159.469 56.8976 155.305C59.9552 148.886 64.15 142.916 66.4565 136.069C66.4774 135.683 66.1542 134.504 65.7263 135.255C61.2292 139.659 56.6903 144.836 51.8281 148.833C51.4212 149.198 50.6283 149.543 50.2214 149.908C49.7935 150.659 49.3866 151.025 48.9587 151.776L48.5518 152.141C48.1449 152.507 48.1449 152.507 47.738 152.872C42.0619 157.6 35.0092 159.154 28.9681 163.475C28.5612 163.84 28.8844 165.019 29.2914 164.654C34.435 162.609 39.5577 160.95 44.3362 158.497C42.2388 161.482 40.1623 164.081 37.679 167.045C31.8984 173.704 24.0413 182.961 15.705 186.77C14.1192 187.459 12.5333 188.147 10.5824 188.429C10.5824 188.429 10.5824 188.429 10.1963 188.408C21.2442 191.718 33.8474 187.752 43.4462 182.075C47.8387 179.602 51.8871 176.335 55.5703 172.662C56.812 171.18 58.4397 169.719 59.6814 168.237C60.4952 167.506 61.33 166.389 62.1648 165.273L62.8113 167.632C62.3416 169.155 61.8719 170.679 61.4023 172.203C59.5863 177.14 57.3844 182.056 54.8173 186.564C51.4364 191.804 47.3254 196.229 43.9654 201.082C43.1306 202.199 44.2259 203.42 45.0606 202.303C52.448 194.57 61.9005 191.596 70.3204 186.242C76.7266 182.329 82.5072 175.67 86.0136 168.114C84.8651 175.023 82.1934 181.463 81.0449 188.372C80.9822 189.531 82.0984 190.366 82.5471 189.228C85.8862 184.761 87.7231 179.438 89.9459 174.136C92.1479 169.221 94.0475 162.739 97.0005 158.251C99.3261 165.349 100.003 174.294 104.749 179.586C105.114 179.993 106.272 180.056 106.335 178.897C106.972 174.284 104.709 166.028 106.89 161.498C108.569 166.237 111.365 171.811 115.548 173.199C115.934 173.22 116.727 172.876 116.748 172.49C116.999 167.855 115.257 164.275 114.329 159.964C116.155 162 117.98 164.035 119.826 165.685C120.577 166.113 121.005 165.361 120.661 164.568C120.401 162.23 119.754 159.871 118.722 157.491C117.022 153.139 117.731 154.339 120.307 156.802C123.614 160.08 126.577 162.564 130.802 163.181C131.188 163.201 131.595 162.836 131.23 162.429C129.446 159.621 127.662 156.813 126.286 153.64C133.327 159.444 141.631 163.38 150.207 162.295C151.709 163.151 151.751 162.379 151.386 161.972Z" fill="url(#paint4_linear_1_3072)"/>
<path opacity="0.4" d="M72.9278 116.667C72.1139 117.397 71.3001 118.128 70.4862 118.858C68.4516 120.685 66.0519 122.104 64.0382 123.544C66.4588 121.739 69.2864 119.568 71.7488 116.99C71.7697 116.604 71.7488 116.99 71.7488 116.99C67.7005 120.257 63.7149 122.365 59.7294 124.473C55.7229 126.967 52.0396 130.641 48.3773 133.928C44.329 137.195 39.5714 139.261 34.8347 140.941C32.4768 141.588 30.119 142.235 27.7611 142.882C25.4241 143.142 23.0662 143.789 20.7502 143.664C20.3642 143.643 20.3433 144.029 20.7293 144.05C21.5013 144.092 22.2524 144.52 23.0244 144.562C23.0035 144.948 22.9826 145.334 23.3686 145.355C25.6846 145.48 28.0216 145.22 30.3585 144.959C46.6545 144.292 63.578 132.04 73.2929 117.074C73.6998 116.709 73.3347 116.302 72.9278 116.667Z" fill="url(#paint5_linear_1_3072)"/>
<path opacity="0.4" d="M196.88 186.9C196.901 186.514 196.922 186.128 196.536 186.107C194.971 186.409 193.406 186.712 192.227 187.035C187.209 186.763 182.232 185.719 177.705 183.538C175.817 182.661 173.949 181.398 172.468 180.155C170.987 178.913 169.119 177.65 167.273 176.001C173.772 177.515 180.356 177.484 185.436 176.597C185.822 176.618 185.864 175.846 185.499 175.439C182.432 174.885 179.386 173.946 176.319 173.392C180.221 172.829 183.392 171.452 186.241 168.895C187.055 168.164 187.889 167.047 188.724 165.931C189.131 165.565 188.38 165.137 188.38 165.137C184.843 166.108 181.348 166.306 177.488 166.097C175.965 165.627 174.077 164.75 172.189 163.873C165.043 160 157.615 154.175 153.62 149.311C152.911 148.111 151.795 147.276 151.086 146.076C157.71 145.272 165.577 142.987 169.772 137.017C169.793 136.631 170.179 136.652 170.2 136.266C171.034 135.149 170.367 133.177 168.802 133.479C168.009 133.823 167.216 134.168 166.423 134.512C165.651 134.47 164.858 134.815 164.472 134.794C158.682 134.48 152.59 132.601 147.332 129.605C147.718 129.626 148.49 129.668 148.897 129.302C150.462 129 151.641 128.676 153.227 127.988C153.634 127.622 154.02 127.643 154.426 127.278C155.605 126.955 156.398 126.61 157.233 125.493C157.64 125.128 157.275 124.721 156.889 124.7C156.889 124.7 156.889 124.7 157.296 124.335C157.703 123.97 157.338 123.563 156.952 123.542C154.229 123.782 151.913 123.656 149.618 123.144C146.978 121.84 144.767 119.783 142.555 117.727C142.941 117.748 142.941 117.748 143.327 117.769C149.097 118.468 154.522 118.375 158.914 115.902C159.3 115.923 159.3 115.923 159.686 115.943C160.072 115.964 160.479 115.599 160.479 115.599C160.5 115.213 160.521 114.827 160.521 114.827C160.928 114.461 161.335 114.096 161.721 114.117C162.128 113.752 161.783 112.959 161.397 112.938C160.239 112.875 158.695 112.791 157.537 112.729C153.354 111.34 149.619 108.814 146.271 106.309C143.287 104.21 140.304 102.112 137.706 100.035C132.877 96.2876 129.633 91.8515 126.796 87.05C133.295 88.564 140.692 87.8027 145.794 86.5298C146.586 86.1854 147.379 85.841 148.151 85.8828C148.537 85.9038 148.558 85.5176 148.193 85.1105C148.193 85.1105 148.193 85.1105 147.807 85.0896C142.059 84.0036 136.562 78.2834 132.118 74.5569C130.637 73.3147 129.541 72.0935 128.446 70.8722C136.645 76.7387 146.493 80.7579 152.232 74.8717C152.639 74.5065 152.66 74.1203 152.274 74.0994C151.502 74.0576 150.751 73.6296 150.365 73.6086C150.365 73.6086 150.365 73.6086 149.979 73.5877C149.207 73.5459 148.435 73.5041 147.663 73.4623C142.686 72.4181 137.773 70.2154 133.245 68.0337C123.846 62.8768 118.151 53.6601 111.663 44.7878C111.298 44.3807 110.505 44.7251 110.849 45.5183C112.873 51.0503 115.71 55.8517 118.954 60.2879C120.695 63.8681 122.437 67.4482 124.607 70.277C124.242 69.8699 123.491 69.4419 123.126 69.0348C120.163 66.5505 117.242 63.2937 113.852 61.5608C113.101 61.1328 112.652 62.2705 113.017 62.6776C114.092 64.285 115.552 65.9134 116.647 67.1346C121.738 73.2201 127.235 78.9402 133.63 82.3851C132.086 82.3015 130.542 82.2178 129.018 81.748C120.224 79.7224 112.692 75.8287 106.548 67.7496C106.183 67.3425 105.369 68.0731 105.734 68.4802C107.539 70.9018 108.936 73.6887 110.762 75.7241C117.813 88.5001 126.898 99.4497 136.965 106.579C128.703 101.871 121.255 96.4328 114.297 89.0843C113.567 88.2701 113.118 89.4077 113.462 90.201C115.611 93.4159 117.78 96.2446 119.95 99.0733C126.396 108.718 134.386 118.446 143.786 123.603C137.286 122.089 128.68 116.588 123.934 111.296C123.569 110.889 122.755 111.619 123.12 112.026C124.559 114.041 125.999 116.055 127.845 117.705C129.65 120.126 131.068 122.527 133.666 124.604C136.607 127.475 140.363 129.615 143.753 131.348C131.527 128.362 119.248 119.176 110.549 108.247C109.819 107.433 108.984 108.55 109.328 109.343C110.361 111.723 111.779 114.123 113.605 116.159C115.367 119.353 116.765 122.14 118.142 125.313C118.142 125.313 117.735 125.678 118.121 125.699C119.174 127.693 120.249 129.3 121.302 131.294C118.381 128.037 115.461 124.78 112.54 121.524C111.852 119.937 111.142 118.737 110.84 117.171C110.861 116.785 110.089 116.743 110.068 117.129C110.891 123.371 113.238 130.082 116.847 134.925C117.577 135.74 118.412 134.623 118.068 133.83C117.421 131.471 116.368 129.477 115.7 127.504C118.579 131.533 121.458 135.563 125.13 139.247C126.59 140.876 128.457 142.139 130.711 143.423C133.266 146.272 135.822 149.122 138.764 151.992C143.531 156.898 149.56 159.936 155.611 162.588C161.276 165.219 167.347 167.484 173.502 168.205C163.362 169.592 152.126 169.758 143.561 163.484C143.196 163.077 142.382 163.808 142.726 164.601C144.166 166.616 145.647 167.858 147.128 169.1C153.721 176.041 162.327 181.543 170.673 184.706C172.947 185.604 175.607 186.522 178.268 187.441C164.027 185.895 148.545 185.831 138.02 172.867C137.655 172.46 137.227 173.212 137.206 173.598C138.281 175.205 139.334 177.199 140.408 178.806C140.408 178.806 140.408 178.806 140.388 179.192C145.655 189.161 151.903 195.309 159.821 199.223C157.891 199.119 156.347 199.035 154.417 198.931C149.013 198.638 143.671 197.187 138.779 194.598C134.637 192.437 132.207 187.27 129.714 183.262C129.735 182.876 129.328 183.241 129.307 183.627C129.245 184.786 129.589 185.579 129.547 186.352C129.547 186.352 129.547 186.352 129.526 186.738C131.163 192.249 131.966 198.877 133.947 205.181C132.852 203.96 131.757 202.738 131.068 201.152C125.655 193.887 123.048 184.838 119.669 175.746C119.669 175.746 119.304 175.339 119.283 175.725L119.262 176.112L118.876 176.091C118.855 176.477 118.855 176.477 118.834 176.863C118.771 178.022 118.729 178.794 118.667 179.953C118.05 184.18 116.297 187.958 114.544 191.736C112.77 195.9 110.975 200.451 108.815 204.594C106.634 209.124 103.702 213.226 100.384 217.306C101.386 213.1 102.388 208.894 102.66 203.874C102.797 194.198 103.466 181.84 99.2939 173.094C98.9288 172.686 98.5219 173.052 98.887 173.459C98.8661 173.845 98.8243 174.617 99.1893 175.024C98.8033 175.004 98.8033 175.004 98.7824 175.39C99.2407 181.224 95.3901 187.987 92.8022 192.882C90.1724 198.55 85.6544 203.34 81.22 206.586C76.3788 210.197 70.8073 212.993 65.2777 215.018C72.9884 208.464 78.5503 198.695 81.1078 187.214C81.1288 186.828 80.7637 186.421 80.3567 186.786C79.5011 188.289 78.6244 190.178 77.7688 191.681C77.4037 191.274 77.0386 190.867 76.2457 191.211C65.7493 199.163 55.6808 206.364 43.4635 210.35C36.7759 212.312 29.8068 212.322 22.9215 210.787C21.3983 210.317 20.2403 210.254 18.7172 209.785C17.9243 210.129 17.1523 210.087 16.3593 210.432L15.9733 210.411C15.2013 210.369 14.4502 209.941 13.6782 209.899C12.9271 209.471 12.4574 210.995 13.2085 211.423C13.9596 211.851 14.7107 212.279 15.4409 213.093C31.1512 223.239 51.8815 219.327 67.2401 207.378L66.8332 207.743C65.1845 209.59 63.5568 211.051 61.5431 212.492C61.1571 212.471 61.1362 212.857 61.1362 212.857C61.1362 212.857 61.1362 212.857 60.7293 213.222C59.5294 213.932 58.7156 214.662 57.5157 215.372C55.5439 216.04 53.958 216.728 51.9652 217.782C51.5792 217.762 51.5583 218.148 51.1514 218.513C50.7026 219.651 51.0259 220.83 52.2048 220.507C61.1876 219.057 70.1494 217.993 78.5066 213.798C80.0924 213.109 81.2923 212.399 82.8991 211.324C86.5196 208.809 89.7749 205.887 93.0513 202.579C90.9121 206.336 88.7728 210.093 86.2476 213.83C86.2267 214.216 86.2058 214.602 86.6127 214.237C91.1935 208.288 96.5672 201.994 99.6666 194.803C99.5202 197.507 99.3738 200.21 99.6134 202.934C99.4879 205.251 99.3415 207.954 99.1951 210.658C99.0068 214.133 98.4325 217.588 97.4932 220.636C96.5957 222.911 95.7191 224.8 94.4356 227.054C94.4147 227.441 94.3937 227.827 94.8007 227.461C97.9933 225.698 100.049 223.485 102.167 220.114C105.099 216.013 108.376 212.704 111.287 208.989C112.528 207.507 113.384 206.004 114.626 204.522C115.461 203.405 115.909 202.267 116.765 200.765C116.212 203.833 115.272 206.881 113.947 209.907C113.926 210.294 114.291 210.701 114.312 210.315C116.879 205.806 118.288 201.234 119.353 195.87C125.027 205.472 132.027 212.049 139.735 219.825C140.1 220.232 140.528 219.481 140.142 219.46C139.798 218.667 139.068 217.852 138.703 217.445C139.068 217.852 139.798 218.667 140.163 219.074C140.893 219.888 141.258 220.295 141.989 221.109L142.375 221.13C142.375 221.13 142.782 220.765 142.416 220.358C140.007 214.805 137.984 209.273 136.347 203.762C136.368 203.376 136.024 202.582 135.659 202.175C152.329 208.888 174.06 215.1 187.916 202.294C188.73 201.564 188.427 199.998 187.249 200.322C186.07 200.645 184.505 200.948 182.961 200.864C182.596 200.457 182.596 200.457 182.21 200.436C180.279 200.331 177.963 200.206 176.033 200.102C174.124 199.611 172.601 199.141 170.713 198.264C179.591 198.745 188.188 197.274 194.72 191.043C195.127 190.678 195.533 190.313 195.94 189.948C196.733 189.603 197.161 188.852 197.954 188.507C196.838 187.672 196.859 187.286 196.88 186.9C196.88 186.9 196.494 186.879 196.88 186.9Z" fill="url(#paint6_linear_1_3072)"/>
<path opacity="0.5" d="M68.4115 107.127C66.8047 108.202 65.5631 109.684 63.9563 110.759C58.343 114.328 52.8343 115.966 46.5536 117.562C37.529 119.785 29.0578 118.939 20.1168 119.616C19.7308 119.595 19.7099 119.981 20.0959 120.002C22.3283 121.673 24.9885 122.591 27.6696 123.124C41.5336 131.621 63.0987 126.592 68.4115 107.127C68.7975 107.148 68.4115 107.127 68.4115 107.127Z" fill="url(#paint7_linear_1_3072)"/>
<defs>
<linearGradient id="paint0_linear_1_3072" x1="90.4949" y1="216.98" x2="110.452" y2="216.592" gradientUnits="userSpaceOnUse">
<stop offset="0.1327" stop-color="#6E5D00"/>
<stop offset="0.4712" stop-color="#4B3200"/>
<stop offset="0.6194" stop-color="#383007"/>
<stop offset="0.9337" stop-color="#003138"/>
</linearGradient>
<linearGradient id="paint1_linear_1_3072" x1="101.455" y1="226.885" x2="97.1435" y2="5.68803" gradientUnits="userSpaceOnUse">
<stop offset="0.0138911" stop-color="#057046"/>
<stop offset="1" stop-color="#169300"/>
</linearGradient>
<linearGradient id="paint2_linear_1_3072" x1="55.6031" y1="115.056" x2="97.1686" y2="95.339" gradientUnits="userSpaceOnUse">
<stop stop-color="#FFE23A"/>
<stop offset="0.9861" stop-color="#004227"/>
</linearGradient>
<linearGradient id="paint3_linear_1_3072" x1="59.7688" y1="67.7398" x2="101.273" y2="37.3572" gradientUnits="userSpaceOnUse">
<stop stop-color="#FFE23A"/>
<stop offset="0.9861" stop-color="#004227"/>
</linearGradient>
<linearGradient id="paint4_linear_1_3072" x1="37.6831" y1="203.2" x2="103.727" y2="153.015" gradientUnits="userSpaceOnUse">
<stop stop-color="#FFE23A"/>
<stop offset="0.9861" stop-color="#004227"/>
</linearGradient>
<linearGradient id="paint5_linear_1_3072" x1="20.3547" y1="131.627" x2="73.7931" y2="130.589" gradientUnits="userSpaceOnUse">
<stop stop-color="#FFE23A"/>
<stop offset="0.9861" stop-color="#004227"/>
</linearGradient>
<linearGradient id="paint6_linear_1_3072" x1="55.529" y1="125.891" x2="215.946" y2="198.942" gradientUnits="userSpaceOnUse">
<stop stop-color="#004B14"/>
<stop offset="0.7095" stop-color="#0C498D"/>
<stop offset="1" stop-color="#005667"/>
</linearGradient>
<linearGradient id="paint7_linear_1_3072" x1="49.4617" y1="106.1" x2="32.8478" y2="133.696" gradientUnits="userSpaceOnUse">
<stop stop-color="#004B14"/>
<stop offset="0.7095" stop-color="#0C498D"/>
<stop offset="1" stop-color="#005667"/>
</linearGradient>
</defs>
</svg>
