<svg width="171" height="174" viewBox="0 0 171 174" fill="none" xmlns="http://www.w3.org/2000/svg">
<g clip-path="url(#clip0_4308_71)">
<path d="M94.3281 6.89958L6.44269 63.3551C4.81235 64.402 3.41678 65.7755 2.34408 67.389C1.27139 69.0024 0.544875 70.8207 0.210411 72.7292C-0.124052 74.6376 -0.0592056 76.5946 0.400872 78.4767C0.86095 80.3587 1.70626 82.125 2.88342 83.6639C32.3336 122.191 70.7754 152.916 114.846 173.15C116.608 173.958 118.517 174.392 120.455 174.424C122.392 174.457 124.315 174.088 126.103 173.341C127.891 172.593 129.504 171.483 130.842 170.081C132.179 168.679 133.212 167.015 133.874 165.194L169.491 66.9514C170.645 63.7405 170.59 60.2196 169.336 57.0464C168.083 53.8733 165.717 51.2651 162.681 49.7093C143.553 39.7911 126.56 26.2125 112.666 9.74452C110.479 7.12053 107.41 5.38404 104.034 4.86034C100.659 4.33664 97.2077 5.06165 94.3281 6.89958V6.89958Z" fill="#D8DBE8"/>
<path d="M94.3281 3.20524L6.44269 59.6608C4.81235 60.7077 3.41678 62.0812 2.34408 63.6946C1.27139 65.3081 0.544875 67.1264 0.210411 69.0348C-0.124052 70.9432 -0.0592056 72.9003 0.400872 74.7823C0.86095 76.6644 1.70626 78.4307 2.88342 79.9696C32.3336 118.497 70.7754 149.222 114.846 169.456C116.608 170.264 118.517 170.697 120.455 170.73C122.392 170.763 124.315 170.394 126.103 169.646C127.891 168.899 129.504 167.789 130.842 166.387C132.179 164.985 133.212 163.321 133.874 161.5L169.491 63.257C170.645 60.0462 170.59 56.5252 169.336 53.3521C168.083 50.1789 165.717 47.5707 162.681 46.0149C143.553 36.0967 126.56 22.5181 112.666 6.05018C110.479 3.42619 107.41 1.6897 104.034 1.166C100.659 0.642299 97.2077 1.36731 94.3281 3.20524V3.20524Z" fill="white"/>
<path d="M94.3281 3.20524L6.44269 59.6608C4.81235 60.7077 3.41678 62.0812 2.34408 63.6946C1.27139 65.3081 0.544875 67.1264 0.210411 69.0348C-0.124052 70.9432 -0.0592056 72.9003 0.400872 74.7823C0.86095 76.6644 1.70626 78.4307 2.88342 79.9696C32.3336 118.497 70.7754 149.222 114.846 169.456C116.608 170.264 118.517 170.697 120.455 170.73C122.392 170.763 124.315 170.394 126.103 169.646C127.891 168.899 129.504 167.789 130.842 166.387C132.179 164.985 133.212 163.321 133.874 161.5L169.491 63.257C170.645 60.0462 170.59 56.5252 169.336 53.3521C168.083 50.1789 165.717 47.5707 162.681 46.0149C143.553 36.0967 126.56 22.5181 112.666 6.05018C110.479 3.42619 107.41 1.6897 104.034 1.166C100.659 0.642299 97.2077 1.36731 94.3281 3.20524V3.20524Z" fill="#23AAAC"/>
</g>
<defs>
<clipPath id="clip0_4308_71">
<rect width="171" height="174" fill="white"/>
</clipPath>
</defs>
</svg>
