<svg width="12" height="12" viewBox="0 0 12 12" fill="none" xmlns="http://www.w3.org/2000/svg">
<path d="M10.2767 6.13356C10.2767 7.02507 10.0124 7.89657 9.51708 8.63784C9.02178 9.3791 8.3178 9.95684 7.49415 10.298C6.6705 10.6392 5.76417 10.7285 4.88979 10.5545C4.0154 10.3806 3.21225 9.9513 2.58185 9.3209C1.95146 8.69051 1.52213 7.88733 1.34821 7.01295C1.17428 6.13857 1.26356 5.23224 1.60472 4.40859C1.94589 3.58493 2.52362 2.88094 3.26488 2.38564C4.00615 1.89034 4.87764 1.62598 5.76916 1.62598C6.96464 1.62598 8.11116 2.10088 8.9565 2.94622C9.80183 3.79155 10.2767 4.93808 10.2767 6.13356Z" fill="white" stroke="#23AAAC" stroke-width="2.39492" stroke-miterlimit="10"/>
</svg>
